<svg width="52" height="53" viewBox="0 0 52 53" fill="none" xmlns="http://www.w3.org/2000/svg">
<rect x="0.5" y="0.799988" width="51" height="51" rx="15.5" fill="#836A5D"/>
<rect x="0.5" y="0.799988" width="51" height="51" rx="15.5" stroke="#E7DBD5"/>
<path fill-rule="evenodd" clip-rule="evenodd" d="M26.1272 21.7265C21.4726 21.7265 17.681 25.5181 17.681 30.1727C17.681 34.8274 21.4726 38.619 26.1272 38.619C30.7893 38.619 34.5735 34.8274 34.5735 30.1727C34.5735 25.5181 30.7819 21.7265 26.1272 21.7265ZM26.1272 39.3198C21.0816 39.3198 16.9802 35.2184 16.9802 30.1727C16.9802 25.1271 21.0816 21.0257 26.1272 21.0257C31.1729 21.0257 35.2743 25.1271 35.2743 30.1727C35.2743 35.2184 31.1655 39.3198 26.1272 39.3198Z" fill="#DCCAC1"/>
<path fill-rule="evenodd" clip-rule="evenodd" d="M26.1272 42.3C19.444 42.3 14 36.8634 14 30.1727C14 27.5245 14.8336 25.0091 16.4195 22.8993C16.8695 22.2945 17.4965 21.6674 18.1531 21.0109C19.2374 19.9265 20.3587 18.7979 20.8603 17.6472C20.9414 17.4701 21.1406 17.389 21.3177 17.4701C21.4947 17.5439 21.5758 17.7504 21.4947 17.9275C20.9341 19.1963 19.7686 20.3691 18.6399 21.4978C17.9982 22.1395 17.3933 22.7518 16.9728 23.3124C15.4827 25.3041 14.6934 27.6721 14.6934 30.1654C14.6934 36.465 19.8202 41.5918 26.1199 41.5918C32.4195 41.5918 37.5463 36.465 37.5463 30.1654C37.5463 27.6721 36.757 25.3041 35.2669 23.3124C34.8465 22.7518 34.2342 22.1395 33.5924 21.4978C32.4638 20.3618 31.2983 19.1963 30.7377 17.9275C30.6639 17.7504 30.7377 17.5439 30.9147 17.4701C31.0917 17.389 31.2983 17.4701 31.3721 17.6472C31.8811 18.7979 32.9949 19.9192 34.0793 21.0109C34.7358 21.6748 35.3628 22.2945 35.8128 22.8993C37.3988 25.0091 38.2324 27.5245 38.2324 30.1727C38.2471 36.8634 32.8105 42.3 26.1272 42.3Z" fill="#DCCAC1"/>
<path fill-rule="evenodd" clip-rule="evenodd" d="M28.2665 21.992C28.1485 21.992 28.0378 21.933 27.9714 21.8297C27.8681 21.6674 27.9198 21.4535 28.0821 21.3502C29.4615 20.5019 30.3098 19.3659 30.686 17.8758L28.6648 15.1465C28.4509 14.8588 28.1411 14.7039 27.7796 14.7039H24.4675C24.106 14.7039 23.7962 14.8588 23.5823 15.1465L21.5611 17.8758C21.9373 19.3659 22.793 20.5019 24.1651 21.3502C24.3273 21.4535 24.379 21.6674 24.2757 21.8297C24.1724 21.992 23.9585 22.0436 23.7962 21.9404C22.225 20.974 21.2291 19.602 20.8382 17.8685C20.816 17.7726 20.8382 17.6619 20.8972 17.5808L23.0143 14.7186C23.361 14.2465 23.8774 13.9883 24.4601 13.9883H27.7722C28.355 13.9883 28.8714 14.2465 29.2181 14.7186L31.3352 17.5808C31.3942 17.6619 31.4163 17.7652 31.3942 17.8685C31.0032 19.602 30.0074 20.9667 28.4361 21.9404C28.3919 21.9773 28.3329 21.992 28.2665 21.992Z" fill="#DCCAC1"/>
<path fill-rule="evenodd" clip-rule="evenodd" d="M25.1535 17.9422L26.1272 18.6504L27.101 17.9422L26.7321 16.7988H25.5297L25.1535 17.9422ZM26.1272 19.4323C26.0535 19.4323 25.9797 19.4102 25.9207 19.3659L24.5339 18.3627C24.4085 18.2742 24.3568 18.1193 24.4085 17.9717L24.9396 16.3415C24.9839 16.1939 25.124 16.0981 25.2716 16.0981H26.9829C27.1379 16.0981 27.2706 16.1939 27.3149 16.3415L27.846 17.9717C27.8903 18.1193 27.8386 18.2742 27.7206 18.3627L26.3338 19.3659C26.2674 19.4102 26.1936 19.4323 26.1272 19.4323Z" fill="#DCCAC1"/>
<path fill-rule="evenodd" clip-rule="evenodd" d="M26.1272 21.7265C25.9355 21.7265 25.7805 21.5715 25.7805 21.3797V19.0856C25.7805 18.8938 25.9355 18.7389 26.1272 18.7389C26.319 18.7389 26.474 18.8938 26.474 19.0856V21.3797C26.474 21.5715 26.319 21.7265 26.1272 21.7265Z" fill="#DCCAC1"/>
<path fill-rule="evenodd" clip-rule="evenodd" d="M25.2716 16.7988C25.1609 16.7988 25.0576 16.7472 24.9912 16.6513L23.5602 14.6817C23.4495 14.5268 23.479 14.3055 23.6339 14.1949C23.7888 14.0842 24.0101 14.1137 24.1208 14.2686L25.5519 16.2382C25.6625 16.3931 25.633 16.6144 25.4781 16.7251C25.4117 16.7767 25.3379 16.7988 25.2716 16.7988Z" fill="#DCCAC1"/>
<path fill-rule="evenodd" clip-rule="evenodd" d="M26.9756 16.7988C26.9018 16.7988 26.8354 16.7767 26.769 16.7324C26.6141 16.6218 26.5772 16.4005 26.6879 16.2456L28.1189 14.276C28.2296 14.1211 28.4509 14.0842 28.6058 14.2022C28.7607 14.3129 28.7976 14.5342 28.6796 14.6891L27.2485 16.6587C27.1969 16.7472 27.0862 16.7988 26.9756 16.7988Z" fill="#DCCAC1"/>
<path fill-rule="evenodd" clip-rule="evenodd" d="M21.9594 20.0372C21.8414 20.0372 21.7234 19.9782 21.657 19.8602C21.5611 19.6905 21.6201 19.4766 21.7824 19.3807L24.5634 17.7726C24.7331 17.6767 24.947 17.7357 25.0429 17.898C25.1388 18.0676 25.0798 18.2815 24.9175 18.3774L22.1365 19.9856C22.0775 20.0224 22.0184 20.0372 21.9594 20.0372Z" fill="#DCCAC1"/>
<path fill-rule="evenodd" clip-rule="evenodd" d="M30.2877 20.0372C30.2287 20.0372 30.1697 20.0224 30.1107 19.9929L27.3296 18.3848C27.16 18.2889 27.1083 18.075 27.2042 17.9053C27.3001 17.7357 27.5141 17.684 27.6837 17.7799L30.4647 19.388C30.6344 19.4839 30.686 19.6979 30.5901 19.8675C30.5311 19.9708 30.4131 20.0372 30.2877 20.0372Z" fill="#DCCAC1"/>
<path fill-rule="evenodd" clip-rule="evenodd" d="M26.1272 12.4171C25.9355 12.4171 25.7805 12.2622 25.7805 12.0704V10.6467C25.7805 10.4549 25.9355 10.3 26.1272 10.3C26.319 10.3 26.474 10.4549 26.474 10.6467V12.0704C26.474 12.2548 26.319 12.4171 26.1272 12.4171Z" fill="#DCCAC1"/>
<path fill-rule="evenodd" clip-rule="evenodd" d="M31.0622 15.2497C30.9442 15.2497 30.8262 15.1907 30.7598 15.0727C30.6639 14.903 30.7229 14.6891 30.8852 14.5932L32.1171 13.8851C32.2868 13.7892 32.5007 13.8482 32.5966 14.0105C32.6925 14.1801 32.6335 14.394 32.4712 14.4899L31.2393 15.2055C31.1803 15.235 31.1213 15.2497 31.0622 15.2497Z" fill="#DCCAC1"/>
<path fill-rule="evenodd" clip-rule="evenodd" d="M21.1849 15.2497C21.1259 15.2497 21.0669 15.235 21.0078 15.2055L19.7759 14.4899C19.6063 14.394 19.5546 14.1801 19.6505 14.0105C19.7464 13.8408 19.9604 13.7892 20.13 13.8851L21.3619 14.5932C21.5316 14.6891 21.5832 14.903 21.4873 15.0727C21.4209 15.1907 21.3029 15.2497 21.1849 15.2497Z" fill="#DCCAC1"/>
<path fill-rule="evenodd" clip-rule="evenodd" d="M28.9746 13.1695C28.9156 13.1695 28.8566 13.1548 28.7976 13.1253C28.6279 13.0294 28.5763 12.8154 28.6722 12.6458L29.3877 11.4139C29.4836 11.2442 29.6976 11.1926 29.8672 11.2885C30.0369 11.3844 30.0885 11.5983 29.9926 11.7679L29.2845 12.9998C29.2107 13.1105 29.0927 13.1695 28.9746 13.1695Z" fill="#DCCAC1"/>
<path fill-rule="evenodd" clip-rule="evenodd" d="M23.2725 13.1695C23.1545 13.1695 23.0364 13.1105 22.97 12.9925L22.2619 11.7606C22.166 11.5909 22.225 11.377 22.3873 11.2811C22.5569 11.1852 22.7709 11.2442 22.8668 11.4065L23.5749 12.6384C23.6708 12.8081 23.6118 13.022 23.4495 13.1179C23.3905 13.1548 23.3315 13.1695 23.2725 13.1695Z" fill="#DCCAC1"/>
</svg>
