<svg width="52" height="53" viewBox="0 0 52 53" fill="none" xmlns="http://www.w3.org/2000/svg">
<rect x="0.5" y="0.799988" width="51" height="51" rx="15.5" fill="#836A5D"/>
<rect x="0.5" y="0.799988" width="51" height="51" rx="15.5" stroke="#E7DBD5"/>
<path d="M26 40.2168C25.9326 40.2167 25.8661 40.2018 25.8051 40.173C25.7442 40.1442 25.6904 40.1023 25.6475 40.0504L10.1046 21.1976C10.0495 21.1308 10.0145 21.0496 10.0037 20.9636C9.99298 20.8777 10.0069 20.7904 10.0438 20.712C10.0808 20.6336 10.1392 20.5674 10.2124 20.5209C10.2855 20.4745 10.3704 20.4498 10.457 20.4498H41.543C41.6296 20.4498 41.7145 20.4745 41.7876 20.5209C41.8608 20.5674 41.9192 20.6336 41.9562 20.712C41.9931 20.7904 42.007 20.8777 41.9963 20.9636C41.9855 21.0496 41.9505 21.1308 41.8954 21.1976L26.3525 40.0504C26.3096 40.1023 26.2558 40.1442 26.1949 40.173C26.1339 40.2018 26.0674 40.2167 26 40.2168ZM11.4266 21.364L26 39.041L40.5734 21.364H11.4266Z" fill="#DCCAC1"/>
<path d="M26 40.2168C25.9092 40.2168 25.8204 40.1897 25.745 40.1391C25.6696 40.0884 25.611 40.0165 25.5767 39.9324L17.8715 21.0802C17.8431 21.0107 17.8323 20.9354 17.8399 20.8608C17.8476 20.7862 17.8735 20.7146 17.9153 20.6524C17.9571 20.5901 18.0136 20.5391 18.0798 20.5039C18.146 20.4686 18.2198 20.4502 18.2948 20.4502H33.7052C33.7802 20.4502 33.854 20.4686 33.9202 20.5039C33.9864 20.5391 34.0429 20.5901 34.0847 20.6524C34.1265 20.7146 34.1524 20.7862 34.1601 20.8608C34.1677 20.9354 34.1569 21.0107 34.1285 21.0802L26.4233 39.9324C26.389 40.0165 26.3304 40.0884 26.255 40.1391C26.1796 40.1897 26.0908 40.2168 26 40.2168ZM18.9755 21.364L26 38.5527L33.0245 21.364H18.9755Z" fill="#DCCAC1"/>
<path d="M41.543 21.364H10.457C10.3735 21.364 10.2915 21.3411 10.2201 21.2978C10.1487 21.2545 10.0905 21.1924 10.0518 21.1183C10.0132 21.0443 9.99559 20.961 10.0009 20.8776C10.0063 20.7943 10.0344 20.7139 10.0822 20.6454L15.0742 13.4956C15.1163 13.4353 15.1724 13.3859 15.2377 13.3519C15.3029 13.3178 15.3754 13.3 15.4491 13.3H36.5509C36.6246 13.3 36.6971 13.3178 36.7623 13.3519C36.8276 13.3859 36.8837 13.4353 36.9258 13.4956L41.9178 20.6454C41.9656 20.7139 41.9937 20.7943 41.9991 20.8776C42.0044 20.961 41.9868 21.0443 41.9482 21.1183C41.9095 21.1924 41.8513 21.2545 41.7799 21.2978C41.7085 21.3411 41.6265 21.364 41.543 21.364ZM11.3338 20.4498H40.6662L36.3128 14.2143H15.6872L11.3338 20.4498Z" fill="#DCCAC1"/>
<path d="M33.7052 21.364H18.2948C18.2178 21.3638 18.1422 21.344 18.0749 21.3067C18.0076 21.2694 17.9508 21.2157 17.9098 21.1506C17.8688 21.0855 17.8448 21.0111 17.8402 20.9343C17.8356 20.8575 17.8504 20.7808 17.8834 20.7112L21.2726 13.5615C21.3096 13.4835 21.3678 13.4176 21.4406 13.3713C21.5134 13.325 21.5978 13.3003 21.6841 13.3H30.3159C30.4022 13.3003 30.4866 13.325 30.5594 13.3713C30.6322 13.4176 30.6904 13.4835 30.7273 13.5615L34.1166 20.7112C34.1496 20.7808 34.1644 20.8575 34.1598 20.9343C34.1552 21.0111 34.1312 21.0855 34.0902 21.1506C34.0492 21.2157 33.9924 21.2694 33.9251 21.3067C33.8578 21.344 33.7821 21.3638 33.7052 21.364ZM19.0175 20.4498H32.9824L30.027 14.2143H21.973L19.0175 20.4498Z" fill="#DCCAC1"/>
</svg>
