<svg width="52" height="53" viewBox="0 0 52 53" fill="none" xmlns="http://www.w3.org/2000/svg">
<rect x="0.5" y="1.29999" width="51" height="51" rx="15.5" fill="#F4EEEB"/>
<rect x="0.5" y="1.29999" width="51" height="51" rx="15.5" stroke="#FBF9F8"/>
<path fill-rule="evenodd" clip-rule="evenodd" d="M26.1272 22.2265C21.4726 22.2265 17.681 26.0181 17.681 30.6727C17.681 35.3274 21.4726 39.119 26.1272 39.119C30.7893 39.119 34.5735 35.3274 34.5735 30.6727C34.5735 26.0181 30.7819 22.2265 26.1272 22.2265ZM26.1272 39.8198C21.0816 39.8198 16.9802 35.7184 16.9802 30.6727C16.9802 25.6271 21.0816 21.5257 26.1272 21.5257C31.1729 21.5257 35.2743 25.6271 35.2743 30.6727C35.2743 35.7184 31.1655 39.8198 26.1272 39.8198Z" fill="#836A5D"/>
<path fill-rule="evenodd" clip-rule="evenodd" d="M26.1272 42.8C19.444 42.8 14 37.3634 14 30.6727C14 28.0245 14.8336 25.5091 16.4195 23.3993C16.8695 22.7945 17.4965 22.1674 18.1531 21.5109C19.2374 20.4265 20.3587 19.2979 20.8603 18.1472C20.9414 17.9701 21.1406 17.889 21.3177 17.9701C21.4947 18.0439 21.5758 18.2504 21.4947 18.4275C20.9341 19.6963 19.7686 20.8691 18.6399 21.9978C17.9982 22.6395 17.3933 23.2518 16.9728 23.8124C15.4827 25.8041 14.6934 28.1721 14.6934 30.6654C14.6934 36.965 19.8202 42.0918 26.1199 42.0918C32.4195 42.0918 37.5463 36.965 37.5463 30.6654C37.5463 28.1721 36.757 25.8041 35.2669 23.8124C34.8465 23.2518 34.2342 22.6395 33.5924 21.9978C32.4638 20.8618 31.2983 19.6963 30.7377 18.4275C30.6639 18.2504 30.7377 18.0439 30.9147 17.9701C31.0917 17.889 31.2983 17.9701 31.3721 18.1472C31.8811 19.2979 32.9949 20.4192 34.0793 21.5109C34.7358 22.1748 35.3628 22.7945 35.8128 23.3993C37.3988 25.5091 38.2324 28.0245 38.2324 30.6727C38.2471 37.3634 32.8105 42.8 26.1272 42.8Z" fill="#836A5D"/>
<path fill-rule="evenodd" clip-rule="evenodd" d="M28.2665 22.492C28.1485 22.492 28.0378 22.433 27.9714 22.3297C27.8681 22.1674 27.9198 21.9535 28.0821 21.8502C29.4615 21.0019 30.3098 19.8659 30.686 18.3758L28.6648 15.6465C28.4509 15.3588 28.1411 15.2039 27.7796 15.2039H24.4675C24.106 15.2039 23.7962 15.3588 23.5823 15.6465L21.5611 18.3758C21.9373 19.8659 22.793 21.0019 24.1651 21.8502C24.3273 21.9535 24.379 22.1674 24.2757 22.3297C24.1724 22.492 23.9585 22.5436 23.7962 22.4404C22.225 21.474 21.2291 20.102 20.8382 18.3685C20.816 18.2726 20.8382 18.1619 20.8972 18.0808L23.0143 15.2186C23.361 14.7465 23.8774 14.4883 24.4601 14.4883H27.7722C28.355 14.4883 28.8714 14.7465 29.2181 15.2186L31.3352 18.0808C31.3942 18.1619 31.4163 18.2652 31.3942 18.3685C31.0032 20.102 30.0074 21.4667 28.4361 22.4404C28.3919 22.4773 28.3329 22.492 28.2665 22.492Z" fill="#836A5D"/>
<path fill-rule="evenodd" clip-rule="evenodd" d="M25.1535 18.4422L26.1272 19.1504L27.101 18.4422L26.7321 17.2988H25.5297L25.1535 18.4422ZM26.1272 19.9323C26.0535 19.9323 25.9797 19.9102 25.9207 19.8659L24.5339 18.8627C24.4085 18.7742 24.3568 18.6193 24.4085 18.4717L24.9396 16.8415C24.9839 16.6939 25.124 16.5981 25.2716 16.5981H26.9829C27.1379 16.5981 27.2706 16.6939 27.3149 16.8415L27.846 18.4717C27.8903 18.6193 27.8386 18.7742 27.7206 18.8627L26.3338 19.8659C26.2674 19.9102 26.1936 19.9323 26.1272 19.9323Z" fill="#836A5D"/>
<path fill-rule="evenodd" clip-rule="evenodd" d="M26.1272 22.2265C25.9355 22.2265 25.7805 22.0715 25.7805 21.8797V19.5856C25.7805 19.3938 25.9355 19.2389 26.1272 19.2389C26.319 19.2389 26.474 19.3938 26.474 19.5856V21.8797C26.474 22.0715 26.319 22.2265 26.1272 22.2265Z" fill="#836A5D"/>
<path fill-rule="evenodd" clip-rule="evenodd" d="M25.2716 17.2988C25.1609 17.2988 25.0576 17.2472 24.9912 17.1513L23.5602 15.1817C23.4495 15.0268 23.479 14.8055 23.6339 14.6949C23.7888 14.5842 24.0101 14.6137 24.1208 14.7686L25.5519 16.7382C25.6625 16.8931 25.633 17.1144 25.4781 17.2251C25.4117 17.2767 25.3379 17.2988 25.2716 17.2988Z" fill="#836A5D"/>
<path fill-rule="evenodd" clip-rule="evenodd" d="M26.9756 17.2988C26.9018 17.2988 26.8354 17.2767 26.769 17.2324C26.6141 17.1218 26.5772 16.9005 26.6879 16.7456L28.1189 14.776C28.2296 14.6211 28.4509 14.5842 28.6058 14.7022C28.7607 14.8129 28.7976 15.0342 28.6796 15.1891L27.2485 17.1587C27.1969 17.2472 27.0862 17.2988 26.9756 17.2988Z" fill="#836A5D"/>
<path fill-rule="evenodd" clip-rule="evenodd" d="M21.9594 20.5372C21.8414 20.5372 21.7234 20.4782 21.657 20.3602C21.5611 20.1905 21.6201 19.9766 21.7824 19.8807L24.5634 18.2726C24.7331 18.1767 24.947 18.2357 25.0429 18.398C25.1388 18.5676 25.0798 18.7815 24.9175 18.8774L22.1365 20.4856C22.0775 20.5224 22.0184 20.5372 21.9594 20.5372Z" fill="#836A5D"/>
<path fill-rule="evenodd" clip-rule="evenodd" d="M30.2877 20.5372C30.2287 20.5372 30.1697 20.5224 30.1107 20.4929L27.3296 18.8848C27.16 18.7889 27.1083 18.575 27.2042 18.4053C27.3001 18.2357 27.5141 18.184 27.6837 18.2799L30.4647 19.888C30.6344 19.9839 30.686 20.1979 30.5901 20.3675C30.5311 20.4708 30.4131 20.5372 30.2877 20.5372Z" fill="#836A5D"/>
<path fill-rule="evenodd" clip-rule="evenodd" d="M26.1272 12.9171C25.9355 12.9171 25.7805 12.7622 25.7805 12.5704V11.1467C25.7805 10.9549 25.9355 10.8 26.1272 10.8C26.319 10.8 26.474 10.9549 26.474 11.1467V12.5704C26.474 12.7548 26.319 12.9171 26.1272 12.9171Z" fill="#836A5D"/>
<path fill-rule="evenodd" clip-rule="evenodd" d="M31.0622 15.7497C30.9442 15.7497 30.8262 15.6907 30.7598 15.5727C30.6639 15.403 30.7229 15.1891 30.8852 15.0932L32.1171 14.3851C32.2868 14.2892 32.5007 14.3482 32.5966 14.5105C32.6925 14.6801 32.6335 14.894 32.4712 14.9899L31.2393 15.7055C31.1803 15.735 31.1213 15.7497 31.0622 15.7497Z" fill="#836A5D"/>
<path fill-rule="evenodd" clip-rule="evenodd" d="M21.1849 15.7497C21.1259 15.7497 21.0669 15.735 21.0078 15.7055L19.7759 14.9899C19.6063 14.894 19.5546 14.6801 19.6505 14.5105C19.7464 14.3408 19.9604 14.2892 20.13 14.3851L21.3619 15.0932C21.5316 15.1891 21.5832 15.403 21.4873 15.5727C21.4209 15.6907 21.3029 15.7497 21.1849 15.7497Z" fill="#836A5D"/>
<path fill-rule="evenodd" clip-rule="evenodd" d="M28.9746 13.6695C28.9156 13.6695 28.8566 13.6548 28.7976 13.6253C28.6279 13.5294 28.5763 13.3154 28.6722 13.1458L29.3877 11.9139C29.4836 11.7442 29.6976 11.6926 29.8672 11.7885C30.0369 11.8844 30.0885 12.0983 29.9926 12.2679L29.2845 13.4998C29.2107 13.6105 29.0927 13.6695 28.9746 13.6695Z" fill="#836A5D"/>
<path fill-rule="evenodd" clip-rule="evenodd" d="M23.2725 13.6695C23.1545 13.6695 23.0364 13.6105 22.97 13.4925L22.2619 12.2606C22.166 12.0909 22.225 11.877 22.3873 11.7811C22.5569 11.6852 22.7709 11.7442 22.8668 11.9065L23.5749 13.1384C23.6708 13.3081 23.6118 13.522 23.4495 13.6179C23.3905 13.6548 23.3315 13.6695 23.2725 13.6695Z" fill="#836A5D"/>
</svg>
