<svg width="52" height="53" viewBox="0 0 52 53" fill="none" xmlns="http://www.w3.org/2000/svg">
<rect x="0.5" y="1.29999" width="51" height="51" rx="15.5" fill="#F4EEEB"/>
<rect x="0.5" y="1.29999" width="51" height="51" rx="15.5" stroke="#FBF9F8"/>
<path d="M26 40.7168C25.9326 40.7167 25.8661 40.7018 25.8051 40.673C25.7442 40.6442 25.6904 40.6023 25.6475 40.5504L10.1046 21.6976C10.0495 21.6308 10.0145 21.5496 10.0037 21.4636C9.99298 21.3777 10.0069 21.2904 10.0438 21.212C10.0808 21.1336 10.1392 21.0674 10.2124 21.0209C10.2855 20.9745 10.3704 20.9498 10.457 20.9498H41.543C41.6296 20.9498 41.7145 20.9745 41.7876 21.0209C41.8608 21.0674 41.9192 21.1336 41.9562 21.212C41.9931 21.2904 42.007 21.3777 41.9963 21.4636C41.9855 21.5496 41.9505 21.6308 41.8954 21.6976L26.3525 40.5504C26.3096 40.6023 26.2558 40.6442 26.1949 40.673C26.1339 40.7018 26.0674 40.7167 26 40.7168ZM11.4266 21.864L26 39.541L40.5734 21.864H11.4266Z" fill="#836A5D"/>
<path d="M26 40.7168C25.9092 40.7168 25.8204 40.6897 25.745 40.6391C25.6696 40.5884 25.611 40.5165 25.5767 40.4324L17.8715 21.5802C17.8431 21.5107 17.8323 21.4354 17.8399 21.3608C17.8476 21.2862 17.8735 21.2146 17.9153 21.1524C17.9571 21.0901 18.0136 21.0391 18.0798 21.0039C18.146 20.9686 18.2198 20.9502 18.2948 20.9502H33.7052C33.7802 20.9502 33.854 20.9686 33.9202 21.0039C33.9864 21.0391 34.0429 21.0901 34.0847 21.1524C34.1265 21.2146 34.1524 21.2862 34.1601 21.3608C34.1677 21.4354 34.1569 21.5107 34.1285 21.5802L26.4233 40.4324C26.389 40.5165 26.3304 40.5884 26.255 40.6391C26.1796 40.6897 26.0908 40.7168 26 40.7168ZM18.9755 21.864L26 39.0527L33.0245 21.864H18.9755Z" fill="#836A5D"/>
<path d="M41.543 21.864H10.457C10.3735 21.864 10.2915 21.8411 10.2201 21.7978C10.1487 21.7545 10.0905 21.6924 10.0518 21.6183C10.0132 21.5443 9.99559 21.461 10.0009 21.3776C10.0063 21.2943 10.0344 21.2139 10.0822 21.1454L15.0742 13.9956C15.1163 13.9353 15.1724 13.8859 15.2377 13.8519C15.3029 13.8178 15.3754 13.8 15.4491 13.8H36.5509C36.6246 13.8 36.6971 13.8178 36.7623 13.8519C36.8276 13.8859 36.8837 13.9353 36.9258 13.9956L41.9178 21.1454C41.9656 21.2139 41.9937 21.2943 41.9991 21.3776C42.0044 21.461 41.9868 21.5443 41.9482 21.6183C41.9095 21.6924 41.8513 21.7545 41.7799 21.7978C41.7085 21.8411 41.6265 21.864 41.543 21.864ZM11.3338 20.9498H40.6662L36.3128 14.7143H15.6872L11.3338 20.9498Z" fill="#836A5D"/>
<path d="M33.7052 21.864H18.2948C18.2178 21.8638 18.1422 21.844 18.0749 21.8067C18.0076 21.7694 17.9508 21.7157 17.9098 21.6506C17.8688 21.5855 17.8448 21.5111 17.8402 21.4343C17.8356 21.3575 17.8504 21.2808 17.8834 21.2112L21.2726 14.0615C21.3096 13.9835 21.3678 13.9176 21.4406 13.8713C21.5134 13.825 21.5978 13.8003 21.6841 13.8H30.3159C30.4022 13.8003 30.4866 13.825 30.5594 13.8713C30.6322 13.9176 30.6904 13.9835 30.7273 14.0615L34.1166 21.2112C34.1496 21.2808 34.1644 21.3575 34.1598 21.4343C34.1552 21.5111 34.1312 21.5855 34.0902 21.6506C34.0492 21.7157 33.9924 21.7694 33.9251 21.8067C33.8578 21.844 33.7821 21.8638 33.7052 21.864ZM19.0175 20.9498H32.9824L30.027 14.7143H21.973L19.0175 20.9498Z" fill="#836A5D"/>
</svg>
