<svg width="24" height="25" viewBox="0 0 24 25" fill="none" xmlns="http://www.w3.org/2000/svg">
<path d="M16.3909 8.06243C16.3909 8.18021 16.3868 8.298 16.3785 8.41578C16.3744 8.47467 16.3682 8.53146 16.3619 8.59035C16.3578 8.62611 16.3702 8.70183 16.3619 8.59246C16.364 8.62821 16.3516 8.67238 16.3454 8.70603C16.3081 8.9395 16.2522 9.17086 16.1798 9.39591C16.1446 9.50318 16.1053 9.60835 16.0659 9.71141C16.0307 9.80185 16.1053 9.62517 16.0639 9.71351C16.0535 9.73875 16.0411 9.76399 16.0307 9.78923C16.0038 9.84812 15.9769 9.90701 15.9459 9.9638C15.8465 10.1615 15.7327 10.3508 15.6064 10.5317C15.5795 10.5717 15.5484 10.6348 15.5091 10.6642C15.5815 10.6074 15.5319 10.6348 15.507 10.6663C15.4905 10.6873 15.4739 10.7084 15.4553 10.7294C15.3808 10.8219 15.3021 10.9103 15.2193 10.9944C15.1448 11.0743 15.0661 11.1501 14.9854 11.2237C14.944 11.2594 14.9047 11.2973 14.8633 11.3309C14.8426 11.3478 14.8219 11.3667 14.8012 11.3835C14.7867 11.394 14.7722 11.4067 14.7577 11.4172C14.8053 11.3793 14.8115 11.3751 14.7763 11.4025C14.6004 11.535 14.4203 11.657 14.2298 11.7621C14.1346 11.8168 14.0373 11.8652 13.938 11.9136C13.9131 11.9262 13.8883 11.9367 13.8634 11.9472C13.7744 11.9872 13.9504 11.9114 13.8614 11.9493C13.8013 11.9745 13.7413 11.9977 13.6813 12.0208C13.4619 12.1007 13.2383 12.1638 13.0106 12.2101C12.9547 12.2206 12.8988 12.2311 12.8429 12.2396C12.8181 12.2438 12.785 12.2543 12.758 12.2522C12.8408 12.2585 12.816 12.2438 12.7829 12.248C12.6587 12.2606 12.5345 12.2732 12.4103 12.2774C12.1681 12.2858 11.93 12.2732 11.6899 12.248C11.5906 12.2375 11.7851 12.2627 11.6878 12.248C11.6589 12.2438 11.632 12.2396 11.603 12.2354C11.5471 12.2269 11.4912 12.2164 11.4374 12.2038C11.3194 12.1786 11.2014 12.1491 11.0834 12.1155C10.9778 12.0839 10.8723 12.0503 10.7667 12.0103C10.7232 11.9935 10.6797 11.9767 10.6383 11.9598C10.6301 11.9556 10.6218 11.9535 10.6135 11.9493C10.5721 11.9325 10.5804 11.9346 10.6363 11.9598C10.6094 11.9598 10.5597 11.9262 10.5369 11.9136C10.3299 11.8168 10.1312 11.7053 9.94075 11.577C9.89521 11.5476 9.84967 11.516 9.8062 11.4845C9.76687 11.4571 9.70477 11.4256 9.67579 11.3856C9.73168 11.4592 9.70477 11.4088 9.67372 11.3835C9.65302 11.3667 9.63232 11.3499 9.61162 11.3309C9.56401 11.2889 9.51433 11.2468 9.46879 11.2047C9.30732 11.0575 9.15828 10.8977 9.01959 10.7294C9.00303 10.7084 8.9844 10.6873 8.96784 10.6663C8.943 10.6348 8.89125 10.6074 8.96577 10.6642C8.92851 10.6348 8.89746 10.5695 8.86848 10.5317C8.80017 10.4349 8.736 10.334 8.67597 10.2309C8.62008 10.1363 8.56626 10.0395 8.51865 9.93856C8.49381 9.88808 8.47104 9.83971 8.4462 9.78923C8.43378 9.76399 8.42343 9.73875 8.41308 9.71351C8.39445 9.67144 8.39859 9.67986 8.42136 9.73665C8.41515 9.71982 8.40687 9.70299 8.40066 9.68406C8.31786 9.47584 8.24955 9.2592 8.19779 9.04046C8.17088 8.92898 8.14812 8.81751 8.13155 8.70393C8.12741 8.67448 8.12327 8.64714 8.11913 8.6177C8.10464 8.51674 8.12948 8.71655 8.11913 8.61559C8.11292 8.54829 8.10464 8.48098 8.1005 8.41368C8.08187 8.16969 8.08394 7.92361 8.10257 7.67963C8.10671 7.62074 8.11292 7.56395 8.11913 7.50506C8.12948 7.4041 8.10464 7.60181 8.11913 7.50295C8.12327 7.47351 8.12741 7.44616 8.13155 7.41672C8.15226 7.29473 8.17502 7.17274 8.20608 7.05285C8.2599 6.83411 8.33028 6.61957 8.41308 6.41134C8.44827 6.3209 8.37375 6.49758 8.41515 6.40924C8.4255 6.384 8.43792 6.35876 8.44827 6.33352C8.47104 6.28304 8.49588 6.23256 8.52072 6.18419C8.57454 6.07692 8.6325 5.97176 8.69253 5.8687C8.74842 5.77405 8.80845 5.6815 8.87262 5.59106C8.89953 5.5511 8.93058 5.488 8.96991 5.45855C8.89746 5.51534 8.94714 5.488 8.97198 5.45645C8.99475 5.427 9.01752 5.39966 9.04029 5.37232C9.17898 5.20406 9.33216 5.04631 9.49363 4.89908C9.53503 4.86332 9.57436 4.82546 9.61576 4.79181C9.63646 4.77498 9.65716 4.75605 9.67786 4.73923C9.70891 4.71399 9.73582 4.66141 9.67993 4.73712C9.70891 4.69927 9.77308 4.66772 9.81034 4.63827C9.86209 4.60041 9.91384 4.56466 9.96766 4.5289C10.1581 4.4027 10.3589 4.29123 10.5659 4.19658C10.5825 4.18817 10.6218 4.16293 10.6404 4.16293C10.6239 4.16924 10.6073 4.17765 10.5928 4.18396C10.6094 4.17765 10.6259 4.16924 10.6446 4.16293C10.688 4.1461 10.7294 4.12927 10.7729 4.11245C10.8847 4.07038 11.0006 4.03252 11.1165 3.99887C11.2242 3.96732 11.3339 3.94208 11.4436 3.91894C11.4995 3.90843 11.5554 3.89791 11.6092 3.8874C11.6382 3.88319 11.6651 3.87898 11.6941 3.87478C11.7396 3.86847 11.7313 3.86847 11.6692 3.87898L11.7251 3.87267C11.9652 3.84533 12.2053 3.83692 12.4475 3.84743C12.5573 3.85164 12.667 3.86216 12.7767 3.87478C12.8139 3.87898 12.8615 3.86636 12.7663 3.87267C12.7912 3.87057 12.8243 3.88109 12.8512 3.88529C12.9154 3.89581 12.9816 3.90843 13.0458 3.92105C13.2735 3.96732 13.497 4.03252 13.7144 4.11455C13.7661 4.13348 13.8179 4.15451 13.8676 4.17555C13.9566 4.2113 13.7827 4.13558 13.8696 4.17765C13.8945 4.18817 13.9193 4.20079 13.9442 4.2113C14.0518 4.26178 14.1574 4.31647 14.2609 4.37536C14.3561 4.43004 14.4493 4.48683 14.5403 4.54783C14.5776 4.57307 14.6149 4.59831 14.6521 4.62565C14.6977 4.6572 14.7722 4.69506 14.8053 4.73923C14.7494 4.66561 14.7763 4.71609 14.8074 4.74133C14.8281 4.75816 14.8488 4.77498 14.8695 4.79391C14.9109 4.82967 14.9523 4.86543 14.9916 4.90118C15.0785 4.98111 15.1634 5.06313 15.2441 5.14937C15.3187 5.22929 15.3911 5.31132 15.4615 5.39545C15.478 5.41649 15.4967 5.43752 15.5132 5.45855C15.5381 5.4901 15.5898 5.51745 15.5153 5.46066C15.5588 5.49431 15.596 5.57003 15.6271 5.6163C15.7513 5.79718 15.8651 5.98858 15.9624 6.18629C15.9873 6.23677 16.01 6.28515 16.0349 6.33563C16.0473 6.36086 16.0577 6.3861 16.068 6.41134C16.1073 6.50179 16.0328 6.32301 16.0701 6.41345C16.1135 6.52702 16.157 6.6406 16.1922 6.75628C16.2626 6.98134 16.3185 7.2127 16.3537 7.44827C16.3578 7.47351 16.3682 7.50716 16.3661 7.5345C16.3744 7.42723 16.3619 7.50295 16.3661 7.5366C16.3723 7.5955 16.3785 7.65229 16.3826 7.71118C16.3847 7.82686 16.3889 7.94464 16.3909 8.06243C16.3909 8.28327 16.5814 8.4936 16.8049 8.48309C17.0285 8.47257 17.2189 8.298 17.2189 8.06243C17.2148 7.03181 16.9064 5.997 16.3143 5.15568C15.7161 4.30595 14.8922 3.66234 13.9276 3.30058C12.9609 2.93881 11.8679 2.90516 10.8785 3.19121C9.92419 3.46674 9.0465 4.04094 8.41515 4.81915C7.75067 5.64154 7.35323 6.63429 7.27043 7.69435C7.1897 8.72917 7.44431 9.79344 7.97423 10.681C8.48553 11.5371 9.25557 12.248 10.1581 12.6602C11.1269 13.104 12.1971 13.2302 13.2424 13.0199C14.2195 12.8222 15.1365 12.3027 15.8258 11.5728C16.5172 10.8409 16.9974 9.89229 17.1506 8.88692C17.192 8.61349 17.2189 8.33796 17.2189 8.06243C17.2189 7.84158 17.0285 7.63125 16.8049 7.64177C16.5793 7.65229 16.3909 7.82686 16.3909 8.06243Z" fill="#262523"/>
<path d="M19.0571 22.1566C18.8791 22.1566 18.7031 22.1566 18.5251 22.1566C18.0552 22.1566 17.5833 22.1566 17.1134 22.1566C16.4406 22.1566 15.7678 22.1566 15.0951 22.1566C14.3106 22.1566 13.5281 22.1566 12.7436 22.1566C11.9404 22.1566 11.1393 22.1566 10.3361 22.1566C9.60541 22.1566 8.87469 22.1566 8.14604 22.1566C7.57886 22.1566 7.01374 22.1566 6.44656 22.1566C6.13606 22.1566 5.82555 22.1566 5.51298 22.1566C5.48607 22.1566 5.45916 22.1566 5.43225 22.1566C5.42811 22.1566 5.4219 22.1566 5.41776 22.1566C5.39913 22.1566 5.37843 22.1566 5.3598 22.1545C5.36394 22.1545 5.30391 22.1524 5.30391 22.1503C5.30184 22.1461 5.41155 22.1713 5.33082 22.1524C5.29563 22.144 5.25837 22.1355 5.22318 22.125C5.21076 22.1208 5.19627 22.1124 5.18385 22.1124C5.1321 22.104 5.25216 22.1524 5.20662 22.1229C5.17971 22.1061 5.15073 22.0935 5.12382 22.0788C5.09691 22.0619 5.07207 22.043 5.04516 22.0262C5.00583 22.003 5.07828 22.0472 5.07621 22.0514C5.07414 22.0535 5.03067 22.0115 5.02653 22.0072C5.00376 21.9862 4.98306 21.961 4.96236 21.9378C4.91268 21.8874 5.00169 22.0051 4.95408 21.9252C4.93752 21.8979 4.92096 21.8726 4.9044 21.8432C4.89612 21.8264 4.88784 21.8095 4.87956 21.7948C4.84851 21.7338 4.88991 21.8201 4.88991 21.8201C4.87128 21.8222 4.84851 21.6497 4.83816 21.6308C4.86714 21.6854 4.84437 21.7023 4.8423 21.6581C4.8423 21.6392 4.84023 21.6202 4.83816 21.5992C4.83816 21.5887 4.83816 21.5782 4.83816 21.5677C4.83816 21.5445 4.83816 21.5235 4.83816 21.5004C4.83816 20.8189 4.83816 20.1374 4.83816 19.4539C4.83816 19.3592 4.83816 19.2667 4.83816 19.172C4.83816 18.9596 4.87128 18.7514 4.87542 18.541C4.87542 18.541 4.863 18.6294 4.86921 18.581C4.87128 18.5621 4.87542 18.5431 4.87749 18.5242C4.88163 18.4905 4.88784 18.4569 4.89405 18.4253C4.90647 18.3538 4.91889 18.2844 4.93545 18.215C4.96443 18.0804 4.99962 17.9479 5.03895 17.8175C5.08035 17.6829 5.12796 17.5525 5.17971 17.4221C5.20662 17.3527 5.14452 17.5041 5.18592 17.4073C5.19834 17.3779 5.21283 17.3485 5.22525 17.319C5.25423 17.2559 5.28528 17.1928 5.31633 17.1318C5.44053 16.8899 5.58543 16.6628 5.74482 16.4419C5.78829 16.383 5.69514 16.5029 5.75517 16.4293C5.77587 16.4041 5.7945 16.3788 5.8152 16.3536C5.85867 16.301 5.90214 16.2484 5.94769 16.198C6.03877 16.0949 6.13399 15.9981 6.23335 15.9035C6.32857 15.8131 6.43 15.7268 6.53143 15.6427C6.58732 15.5964 6.46933 15.689 6.54385 15.6322C6.56869 15.6132 6.5956 15.5943 6.62044 15.5754C6.6784 15.5333 6.73843 15.4913 6.80053 15.4513C7.02202 15.3041 7.25594 15.18 7.49606 15.0685C7.5623 15.0369 7.42361 15.0979 7.51055 15.0622C7.53953 15.0496 7.57058 15.0369 7.59956 15.0264C7.66787 14.9991 7.73825 14.9738 7.80863 14.9507C7.93697 14.9086 8.06531 14.8708 8.19779 14.8392C8.33028 14.8077 8.46483 14.7803 8.59938 14.7593C8.61387 14.7572 8.64078 14.7488 8.65527 14.7509C8.65734 14.7509 8.56833 14.7614 8.61594 14.7572C8.64906 14.753 8.68218 14.7488 8.7153 14.7467C8.79189 14.7383 8.86848 14.732 8.94507 14.7278C9.10239 14.7193 9.26178 14.7214 9.41911 14.7214H15.2648C15.4698 14.7214 15.6726 14.7551 15.8755 14.7593C15.8755 14.7593 15.7886 14.7467 15.8362 14.753C15.8548 14.7551 15.8734 14.7593 15.8921 14.7614C15.9252 14.7656 15.9583 14.7719 15.9893 14.7782C16.0597 14.7909 16.128 14.8035 16.1963 14.8203C16.3288 14.8497 16.4592 14.8855 16.5876 14.9255C16.7201 14.9675 16.8484 15.0159 16.9767 15.0685C17.0451 15.0958 16.896 15.0327 16.9912 15.0748C17.0202 15.0874 17.0492 15.1021 17.0782 15.1148C17.1403 15.1442 17.2024 15.1758 17.2624 15.2073C17.5005 15.3335 17.724 15.4807 17.9414 15.6427C17.9993 15.6869 17.8813 15.5922 17.9538 15.6532C17.9786 15.6742 18.0035 15.6932 18.0283 15.7142C18.0801 15.7584 18.1318 15.8025 18.1815 15.8488C18.2829 15.9414 18.3781 16.0381 18.4713 16.1391C18.5603 16.2358 18.6452 16.3389 18.728 16.4419C18.7735 16.4987 18.6824 16.3788 18.7383 16.4546C18.757 16.4798 18.7756 16.5071 18.7942 16.5324C18.8356 16.5913 18.877 16.6523 18.9163 16.7154C19.0612 16.9404 19.1834 17.1781 19.2931 17.4221C19.3241 17.4894 19.2641 17.3485 19.2993 17.4368C19.3117 17.4662 19.3241 17.4978 19.3345 17.5272C19.3614 17.5966 19.3862 17.6682 19.409 17.7397C19.4504 17.8701 19.4877 18.0005 19.5187 18.1351C19.5498 18.2697 19.5767 18.4064 19.5974 18.5431C19.5995 18.5578 19.6077 18.5852 19.6057 18.5999C19.6057 18.602 19.5953 18.5116 19.5995 18.56C19.6036 18.5936 19.6077 18.6273 19.6098 18.6609C19.6181 18.7387 19.6243 18.8166 19.6284 18.8944C19.6409 19.1426 19.6346 19.3908 19.6346 19.6389C19.6346 20.2804 19.6409 20.9219 19.6346 21.5635V21.6013C19.6346 21.616 19.6264 21.7296 19.6326 21.6602C19.6388 21.5908 19.6222 21.6981 19.6181 21.7149C19.616 21.7233 19.5912 21.8222 19.585 21.8201C19.5788 21.8201 19.6264 21.7422 19.5995 21.7822C19.5932 21.7927 19.587 21.8074 19.5808 21.8201C19.5643 21.8516 19.5456 21.8832 19.527 21.9147C19.5208 21.9252 19.5104 21.9357 19.5042 21.9484C19.4794 21.9946 19.5581 21.8916 19.5187 21.9273C19.496 21.9484 19.4773 21.9757 19.4546 21.9967C19.4442 22.0072 19.4339 22.0157 19.4256 22.0241C19.4214 22.0262 19.4194 22.0304 19.4152 22.0325C19.3883 22.0556 19.3883 22.0556 19.4152 22.0346C19.4256 22.0093 19.4421 22.0157 19.4152 22.0346C19.4007 22.0451 19.3862 22.0556 19.3697 22.064C19.3428 22.0809 19.3159 22.0956 19.2869 22.1103C19.2061 22.1545 19.3428 22.0956 19.2724 22.1166C19.2413 22.125 19.2124 22.1355 19.1792 22.144C19.1648 22.1482 19.1523 22.1503 19.1378 22.1524C19.0571 22.1713 19.1668 22.1461 19.1648 22.1503C19.1668 22.1587 19.0695 22.1566 19.0571 22.1566C18.8398 22.1587 18.6328 22.348 18.6431 22.5772C18.6535 22.8023 18.8253 23.0021 19.0571 22.9979C19.8044 22.9874 20.3985 22.4048 20.4606 21.6539C20.4792 21.4225 20.4647 21.1849 20.4647 20.9535C20.4647 20.3141 20.4792 19.6747 20.4627 19.0353C20.4337 17.8175 19.9886 16.6523 19.2165 15.7247C18.4796 14.8371 17.4259 14.204 16.304 13.9811C15.7554 13.8717 15.211 13.8759 14.6563 13.8759C13.9462 13.8759 13.2341 13.8759 12.5241 13.8759C11.7541 13.8759 10.984 13.8759 10.2119 13.8759C9.81655 13.8759 9.42118 13.8654 9.0258 13.8801C7.8314 13.9243 6.68875 14.387 5.78415 15.18C4.91889 15.9393 4.30616 17.0161 4.09916 18.1603C3.96461 18.8986 4.00601 19.6579 4.00601 20.4045V21.4373C4.00601 21.5298 4.00601 21.6202 4.01636 21.7128C4.05983 22.0682 4.21301 22.4111 4.48832 22.6445C4.7657 22.8801 5.09484 23 5.45709 23H19.055C19.2724 23 19.4794 22.8065 19.469 22.5793C19.4608 22.348 19.289 22.1566 19.0571 22.1566Z" fill="#262523"/>
</svg>
