<svg width="32" height="32" viewBox="0 0 32 32" fill="none" xmlns="http://www.w3.org/2000/svg">
<g clip-path="url(#clip0_315_2382)">
<path d="M22.848 9.89685L22.8269 9.9179C22.6637 10.089 22.49 10.2548 22.3216 10.4232L16.7448 16L22.848 22.1032C23.0559 22.3111 23.0401 22.6374 22.848 22.848C22.6558 23.0585 22.2979 23.0427 22.1032 22.848L22.0821 22.8269C21.911 22.6637 21.7452 22.49 21.5768 22.3216L16 16.7448L9.89685 22.848C9.68893 23.0559 9.36259 23.0401 9.15204 22.848C8.9415 22.6558 8.95729 22.2979 9.15204 22.1032L9.1731 22.0821C9.33627 21.911 9.50997 21.7452 9.6784 21.5768L15.2552 16L9.15204 9.89685C8.94413 9.68893 8.95992 9.36259 9.15204 9.15204C9.34417 8.9415 9.70209 8.95729 9.89685 9.15204L9.9179 9.1731C10.089 9.33627 10.2548 9.50997 10.4232 9.6784L16 15.2552L22.1032 9.15204C22.3111 8.94413 22.6374 8.95992 22.848 9.15204C23.0585 9.34417 23.0427 9.69946 22.848 9.89685Z" fill="#6A665E"/>
<circle cx="16" cy="16" r="15.75" stroke="#6A665E" stroke-width="0.5"/>
</g>
<defs>
<clipPath id="clip0_315_2382">
<rect width="32" height="32" fill="white"/>
</clipPath>
</defs>
</svg>
