<svg width="40" height="41" viewBox="0 0 40 41" fill="none" xmlns="http://www.w3.org/2000/svg">
<path fill-rule="evenodd" clip-rule="evenodd" d="M12.1244 13.6L11.8 13.6594C11.6688 13.6781 11.5563 13.7906 11.5188 13.9219L7.01875 28.7344C7 28.7719 7 28.8094 7 28.8469C7 31.5281 9.19375 33.7219 11.875 33.7219C14.5563 33.7219 16.75 31.5281 16.75 28.8469C16.75 28.8094 16.75 28.7719 16.7313 28.7344L12.3625 14.3344L12.3688 14.3332L12.1244 13.6ZM7.76875 29.2219C7.95625 31.3219 9.71875 32.9719 11.875 32.9719C14.0312 32.9719 15.7938 31.3219 15.9813 29.2219H7.76875ZM11.875 27.1594C11.0687 27.1594 10.3938 27.7219 10.225 28.4719H13.525C13.3562 27.7219 12.6813 27.1594 11.875 27.1594ZM14.275 28.4719H15.8687L11.875 15.3281L7.88125 28.4719H9.475C9.64375 27.3094 10.6562 26.4094 11.875 26.4094C13.0938 26.4094 14.0875 27.3094 14.275 28.4719Z" fill="#262523"/>
<path fill-rule="evenodd" clip-rule="evenodd" d="M29.1244 9.29998L28.8 9.35936C28.6688 9.37811 28.5563 9.49061 28.5188 9.62186L24.0188 24.4344C24 24.4719 24 24.5094 24 24.5469C24 27.2281 26.1937 29.4219 28.875 29.4219C31.5563 29.4219 33.75 27.2281 33.75 24.5469C33.75 24.5094 33.75 24.4719 33.7313 24.4344L29.3625 10.0344L29.3688 10.0332L29.1244 9.29998ZM24.7687 24.9219C24.9562 27.0219 26.7188 28.6719 28.875 28.6719C31.0312 28.6719 32.7938 27.0219 32.9813 24.9219H24.7687ZM28.875 22.8594C28.0687 22.8594 27.3938 23.4219 27.225 24.1719H30.525C30.3562 23.4219 29.6813 22.8594 28.875 22.8594ZM31.275 24.1719H32.8687L28.875 11.0281L24.8812 24.1719H26.475C26.6437 23.0094 27.6562 22.1094 28.875 22.1094C30.0938 22.1094 31.0875 23.0094 31.275 24.1719Z" fill="#262523"/>
<circle cx="20.4995" cy="11.7999" r="3" transform="rotate(-15 20.4995 11.7999)" stroke="#262523"/>
<path d="M12.1606 13.5169C11.8939 13.5884 11.7356 13.8626 11.8071 14.1293C11.8785 14.396 12.1527 14.5543 12.4194 14.4828L12.1606 13.5169ZM12.4194 14.4828L17.2491 13.1887L16.9903 12.2228L12.1606 13.5169L12.4194 14.4828Z" fill="#262523"/>
<path d="M28.8399 10.0829C29.1066 10.0115 29.2649 9.73729 29.1935 9.47056C29.122 9.20383 28.8478 9.04554 28.5811 9.11701L28.8399 10.0829ZM24.0103 11.377L28.8399 10.0829L28.5811 9.11701L23.7514 10.4111L24.0103 11.377Z" fill="#262523"/>
</svg>
