<svg xmlns="http://www.w3.org/2000/svg" data-name="Layer 1" viewBox="0 0 100 125" x="0px" y="0px"><title>A___52</title><path d="M75.67932,82.87268c.39246,0,.78412-.01129,1.17273-.03375a18.99843,18.99843,0,0,0,14.564-8.23627,19.86175,19.86175,0,0,0,2.689-17.27838L78.6377,7.17523a3.09984,3.09984,0,0,0-5.92084.01074l-1.78595,5.79108L59.6015,15.65a10.98353,10.98353,0,0,0-20.57495,4.85871l-10.60406,2.502-1.14344-3.70795a3.09986,3.09986,0,0,0-5.92083.01062L5.8949,69.45166A19.86181,19.86181,0,0,0,8.584,86.73,18.99794,18.99794,0,0,0,23.1488,94.96643c.38752.02246.77918.03363,1.17188.03363q.58867,0,1.17267-.03363A18.99946,18.99946,0,0,0,40.0564,86.73a19.85921,19.85921,0,0,0,2.68982-17.27838L30.19507,28.75726l10.20349-2.40747a10.98331,10.98331,0,0,0,20.57465-4.8587l7.9071-1.86566L57.2536,57.32428a19.859,19.859,0,0,0,2.69006,17.27838,18.99872,18.99872,0,0,0,14.56507,8.23627Q75.09008,82.87262,75.67932,82.87268ZM37.01288,71.22028c.07953.258.12848.51977.19287.77972H11.43512c.06464-.26.11334-.52167.19311-.77972L24.32068,30.06537ZM50,25.99994a5,5,0,1,1,4.999-5A5.00546,5.00546,0,0,1,50,25.99994ZM62.98718,59.09277,75.65167,18.02783l.05176-.01214L88.37152,59.09277c.07977.25818.12879.51978.19342.77985H62.794C62.8584,59.61255,62.90765,59.351,62.98718,59.09277Z"/></svg>