<svg width="34" height="34" viewBox="0 0 34 34" fill="none" xmlns="http://www.w3.org/2000/svg">
<path fill-rule="evenodd" clip-rule="evenodd" d="M24.0519 1.51663C19.7469 0.517884 15.2745 0.482592 10.9543 1.41328L6.20517 2.43635C4.31234 2.84412 2.82509 4.30808 2.3875 6.19424L1.51663 9.94807C0.517884 14.2531 0.482591 18.7255 1.41328 23.0457L2.43635 27.7948C2.84412 29.6877 4.30808 31.1749 6.19424 31.6125L9.94807 32.4834C14.2531 33.4821 18.7255 33.5174 23.0457 32.5867L27.7948 31.5636C29.6877 31.1559 31.1749 29.6919 31.6125 27.8058L32.4834 24.0519C33.4821 19.7469 33.5174 15.2745 32.5867 10.9543L31.5636 6.20517C31.1559 4.31234 29.6919 2.82509 27.8058 2.3875L24.0519 1.51663Z" stroke="#836A5D"/>
<path d="M15.852 8.47554C16.587 8.17106 17.413 8.17106 18.1481 8.47554L22.2159 10.1605C22.951 10.465 23.535 11.049 23.8395 11.7841L25.5245 15.852C25.8289 16.587 25.8289 17.413 25.5245 18.1481L23.8395 22.2159C23.535 22.951 22.951 23.535 22.2159 23.8395L18.148 25.5245C17.413 25.8289 16.587 25.8289 15.8519 25.5245L11.7841 23.8395C11.049 23.535 10.465 22.951 10.1605 22.2159L8.47554 18.148C8.17106 17.413 8.17106 16.587 8.47554 15.8519L10.1605 11.7841C10.465 11.049 11.049 10.465 11.7841 10.1605L15.852 8.47554Z" stroke="#836A5D"/>
<path d="M4 4L11 11" stroke="#836A5D"/>
<path d="M30 4L23 11" stroke="#836A5D"/>
<path d="M4 30L11 23" stroke="#836A5D"/>
<path d="M30 30L23 23" stroke="#836A5D"/>
</svg>
