<svg width="35" height="42" viewBox="0 0 35 42" fill="none" xmlns="http://www.w3.org/2000/svg">
<path fill-rule="evenodd" clip-rule="evenodd" d="M24.5519 1.51663C20.2469 0.517884 15.7745 0.482592 11.4543 1.41328L6.88368 2.3979C4.9 2.82523 3.37132 4.40908 3.01454 6.40665L1.41573 15.3582C0.809777 18.7509 0.79295 22.2227 1.36599 25.6211L3.05024 35.6095C3.38579 37.5995 4.88477 39.1927 6.85066 39.6488L10.4481 40.4834C14.7531 41.4821 19.2255 41.5174 23.5457 40.5867L28.1163 39.6021C30.1 39.1748 31.6287 37.5909 31.9855 35.5934L33.5843 26.6418C34.1902 23.2491 34.2071 19.7773 33.634 16.3789L31.9498 6.39049C31.6142 4.40048 30.1152 2.80729 28.1493 2.35121L24.5519 1.51663Z" stroke="#836A5D"/>
<path d="M16.145 10.686C16.9968 10.2547 18.0032 10.2547 18.855 10.686L22.7709 12.6685C23.4715 13.0232 24.0051 13.6384 24.2572 14.3821L26.1737 20.0371C26.3853 20.6616 26.3853 21.3384 26.1737 21.9629L24.2572 27.6179C24.0051 28.3616 23.4715 28.9768 22.7709 29.3315L18.855 31.314C18.0032 31.7453 16.9968 31.7453 16.145 31.314L12.2291 29.3315C11.5285 28.9768 10.9949 28.3616 10.7428 27.6179L8.82633 21.9629C8.61469 21.3384 8.61469 20.6616 8.82633 20.0371L10.7428 14.3821C10.9949 13.6384 11.5285 13.0232 12.2291 12.6685L16.145 10.686Z" stroke="#836A5D"/>
<path d="M31 4L24 13.5" stroke="#836A5D"/>
<path d="M4.5 4L11.5 13.5" stroke="#836A5D"/>
<path d="M31 38.5L24 29" stroke="#836A5D"/>
<path d="M4.5 38.5L11.5 29" stroke="#836A5D"/>
</svg>
