<svg width="27" height="46" viewBox="0 0 27 46" fill="none" xmlns="http://www.w3.org/2000/svg">
<path d="M9.96578 4.03161C11.9181 2.08073 15.0819 2.08073 17.0342 4.03161L23.2926 10.2853C24.231 11.2231 24.7583 12.4954 24.7583 13.8222V32.1778C24.7583 33.5046 24.231 34.7769 23.2926 35.7147L17.0342 41.9684C15.0819 43.9193 11.9181 43.9193 9.96577 41.9684L3.70744 35.7147C2.76896 34.7769 2.24167 33.5046 2.24167 32.1778V13.8222C2.24167 12.4954 2.76896 11.2231 3.70744 10.2853L9.96578 4.03161Z" stroke="#836A5D"/>
<path d="M12.012 11.1568C12.8067 10.272 14.1933 10.272 14.988 11.1568L19.0502 15.6799C19.3798 16.047 19.5622 16.5229 19.5622 17.0163V28.9837C19.5622 29.4771 19.3798 29.953 19.0502 30.3201L14.988 34.8432C14.1933 35.728 12.8067 35.728 12.012 34.8432L7.94983 30.3201C7.62017 29.953 7.43782 29.4771 7.43782 28.9837V17.0163C7.43782 16.5229 7.62017 16.047 7.94983 15.6799L12.012 11.1568Z" stroke="#836A5D"/>
<line x1="13.5" y1="2.5" x2="13.5" y2="10.5" stroke="#836A5D"/>
<line x1="13.5" y1="35.5" x2="13.5" y2="43.5" stroke="#836A5D"/>
<line x1="2.85355" y1="11.1464" x2="7.85355" y2="16.1464" stroke="#836A5D"/>
<line y1="-0.5" x2="7.07107" y2="-0.5" transform="matrix(-0.707107 0.707107 0.707107 0.707107 24.5 11.5)" stroke="#836A5D"/>
<line y1="-0.5" x2="7.07107" y2="-0.5" transform="matrix(0.707107 -0.707107 -0.707107 -0.707107 2.5 34.5)" stroke="#836A5D"/>
<line x1="24.1464" y1="34.8536" x2="19.1464" y2="29.8536" stroke="#836A5D"/>
</svg>
