<svg width="32" height="40" viewBox="0 0 32 40" fill="none" xmlns="http://www.w3.org/2000/svg">
<path d="M0.5 6.58303C0.5 5.88786 0.789454 5.22408 1.29887 4.75105L4.44751 1.82732C4.90992 1.39793 5.5176 1.1593 6.14863 1.1593H26.1651C26.7961 1.1593 27.4038 1.39793 27.8662 1.82732L30.7011 4.45974C31.2105 4.93277 31.5 5.59655 31.5 6.29172V33.3896C31.5 34.0848 31.2105 34.7486 30.7011 35.2216L27.5231 38.1726C27.0607 38.602 26.453 38.8407 25.8219 38.8407H6.49178C5.86075 38.8407 5.25306 38.602 4.79065 38.1726L1.29887 34.9303C0.789455 34.4573 0.5 33.7935 0.5 33.0983V6.58303Z" stroke="#836A5D"/>
<path d="M7.5 11.8285C7.5 11.1934 7.74167 10.5822 8.17596 10.1188L9.2718 8.94966C9.74443 8.44541 10.4047 8.1593 11.0958 8.1593H21.0806C21.7717 8.1593 22.432 8.44541 22.9047 8.94966L23.824 9.93056C24.2583 10.3939 24.5 11.0052 24.5 11.6402V28.4725C24.5 29.1075 24.2583 29.7188 23.824 30.1821L22.7116 31.3689C22.239 31.8732 21.5787 32.1593 20.8876 32.1593H11.2889C10.5977 32.1593 9.93745 31.8732 9.46482 31.3689L8.17596 29.9938C7.74168 29.5305 7.5 28.9192 7.5 28.2842V11.8285Z" stroke="#836A5D"/>
<path d="M5.5 1.1593L10 8.1593" stroke="#836A5D"/>
<path d="M1 5.68652L7.5 11.1593" stroke="#836A5D"/>
<path d="M26.5 1.1593L22 8.1593" stroke="#836A5D"/>
<path d="M31 5.68652L24.5 11.1593" stroke="#836A5D"/>
<path d="M5.5 39.1628L10 32.1628" stroke="#836A5D"/>
<path d="M1 34.6357L7.5 29.163" stroke="#836A5D"/>
<path d="M26.5 39.1628L22 32.1628" stroke="#836A5D"/>
<path d="M31 34.6357L24.5 29.163" stroke="#836A5D"/>
</svg>
