<svg width="64" height="32" viewBox="0 0 64 32" fill="none" xmlns="http://www.w3.org/2000/svg">
<rect x="72" y="20" width="24" height="7" rx="1.5" transform="rotate(180 72 20)" stroke="#836A5D"/>
<rect x="16" y="20" width="24" height="7" rx="1.5" transform="rotate(180 16 20)" stroke="#836A5D"/>
<circle cx="32" cy="16" r="6" transform="rotate(180 32 16)" stroke="#836A5D"/>
<circle cx="32" cy="28" r="3" transform="rotate(180 32 28)" stroke="#836A5D"/>
<circle cx="32" cy="4" r="3" transform="rotate(180 32 4)" stroke="#836A5D"/>
<circle cx="44" cy="16" r="3" transform="rotate(90 44 16)" stroke="#836A5D"/>
<circle cx="20" cy="16" r="3" transform="rotate(90 20 16)" stroke="#836A5D"/>
<circle cx="42.3923" cy="9.99996" r="3" transform="rotate(60 42.3923 9.99996)" stroke="#836A5D"/>
<circle cx="21.6076" cy="22" r="3" transform="rotate(60 21.6076 22)" stroke="#836A5D"/>
<circle cx="42.3923" cy="22" r="3" transform="rotate(120 42.3923 22)" stroke="#836A5D"/>
<circle cx="21.6076" cy="9.99996" r="3" transform="rotate(120 21.6076 9.99996)" stroke="#836A5D"/>
<circle cx="38.0002" cy="26.3923" r="3" transform="rotate(150 38.0002 26.3923)" stroke="#836A5D"/>
<circle cx="25.9997" cy="5.60758" r="3" transform="rotate(150 25.9997 5.60758)" stroke="#836A5D"/>
<circle cx="37.9998" cy="5.60738" r="3" transform="rotate(30 37.9998 5.60738)" stroke="#836A5D"/>
<circle cx="25.9998" cy="26.3924" r="3" transform="rotate(30 25.9998 26.3924)" stroke="#836A5D"/>
</svg>
