<svg width="60" height="46" viewBox="0 0 60 46" fill="none" xmlns="http://www.w3.org/2000/svg">
<path d="M29.9663 0.525285C29.9863 0.510302 30.0137 0.510301 30.0337 0.525284V0.525284C45.0169 11.7626 45.0169 34.2374 30.0337 45.4747V45.4747C30.0137 45.4897 29.9863 45.4897 29.9663 45.4747V45.4747C14.9831 34.2374 14.9831 11.7626 29.9663 0.525285V0.525285Z" stroke="#836A5D"/>
<path d="M29.974 9.52506C29.9885 9.51107 30.0115 9.51107 30.026 9.52506V9.52506C37.6601 16.8865 37.6601 29.1135 30.026 36.4749V36.4749C30.0115 36.4889 29.9885 36.4889 29.974 36.4749V36.4749C22.3399 29.1135 22.3399 16.8865 29.974 9.52506V9.52506Z" stroke="#836A5D"/>
<line x1="30" y1="0.5" x2="30" y2="9.5" stroke="#836A5D"/>
<line x1="30" y1="36.5" x2="30" y2="45.5" stroke="#836A5D"/>
<line x1="20.3123" y1="13.1096" x2="25.3123" y2="17.1096" stroke="#836A5D"/>
<line y1="-0.5" x2="6.40312" y2="-0.5" transform="matrix(-0.780869 0.624695 0.624695 0.780869 40 13.5)" stroke="#836A5D"/>
<line y1="-0.5" x2="6.40312" y2="-0.5" transform="matrix(0.780869 -0.624695 -0.624695 -0.780869 20 32.5)" stroke="#836A5D"/>
<line x1="39.6877" y1="32.8904" x2="34.6877" y2="28.8904" stroke="#836A5D"/>
</svg>
