<svg width="28" height="40" viewBox="0 0 28 40" fill="none" xmlns="http://www.w3.org/2000/svg">
<path d="M1.86524 28.2907L0.506669 20L1.86524 11.7093L5.64689 5.10431L11.0369 1.48891H16.9631L22.3531 5.10431L26.1348 11.7093L27.4933 20L26.1348 28.2907L22.3531 34.8957L16.9631 38.5111H11.0369L5.64689 34.8957L1.86524 28.2907Z" stroke="#836A5D"/>
<path d="M8.171 23.9481L7.50702 20L8.171 16.0519L10.0073 12.927L12.5913 11.2382H15.4087L17.9927 12.927L19.829 16.0519L20.493 20L19.829 23.9481L17.9927 27.073L15.4087 28.7618H12.5913L10.0073 27.073L8.171 23.9481Z" stroke="#836A5D"/>
<path d="M11 2L12.5 11" stroke="#836A5D"/>
<path d="M17 1.5L15.5 11" stroke="#836A5D"/>
<path d="M11 38.5L12.5 28.5" stroke="#836A5D"/>
<path d="M17 38.5L15.5 28.5" stroke="#836A5D"/>
<path d="M5.5 5L10 13" stroke="#836A5D"/>
<path d="M2 11.5L8 16" stroke="#836A5D"/>
<path d="M0.5 20H7.5" stroke="#836A5D"/>
<path d="M2 28.5L8 24" stroke="#836A5D"/>
<path d="M5.5 35L10 27" stroke="#836A5D"/>
<path d="M22.5 5L18 13" stroke="#836A5D"/>
<path d="M26 11.5L20 16" stroke="#836A5D"/>
<path d="M27.5 20H20.5" stroke="#836A5D"/>
<path d="M26 28.5L20 24" stroke="#836A5D"/>
<path d="M22.5 35L18 27" stroke="#836A5D"/>
</svg>
