<svg width="64" height="36" viewBox="0 0 64 36" fill="none" xmlns="http://www.w3.org/2000/svg">
<rect x="-8" y="14" width="24" height="7" rx="1.5" stroke="#836A5D"/>
<circle cx="11.5" cy="17.5" r="1.5" stroke="#836A5D"/>
<circle cx="4.5" cy="17.5" r="1.5" stroke="#836A5D"/>
<rect x="48" y="14" width="24" height="7" rx="1.5" stroke="#836A5D"/>
<circle cx="53.5" cy="17.5" r="1.5" stroke="#836A5D"/>
<circle cx="60.5" cy="17.5" r="1.5" stroke="#836A5D"/>
<path d="M28.3645 2.54707C30.6923 1.58287 33.3077 1.58287 35.6355 2.54707L40.3562 4.50244C42.684 5.46664 44.5334 7.31604 45.4976 9.64381L47.4529 14.3645C48.4171 16.6923 48.4171 19.3077 47.4529 21.6355L45.4976 26.3562C44.5334 28.684 42.684 30.5334 40.3562 31.4976L35.6355 33.4529C33.3077 34.4171 30.6923 34.4171 28.3645 33.4529L23.6438 31.4976C21.316 30.5334 19.4666 28.684 18.5024 26.3562L16.5471 21.6355C15.5829 19.3077 15.5829 16.6923 16.5471 14.3645L18.5024 9.64381C19.4666 7.31604 21.316 5.46664 23.6438 4.50244L28.3645 2.54707Z" stroke="#836A5D"/>
<path d="M30.2779 9.7545C31.3805 9.29778 32.6194 9.29778 33.7221 9.7545L36.6128 10.9519C37.7154 11.4086 38.5914 12.2846 39.0481 13.3872L40.2455 16.2779C40.7022 17.3806 40.7022 18.6194 40.2455 19.7221L39.0481 22.6128C38.5914 23.7154 37.7154 24.5914 36.6128 25.0481L33.7221 26.2455C32.6195 26.7022 31.3806 26.7022 30.2779 26.2455L30.0866 26.7074L30.2779 26.2455L27.3872 25.0481C26.2846 24.5914 25.4086 23.7154 24.9519 22.6128L23.7545 19.7221C23.2978 18.6195 23.2978 17.3806 23.7545 16.2779L24.9519 13.3872C25.4086 12.2846 26.2846 11.4086 27.3872 10.9519L30.2779 9.7545Z" stroke="#836A5D"/>
<line x1="32" y1="1.5" x2="32" y2="9.5" stroke="#836A5D"/>
<line x1="32" y1="26.5" x2="32" y2="34.5" stroke="#836A5D"/>
<line x1="16.5" y1="18" x2="23.5" y2="18" stroke="#836A5D"/>
<line x1="40" y1="18" x2="48" y2="18" stroke="#836A5D"/>
<line x1="20.1464" y1="29.8033" x2="25.8033" y2="24.1465" stroke="#836A5D"/>
<line x1="37.1464" y1="11.8033" x2="42.8033" y2="6.14645" stroke="#836A5D"/>
<line x1="20.0093" y1="6.90597" x2="25.6662" y2="12.5628" stroke="#836A5D"/>
<line x1="38.0406" y1="24.2302" x2="43.6974" y2="29.887" stroke="#836A5D"/>
</svg>
