<svg width="26" height="40" viewBox="0 0 26 40" fill="none" xmlns="http://www.w3.org/2000/svg">
<path d="M13.0001 38.5078L2.30399 19.8788C-0.460673 15.0637 0.332892 8.9948 4.24268 5.05243C9.06747 0.187438 16.9327 0.187439 21.7575 5.05243C25.6673 8.9948 26.4608 15.0637 23.6962 19.8788L13.0001 38.5078Z" stroke="#836A5D"/>
<path d="M18.4415 14.0673L18.9188 13.9184L18.4415 14.0673C18.4681 14.1525 18.4714 14.2433 18.451 14.3302L16.4941 22.6933C16.4741 22.7786 16.4321 22.8571 16.3723 22.921L13.125 26.3903C12.9275 26.6014 12.5925 26.6014 12.395 26.3903L8.62236 22.3597L8.25731 22.7014L8.62235 22.3597C8.56421 22.2976 8.52288 22.2217 8.50228 22.1391L6.56521 14.3784C6.53921 14.2742 6.54744 14.1645 6.58868 14.0653L8.3714 9.77993C8.42561 9.64962 8.53235 9.54829 8.6653 9.50095L12.5923 8.10246C12.7007 8.06382 12.8193 8.06382 12.9277 8.10246L16.8019 9.48213C16.9499 9.53487 17.0646 9.65417 17.1114 9.80423L18.4415 14.0673Z" stroke="#836A5D"/>
<path d="M5.5 4.01196L8.5 9.51196" stroke="#836A5D"/>
<path d="M13 1.51196V8.01196" stroke="#836A5D"/>
<path d="M1 14.012H6.5" stroke="#836A5D"/>
<path d="M5 24.512C5.4 24.112 7.5 23.012 8.5 22.512" stroke="#836A5D"/>
<path d="M20 4.01196L17 9.51196" stroke="#836A5D"/>
<path d="M17.998 14.637H25.013" stroke="#836A5D"/>
<path d="M20.5 24.512C20.1 24.112 18 23.012 17 22.512" stroke="#836A5D"/>
</svg>
