<svg width="32" height="40" viewBox="0 0 32 40" fill="none" xmlns="http://www.w3.org/2000/svg">
<path d="M8.60539 14.3689C8.07072 11.0272 10.6521 8 14.0363 8H17.9637C21.3479 8 23.9293 11.0272 23.3946 14.3689L22.658 18.9731C22.5491 19.6534 22.5491 20.3466 22.658 21.0269L23.3946 25.6311C23.9293 28.9728 21.3479 32 17.9637 32H14.0363C10.6521 32 8.07072 28.9728 8.60539 25.6311L9.34205 21.0269C9.4509 20.3466 9.4509 19.6534 9.34205 18.9731L8.60539 14.3689Z" stroke="#836A5D"/>
<path d="M2.5 3.5L9.5 11" stroke="#836A5D"/>
<path d="M29.5 3.5L22.5 11" stroke="#836A5D"/>
<path d="M2.5 36.5L9.5 29.5" stroke="#836A5D"/>
<path d="M29.5 36.5L22.5 29.5" stroke="#836A5D"/>
<path d="M0.5 6.42373C0.5 5.72856 0.789454 5.06478 1.29887 4.59175L4.44751 1.66802C4.90992 1.23863 5.5176 1 6.14863 1H26.1651C26.7961 1 27.4038 1.23863 27.8662 1.66802L30.7011 4.30043C31.2105 4.77346 31.5 5.43725 31.5 6.13242V33.2303C31.5 33.9255 31.2105 34.5893 30.7011 35.0623L26.7618 38.7203C26.6764 38.7995 26.6183 38.8965 26.5872 39H5.72647C5.69546 38.8965 5.63729 38.7995 5.55195 38.7203L1.29887 34.771C0.789455 34.298 0.5 33.6342 0.5 32.939V6.42373Z" stroke="#836A5D"/>
</svg>
