<svg width="36" height="36" viewBox="0 0 36 36" fill="none" xmlns="http://www.w3.org/2000/svg">
<path d="M2.54707 21.6355C1.58287 19.3077 1.58287 16.6923 2.54707 14.3645L4.50244 9.64381C5.46664 7.31604 7.31604 5.46664 9.64381 4.50244L14.3645 2.54707C16.6923 1.58287 19.3077 1.58287 21.6355 2.54707L26.3562 4.50244C28.684 5.46664 30.5334 7.31604 31.4976 9.64381L33.4529 14.3645C34.4171 16.6923 34.4171 19.3077 33.4529 21.6355L31.4976 26.3562C30.5334 28.684 28.684 30.5334 26.3562 31.4976L21.6355 33.4529C19.3077 34.4171 16.6923 34.4171 14.3645 33.4529L9.64381 31.4976C7.31604 30.5334 5.46664 28.684 4.50244 26.3562L2.54707 21.6355Z" stroke="#836A5D"/>
<path d="M9.7545 19.7221C9.29778 18.6195 9.29778 17.3806 9.7545 16.2779L10.9519 13.3872C11.4086 12.2846 12.2846 11.4086 13.3872 10.9519L16.2779 9.7545C17.3806 9.29778 18.6194 9.29778 19.7221 9.7545L22.6128 10.9519C23.7154 11.4086 24.5914 12.2846 25.0481 13.3872L26.2455 16.2779C26.7022 17.3805 26.7022 18.6194 26.2455 19.7221L26.7074 19.9134L26.2455 19.7221L25.0481 22.6128C24.5914 23.7154 23.7154 24.5914 22.6128 25.0481L19.7221 26.2455C18.6195 26.7022 17.3806 26.7022 16.2779 26.2455L13.3872 25.0481C12.2846 24.5914 11.4086 23.7154 10.9519 22.6128L9.7545 19.7221Z" stroke="#836A5D"/>
<line x1="1.5" y1="18" x2="9.5" y2="18" stroke="#836A5D"/>
<line x1="26.5" y1="18" x2="34.5" y2="18" stroke="#836A5D"/>
<line x1="18" y1="33.5" x2="18" y2="26.5" stroke="#836A5D"/>
<line x1="18" y1="10" x2="18" y2="2" stroke="#836A5D"/>
<line x1="29.8032" y1="29.8536" x2="24.1463" y2="24.1967" stroke="#836A5D"/>
<line x1="11.8032" y1="12.8536" x2="6.14633" y2="7.1967" stroke="#836A5D"/>
<line x1="6.90621" y1="29.9907" x2="12.5631" y2="24.3338" stroke="#836A5D"/>
<line x1="24.2304" y1="11.9594" x2="29.8873" y2="6.30258" stroke="#836A5D"/>
</svg>
