<svg width="65" height="36" viewBox="0 0 65 36" fill="none" xmlns="http://www.w3.org/2000/svg">
<rect x="0.5" y="-0.5" width="12" height="7" rx="1.5" transform="matrix(1 -8.74228e-08 -8.74228e-08 -1 -8 21.5)" stroke="#836A5D"/>
<path d="M9.92598 23.721C10.2935 23.8733 10.7065 23.8733 11.074 23.721L14.1395 22.4513C14.507 22.299 14.799 22.007 14.9513 21.6395L16.221 18.574C16.3733 18.2065 16.3733 17.7935 16.221 17.426L14.9513 14.3605C14.799 13.993 14.507 13.701 14.1395 13.5487L11.074 12.279C10.7065 12.1267 10.2935 12.1267 9.92597 12.279L6.86051 13.5487C6.49297 13.701 6.20096 13.993 6.04872 14.3605L4.77896 17.426C4.62672 17.7935 4.62672 18.2065 4.77896 18.574L6.04872 21.6395C6.20096 22.007 6.49297 22.299 6.86051 22.4513L9.92598 23.721Z" stroke="#836A5D"/>
<path d="M36.1355 33.4529C33.8077 34.4171 31.1923 34.4171 28.8645 33.4529L24.1438 31.4976C21.816 30.5334 19.9666 28.684 19.0024 26.3562L17.0471 21.6355C16.0829 19.3077 16.0829 16.6923 17.0471 14.3645L19.0024 9.64381C19.9666 7.31604 21.816 5.46664 24.1438 4.50245L28.8645 2.54707C31.1923 1.58288 33.8077 1.58288 36.1355 2.54707L40.8562 4.50244C43.184 5.46664 45.0334 7.31604 45.9976 9.64381L47.9529 14.3645C48.9171 16.6923 48.9171 19.3077 47.9529 21.6355L45.9976 26.3562C45.0334 28.684 43.184 30.5334 40.8562 31.4976L36.1355 33.4529Z" stroke="#836A5D"/>
<path d="M34.2221 26.2455C33.1195 26.7022 31.8806 26.7022 30.7779 26.2455L27.8872 25.0481C26.7846 24.5914 25.9086 23.7154 25.4519 22.6128L24.2545 19.7221C23.7978 18.6195 23.7978 17.3806 24.2545 16.2779L25.4519 13.3872C25.9086 12.2846 26.7846 11.4086 27.8872 10.9519L30.7779 9.7545C31.8805 9.29778 33.1194 9.29778 34.2221 9.7545L34.4134 9.29257L34.2221 9.75451L37.1128 10.9519C38.2154 11.4086 39.0914 12.2846 39.5481 13.3872L40.7455 16.2779C41.2022 17.3805 41.2022 18.6194 40.7455 19.7221L39.5481 22.6128C39.0914 23.7154 38.2154 24.5914 37.1128 25.0481L34.2221 26.2455Z" stroke="#836A5D"/>
<line x1="32.5" y1="34.5" x2="32.5" y2="26.5" stroke="#836A5D"/>
<line x1="32.5" y1="9.5" x2="32.5" y2="1.5" stroke="#836A5D"/>
<line x1="48" y1="18" x2="41" y2="18" stroke="#836A5D"/>
<line x1="24.5" y1="18" x2="16.5" y2="18" stroke="#836A5D"/>
<line x1="44.3536" y1="6.19669" x2="38.6967" y2="11.8535" stroke="#836A5D"/>
<line x1="27.3536" y1="24.1967" x2="21.6967" y2="29.8536" stroke="#836A5D"/>
<line x1="44.4907" y1="29.094" x2="38.8338" y2="23.4372" stroke="#836A5D"/>
<line x1="26.4594" y1="11.7698" x2="20.8026" y2="6.11296" stroke="#836A5D"/>
<rect x="72.5" y="22" width="12" height="7" rx="1.5" transform="rotate(180 72.5 22)" stroke="#836A5D"/>
<path d="M55.074 23.721C54.7065 23.8733 54.2935 23.8733 53.926 23.721L50.8605 22.4513C50.493 22.299 50.201 22.007 50.0487 21.6395L48.779 18.574C48.6267 18.2065 48.6267 17.7935 48.779 17.426L50.0487 14.3605C50.201 13.993 50.493 13.701 50.8605 13.5487L53.926 12.279C54.2935 12.1267 54.7065 12.1267 55.074 12.279L58.1395 13.5487C58.507 13.701 58.799 13.993 58.9513 14.3605L60.221 17.426C60.3733 17.7935 60.3733 18.2065 60.221 18.574L58.9513 21.6395C58.799 22.007 58.507 22.299 58.1395 22.4513L55.074 23.721Z" stroke="#836A5D"/>
</svg>
