<svg width="64" height="36" viewBox="0 0 64 36" fill="none" xmlns="http://www.w3.org/2000/svg">
<rect x="-8.85254" y="14.8526" width="24" height="7.00002" rx="1.5" stroke="#836A5D"/>
<rect x="48.853" y="14.8526" width="24" height="7.00002" rx="1.5" stroke="#836A5D"/>
<path d="M28.3645 2.54704C30.6923 1.58284 33.3078 1.58284 35.6355 2.54704L40.3563 4.50243C42.684 5.46662 44.5334 7.31602 45.4976 9.64379L47.453 14.3645C48.4172 16.6923 48.4172 19.3077 47.453 21.6355L45.4976 26.3562C44.5334 28.684 42.684 30.5334 40.3562 31.4976L35.6355 33.453C33.3078 34.4172 30.6923 34.4172 28.3645 33.453L23.6438 31.4976C21.316 30.5334 19.4666 28.684 18.5025 26.3562L16.5471 21.6355C15.5829 19.3077 15.5829 16.6923 16.5471 14.3645L18.5025 9.64378C19.4666 7.31602 21.3161 5.46662 23.6438 4.50242L28.3645 2.54704Z" stroke="#836A5D"/>
<path d="M30.2779 9.75457C31.3806 9.29785 32.6195 9.29785 33.7221 9.75457L36.6128 10.9519C37.7154 11.4087 38.5914 12.2847 39.0482 13.3873L40.2455 16.278C40.7023 17.3806 40.7023 18.6195 40.2455 19.7222L39.0482 22.6129C38.5914 23.7155 37.7154 24.5915 36.6128 25.0482L33.7221 26.2456C32.6195 26.7023 31.3806 26.7023 30.2779 26.2456L30.0866 26.7075L30.2779 26.2456L27.3872 25.0482C26.2846 24.5915 25.4086 23.7155 24.9519 22.6129L23.7545 19.7222C23.2978 18.6195 23.2978 17.3806 23.7545 16.278L24.9519 13.3873C25.4086 12.2847 26.2846 11.4087 27.3872 10.9519L30.2779 9.75457Z" stroke="#836A5D"/>
<line x1="32" y1="1.49998" x2="32" y2="9.5" stroke="#836A5D"/>
<line x1="32" y1="26.5001" x2="32" y2="34.5001" stroke="#836A5D"/>
<line x1="15.3735" y1="17.9053" x2="23.0472" y2="17.9053" stroke="#836A5D"/>
<line x1="40.9526" y1="17.9053" x2="48.6263" y2="17.9053" stroke="#836A5D"/>
<line x1="20.1464" y1="29.8033" x2="25.8033" y2="24.1465" stroke="#836A5D"/>
<line x1="38.0296" y1="11.2424" x2="42.7918" y2="6.15818" stroke="#836A5D"/>
<line x1="20.0093" y1="6.90587" x2="25.6662" y2="12.5627" stroke="#836A5D"/>
<line x1="38.0406" y1="24.2302" x2="43.6974" y2="29.887" stroke="#836A5D"/>
</svg>
