<svg width="64" height="20" viewBox="0 0 64 20" fill="none" xmlns="http://www.w3.org/2000/svg">
<path d="M65 12.7605C65 13.5086 64.4488 14.1423 63.708 14.246L42.708 17.186C41.8056 17.3123 41 16.6116 41 15.7005L41 4.39214C41 3.45736 41.8457 2.75027 42.7657 2.91587L63.7657 6.69586C64.4802 6.82446 65 7.44621 65 8.17214L65 12.7605Z" stroke="#836A5D"/>
<path d="M-1 12.7605C-1 13.5086 -0.448819 14.1423 0.292028 14.246L21.292 17.186C22.1944 17.3123 23 16.6116 23 15.7005L23 4.39214C23 3.45736 22.1543 2.75027 21.2343 2.91587L0.234269 6.69587C-0.480175 6.82447 -1 7.44622 -1 8.17215L-1 12.7605Z" stroke="#836A5D"/>
<path d="M33.7221 18.2455C32.6195 18.7022 31.3806 18.7022 30.2779 18.2455L27.3872 17.0481C26.2846 16.5914 25.4086 15.7154 24.9519 14.6128L23.7545 11.7221C23.2978 10.6195 23.2978 9.38055 23.7545 8.27793L24.9519 5.38725C25.4086 4.28462 26.2846 3.40859 27.3872 2.95187L30.2779 1.7545C31.3805 1.29778 32.6194 1.29778 33.7221 1.7545L33.9134 1.29257L33.7221 1.75451L36.6128 2.95186C37.7154 3.40858 38.5914 4.28462 39.0481 5.38724L40.2455 8.27792C40.7022 9.38055 40.7022 10.6194 40.2455 11.7221L39.0481 14.6128C38.5914 15.7154 37.7154 16.5914 36.6128 17.0481L33.7221 18.2455Z" stroke="#836A5D"/>
<path d="M32.5741 14.3782C32.2066 14.5304 31.7936 14.5304 31.4261 14.3782L29.3101 13.5018C28.9426 13.3495 28.6506 13.0575 28.4983 12.69L27.6219 10.574C27.4697 10.2065 27.4697 9.79354 27.6219 9.426L28.4983 7.31008C28.6506 6.94254 28.9426 6.65053 29.3101 6.49829L31.4261 5.62185C31.7936 5.4696 32.2066 5.4696 32.5741 5.62185L34.69 6.49829C35.0576 6.65053 35.3496 6.94254 35.5018 7.31008L36.3783 9.426C36.5305 9.79354 36.5305 10.2065 36.3783 10.574L35.5018 12.69C35.3496 13.0575 35.0576 13.3495 34.69 13.5018L32.5741 14.3782Z" stroke="#836A5D"/>
<line x1="31.7715" y1="18.9571" x2="31.7715" y2="14.6143" stroke="#836A5D"/>
<line x1="31.7715" y1="5.38572" x2="31.7715" y2="1.04286" stroke="#836A5D"/>
<line x1="40.4141" y1="10.2286" x2="36.6141" y2="10.2286" stroke="#836A5D"/>
<line x1="27.6572" y1="10.2286" x2="23.3144" y2="10.2286" stroke="#836A5D"/>
<line x1="38.5967" y1="3.75408" x2="35.5259" y2="6.82495" stroke="#836A5D"/>
<line x1="29.3677" y1="13.5255" x2="26.2969" y2="16.5964" stroke="#836A5D"/>
<line x1="38.3476" y1="16.1841" x2="35.2768" y2="13.1133" stroke="#836A5D"/>
<line x1="28.5595" y1="6.77954" x2="25.4887" y2="3.70868" stroke="#836A5D"/>
</svg>
