<svg width="65" height="34" viewBox="0 0 65 34" fill="none" xmlns="http://www.w3.org/2000/svg">
<rect x="70.1855" y="20.7429" width="5.6" height="6.54286" rx="1.5" transform="rotate(180 70.1855 20.7429)" stroke="#836A5D"/>
<rect x="0.414062" y="20.7429" width="5.6" height="6.54286" rx="1.5" transform="rotate(180 0.414062 20.7429)" stroke="#836A5D"/>
<path d="M36.1355 31.4529C33.8077 32.4171 31.1923 32.4171 28.8645 31.4529L24.8509 29.7904C22.5232 28.8263 20.6737 26.9769 19.7095 24.6491L18.0471 20.6355C17.0829 18.3077 17.0829 15.6923 18.0471 13.3645L19.7095 9.35092C20.6737 7.02315 22.5231 5.17374 24.8509 4.20955L28.8645 2.54706C31.1923 1.58287 33.8077 1.58287 36.1355 2.54706L40.1491 4.20954C42.4768 5.17374 44.3263 7.02314 45.2904 9.35091L46.9529 13.3645C47.9171 15.6923 47.9171 18.3077 46.9529 20.6355L45.2904 24.6491C44.3263 26.9768 42.4769 28.8263 40.1491 29.7904L36.1355 31.4529Z" stroke="#836A5D"/>
<path d="M34.222 24.7026C33.1193 25.1594 31.8804 25.1594 30.7778 24.7026L28.271 23.6643C27.1684 23.2076 26.2923 22.3315 25.8356 21.2289L24.7972 18.7221C24.3405 17.6194 24.3405 16.3805 24.7972 15.2779L25.8356 12.7711C26.2923 11.6685 27.1684 10.7924 28.271 10.3357L30.7778 9.29736C31.8804 8.84063 33.1193 8.84063 34.222 9.29736L36.7288 10.3357C37.8314 10.7924 38.7074 11.6685 39.1642 12.7711L40.2025 15.2779C40.6592 16.3805 40.6593 17.6194 40.2025 18.7221L39.1642 21.2289C38.7074 22.3315 37.8314 23.2076 36.7288 23.6643L34.222 24.7026Z" stroke="#836A5D"/>
<line x1="32.4712" y1="32.5571" x2="32.4712" y2="25.0143" stroke="#836A5D"/>
<line x1="32.4712" y1="8.98571" x2="32.4712" y2="1.44285" stroke="#836A5D"/>
<line x1="47.1143" y1="17.0286" x2="40.5143" y2="17.0286" stroke="#836A5D"/>
<line x1="24.957" y1="17.0286" x2="17.4142" y2="17.0286" stroke="#836A5D"/>
<line x1="43.6963" y1="5.89148" x2="38.3627" y2="11.2251" stroke="#836A5D"/>
<line x1="27.668" y1="22.8629" x2="22.3344" y2="28.1965" stroke="#836A5D"/>
<line x1="43.7851" y1="27.4803" x2="38.4515" y2="22.1467" stroke="#836A5D"/>
<line x1="26.7846" y1="11.146" x2="21.451" y2="5.81242" stroke="#836A5D"/>
<path d="M10.6502 24.7026C9.54756 25.1594 8.30866 25.1594 7.20603 24.7026L4.69921 23.6643C3.59659 23.2076 2.72055 22.3315 2.26383 21.2289L1.22547 18.7221C0.768749 17.6195 0.768748 16.3806 1.22547 15.2779L2.26383 12.7711C2.72055 11.6685 3.59659 10.7924 4.69921 10.3357L7.20603 9.29736C8.30866 8.84064 9.54756 8.84064 10.6502 9.29736L13.157 10.3357C14.2596 10.7924 15.1357 11.6685 15.5924 12.7711L16.6307 15.2779C17.0875 16.3805 17.0875 17.6194 16.6308 18.7221L15.5924 21.2289C15.1357 22.3315 14.2596 23.2076 13.157 23.6643L10.6502 24.7026Z" stroke="#836A5D"/>
<path d="M9.88479 20.9249C9.27222 21.1787 8.58394 21.1787 7.97137 20.9249L6.8292 20.4518C6.21663 20.1981 5.72994 19.7114 5.47621 19.0988L5.00311 17.9567C4.74937 17.3441 4.74937 16.6558 5.00311 16.0433L5.47621 14.9011C5.72994 14.2885 6.21663 13.8018 6.8292 13.5481L7.97137 13.075C8.58394 12.8213 9.27222 12.8213 9.88479 13.075L11.027 13.5481C11.6395 13.8018 12.1262 14.2885 12.3799 14.9011L12.853 16.0433C13.1068 16.6558 13.1068 17.3441 12.853 17.9567L12.3799 19.0988C12.1262 19.7114 11.6395 20.1981 11.027 20.4518L9.88479 20.9249Z" stroke="#836A5D"/>
<line x1="8.68408" y1="25.4455" x2="8.68408" y2="21.3508" stroke="#836A5D"/>
<line x1="8.68408" y1="12.6495" x2="8.68408" y2="8.55483" stroke="#836A5D"/>
<line x1="16.8613" y1="17.2441" x2="13.2785" y2="17.2441" stroke="#836A5D"/>
<line x1="4.8335" y1="17.2441" x2="0.738802" y2="17.2441" stroke="#836A5D"/>
<line x1="15.1675" y1="11.1314" x2="12.2721" y2="14.0268" stroke="#836A5D"/>
<line x1="6.46683" y1="20.3443" x2="3.57145" y2="23.2397" stroke="#836A5D"/>
<line x1="14.893" y1="22.8511" x2="11.9976" y2="19.9557" stroke="#836A5D"/>
<line x1="5.66402" y1="13.9839" x2="2.76864" y2="11.0885" stroke="#836A5D"/>
<path d="M57.7933 24.7026C56.6906 25.1594 55.4517 25.1594 54.3491 24.7026L51.8423 23.6643C50.7397 23.2076 49.8636 22.3315 49.4069 21.2289L48.3685 18.7221C47.9118 17.6194 47.9118 16.3805 48.3685 15.2779L49.4069 12.7711C49.8636 11.6685 50.7397 10.7924 51.8423 10.3357L54.3491 9.29736C55.4517 8.84063 56.6906 8.84063 57.7933 9.29736L60.3001 10.3357C61.4027 10.7924 62.2787 11.6685 62.7355 12.7711L63.7738 15.2779C64.2305 16.3805 64.2305 17.6194 63.7738 18.7221L62.7355 21.2289C62.2787 22.3315 61.4027 23.2076 60.3001 23.6643L57.7933 24.7026Z" stroke="#836A5D"/>
<path d="M57.0279 20.9249C56.4153 21.1787 55.727 21.1787 55.1144 20.9249L53.9723 20.4518C53.3597 20.1981 52.873 19.7114 52.6193 19.0988L52.1462 17.9567C51.8924 17.3441 51.8924 16.6558 52.1462 16.0432L52.6193 14.9011C52.873 14.2885 53.3597 13.8018 53.9723 13.5481L55.1144 13.075C55.727 12.8212 56.4153 12.8212 57.0279 13.075L58.17 13.5481C58.7826 13.8018 59.2693 14.2885 59.523 14.9011L59.9961 16.0432C60.2499 16.6558 60.2499 17.3441 59.9961 17.9567L59.523 19.0988C59.2693 19.7114 58.7826 20.1981 58.17 20.4518L57.0279 20.9249Z" stroke="#836A5D"/>
<line x1="55.8271" y1="25.4455" x2="55.8271" y2="21.3508" stroke="#836A5D"/>
<line x1="55.8271" y1="12.6495" x2="55.8271" y2="8.55483" stroke="#836A5D"/>
<line x1="64.0044" y1="17.2441" x2="60.4215" y2="17.2441" stroke="#836A5D"/>
<line x1="51.9766" y1="17.2441" x2="47.8819" y2="17.2441" stroke="#836A5D"/>
<line x1="62.3106" y1="11.1314" x2="59.4152" y2="14.0268" stroke="#836A5D"/>
<line x1="53.6099" y1="20.3443" x2="50.7145" y2="23.2397" stroke="#836A5D"/>
<line x1="62.0361" y1="22.8511" x2="59.1407" y2="19.9557" stroke="#836A5D"/>
<line x1="52.8071" y1="13.9839" x2="49.9117" y2="11.0885" stroke="#836A5D"/>
</svg>
