<svg width="64" height="36" viewBox="0 0 64 36" fill="none" xmlns="http://www.w3.org/2000/svg">
<path d="M35.8855 33.4529C33.5577 34.4171 30.9423 34.4171 28.6145 33.4529L23.8938 31.4976C21.566 30.5334 19.7166 28.684 18.7524 26.3562L16.7971 21.6355C15.8329 19.3077 15.8329 16.6923 16.7971 14.3645L18.7524 9.64381C19.7166 7.31604 21.566 5.46664 23.8938 4.50245L28.6145 2.54707C30.9423 1.58288 33.5577 1.58288 35.8855 2.54707L40.6062 4.50244C42.934 5.46664 44.7834 7.31604 45.7476 9.64381L47.7029 14.3645C48.6671 16.6923 48.6671 19.3077 47.7029 21.6355L45.7476 26.3562C44.7834 28.684 42.934 30.5334 40.6062 31.4976L35.8855 33.4529Z" stroke="#836A5D"/>
<path d="M33.9721 26.2455C32.8695 26.7022 31.6306 26.7022 30.5279 26.2455L27.6372 25.0481C26.5346 24.5914 25.6586 23.7154 25.2019 22.6128L24.0045 19.7221C23.5478 18.6195 23.5478 17.3806 24.0045 16.2779L25.2019 13.3872C25.6586 12.2846 26.5346 11.4086 27.6372 10.9519L30.5279 9.7545C31.6305 9.29778 32.8694 9.29778 33.9721 9.7545L34.1634 9.29257L33.9721 9.75451L36.8628 10.9519C37.9654 11.4086 38.8414 12.2846 39.2981 13.3872L40.4955 16.2779C40.9522 17.3805 40.9522 18.6194 40.4955 19.7221L39.2981 22.6128C38.8414 23.7154 37.9654 24.5914 36.8628 25.0481L33.9721 26.2455Z" stroke="#836A5D"/>
<line x1="32.25" y1="34.5" x2="32.25" y2="26.5" stroke="#836A5D"/>
<line x1="32.25" y1="9.5" x2="32.25" y2="1.5" stroke="#836A5D"/>
<line x1="47.75" y1="18" x2="40.75" y2="18" stroke="#836A5D"/>
<line x1="24.25" y1="18" x2="16.25" y2="18" stroke="#836A5D"/>
<line x1="44.1036" y1="6.19669" x2="38.4467" y2="11.8535" stroke="#836A5D"/>
<line x1="27.1036" y1="24.1967" x2="21.4467" y2="29.8536" stroke="#836A5D"/>
<line x1="44.2407" y1="29.094" x2="38.5838" y2="23.4372" stroke="#836A5D"/>
<line x1="26.2094" y1="11.7698" x2="20.5526" y2="6.11296" stroke="#836A5D"/>
<path d="M60.75 19C65.95 15.8 71.25 16 73.25 16.5L73.25 10.5C67.25 9.7 60.75 13.1667 58.25 15C54.65 18.2 50.0833 19 48.25 19L46.25 24.5C49.25 24 54.25 23 60.75 19Z" stroke="#836A5D"/>
<path d="M60.75 15.8821C65.95 19.0821 71.25 18.8821 73.25 18.3821L73.25 24.3821C67.25 25.1821 60.75 21.7154 58.25 19.8821C54.65 16.6821 50.0833 15.8821 48.25 15.8821L46.25 10.3821C49.25 10.8821 54.25 11.8821 60.75 15.8821Z" stroke="#836A5D"/>
<path d="M3.25 19C-1.95 15.8 -7.25 16 -9.25 16.5L-9.25 10.5C-3.25 9.7 3.25 13.1667 5.75 15C9.35 18.2 13.9167 19 15.75 19L17.75 24.5C14.75 24 9.75 23 3.25 19Z" stroke="#836A5D"/>
<path d="M3.25 15.8821C-1.95 19.0821 -7.25 18.8821 -9.25 18.3821L-9.25 24.3821C-3.25 25.1821 3.25 21.7154 5.75 19.8821C9.35 16.6821 13.9167 15.8821 15.75 15.8821L17.75 10.3821C14.75 10.8821 9.75 11.8821 3.25 15.8821Z" stroke="#836A5D"/>
</svg>
