<svg width="24" height="24" viewBox="0 0 24 24" fill="none" xmlns="http://www.w3.org/2000/svg">
<path d="M13.2225 12.4169C13.1371 12.3473 13.0103 12.3601 12.9413 12.447L10.0718 16.0019C10.0022 16.0879 10.0159 16.2138 10.1019 16.2831C10.1387 16.3132 10.1832 16.3277 10.2275 16.3277C10.2857 16.3277 10.3439 16.3023 10.3832 16.2531L13.2526 12.6982C13.3222 12.6122 13.3086 12.4863 13.2225 12.4169Z" fill="#262523"/>
<path d="M14.3566 13.6019C14.2706 13.5323 14.1444 13.5453 14.0751 13.6317L12.109 16.0655C12.0393 16.1515 12.053 16.2777 12.1387 16.3471C12.1759 16.3771 12.2204 16.3916 12.2646 16.3916C12.3228 16.3916 12.3807 16.3662 12.4203 16.3173L14.3863 13.8835C14.456 13.7974 14.4424 13.6712 14.3566 13.6019Z" fill="#262523"/>
<path d="M22.7962 8.84386C22.7998 8.82342 22.8002 8.80321 22.7974 8.78266C22.7964 8.77522 22.796 8.76817 22.7941 8.76092C22.7877 8.73505 22.7777 8.7099 22.7607 8.68772L22.7604 8.68748L22.7604 8.68743L19.3123 4.21162C19.3117 4.2109 19.3108 4.21081 19.3103 4.21013C19.3085 4.20778 19.3058 4.2062 19.3038 4.20394C19.3023 4.20222 19.3023 4.19967 19.3008 4.19794C19.2983 4.19521 19.2943 4.19492 19.2916 4.19233C19.2754 4.17653 19.2568 4.16391 19.2358 4.15417C19.2306 4.15182 19.2263 4.14927 19.221 4.14735C19.2166 4.14572 19.2131 4.14279 19.2085 4.1415C19.2083 4.1414 19.2082 4.1413 19.208 4.14126C19.2077 4.14116 19.2074 4.14097 19.2071 4.14087L12.0568 2.15521C12.0219 2.14537 11.9848 2.14537 11.9498 2.15521L4.79923 4.14087C4.79904 4.14092 4.79885 4.14111 4.79866 4.14116C4.79774 4.1414 4.79717 4.14198 4.7963 4.14222C4.79266 4.14327 4.78978 4.14562 4.78627 4.14687C4.78037 4.14898 4.77552 4.15186 4.76981 4.1545C4.74902 4.1642 4.73078 4.17663 4.7148 4.19223C4.71211 4.19487 4.70813 4.19516 4.70558 4.19794C4.704 4.19967 4.70405 4.20222 4.70251 4.20394C4.70069 4.2061 4.6981 4.20764 4.69632 4.20985C4.69579 4.21052 4.69493 4.21066 4.6944 4.21129L1.2383 8.6871C1.23811 8.68734 1.23787 8.68743 1.23773 8.68767C1.22078 8.70985 1.2108 8.7349 1.20432 8.76073C1.2025 8.76793 1.20211 8.77489 1.2011 8.78228C1.19827 8.80292 1.19861 8.82332 1.20226 8.84386C1.20307 8.84842 1.20139 8.85303 1.2025 8.85759C1.20312 8.86023 1.20533 8.86215 1.2061 8.86479C1.21354 8.89047 1.22443 8.91529 1.24234 8.93703L11.849 21.7795C11.8526 21.7838 11.8579 21.7854 11.8618 21.7894C11.8708 21.7987 11.8797 21.808 11.8907 21.8156C11.8927 21.817 11.8939 21.8191 11.8959 21.8204C11.8967 21.8209 11.8971 21.8217 11.8979 21.8222C11.901 21.8241 11.9047 21.8233 11.9079 21.825C11.9376 21.8414 11.9697 21.8522 12.0033 21.8522C12.0369 21.8522 12.069 21.8414 12.0987 21.825C12.1019 21.8233 12.1056 21.8241 12.1087 21.8222C12.1094 21.8216 12.1099 21.8208 12.1106 21.8203C12.1128 21.8189 12.1141 21.8167 12.1162 21.8152C12.1271 21.8077 12.136 21.7984 12.145 21.7892C12.1488 21.7853 12.154 21.7838 12.1575 21.7795L22.756 8.93703C22.7738 8.91543 22.7847 8.89071 22.7922 8.86518C22.7929 8.86249 22.7952 8.86057 22.7959 8.85788C22.7971 8.85322 22.7954 8.84857 22.7962 8.84386ZM12.0031 21.1599L7.83254 11.8038H16.166L13.0078 18.9019L12.0031 21.1599ZM8.62574 5.59345L11.6483 6.43628L7.59379 11.2123L5.17565 4.63153L8.62574 5.59345ZM9.50563 9.57879L12.0031 6.63687L16.0421 11.4034H7.95682L9.50563 9.57879ZM16.4051 11.2122L12.358 6.43628L18.8304 4.63167L16.4051 11.2122ZM16.8282 11.2222L18.4686 6.77108L19.2162 4.74284L22.2893 8.73198L16.8282 11.2222ZM4.78987 4.74293L6.21504 8.62134L7.17072 11.2224L1.70947 8.73212L4.78987 4.74293ZM16.5588 11.906L16.6263 11.7543L18.3876 10.9511L21.8942 9.35218L12.7827 20.393L16.5588 11.906ZM12.0033 2.55582L18.4069 4.33402L12.0033 6.11953L5.59939 4.33398L12.0033 2.55582ZM2.1048 9.35242L5.49312 10.8974L7.37213 11.7544L11.2228 20.3928L2.1048 9.35242Z" fill="#262523"/>
</svg>
