<svg width="20" height="20" viewBox="0 0 20 20" fill="none" xmlns="http://www.w3.org/2000/svg">
<path d="M15.0002 1.04173H17.5002C17.8868 1.0422 18.2575 1.19599 18.5308 1.46938C18.8042 1.74277 18.958 2.11343 18.9585 2.50006V11.6667C18.958 12.0534 18.8042 12.424 18.5308 12.6974C18.2575 12.9708 17.8868 13.1246 17.5002 13.1251H15.0002C14.6135 13.1246 14.2429 12.9708 13.9695 12.6974C13.6961 12.424 13.5423 12.0534 13.5418 11.6667V2.50006C13.5423 2.11343 13.6961 1.74277 13.9695 1.46938C14.2429 1.19599 14.6135 1.0422 15.0002 1.04173ZM17.5002 11.8751C17.5554 11.875 17.6083 11.853 17.6474 11.8139C17.6864 11.7749 17.7084 11.7219 17.7085 11.6667V2.50006C17.7084 2.44484 17.6864 2.39191 17.6474 2.35286C17.6083 2.31382 17.5554 2.29183 17.5002 2.29173H15.0002C14.9449 2.29183 14.892 2.31382 14.853 2.35286C14.8139 2.39191 14.7919 2.44484 14.7918 2.50006V11.6667C14.7919 11.7219 14.8139 11.7749 14.853 11.8139C14.892 11.853 14.9449 11.875 15.0002 11.8751H17.5002Z" fill="#6A665E"/>
<path d="M5.44018 1.87504H14.167C14.3327 1.87508 14.4917 1.94095 14.6089 2.05815C14.7261 2.17535 14.7919 2.33429 14.792 2.50004V11.6667C14.792 11.7678 14.7675 11.8673 14.7205 11.9568C14.6736 12.0463 14.6057 12.1231 14.5226 12.1806C13.6065 12.8121 12.8132 13.6054 12.1817 14.5215C11.6123 15.3478 11.1826 16.2621 10.9097 17.2278C10.7502 17.8026 10.3792 18.2957 9.87104 18.608C9.36292 18.9204 8.75541 19.029 8.17056 18.9118C7.58571 18.7947 7.06684 18.4606 6.71818 17.9767C6.36953 17.4927 6.21692 16.8948 6.29102 16.3029L6.79232 12.2917H2.75789C2.53364 12.2917 2.31241 12.2399 2.11141 12.1405C1.91042 12.041 1.73506 11.8966 1.59897 11.7183C1.46289 11.5401 1.36974 11.3328 1.32677 11.1127C1.2838 10.8926 1.29217 10.6656 1.35122 10.4493L3.22908 3.56368C3.36208 3.07905 3.65039 2.65143 4.04979 2.3464C4.44919 2.04137 4.93763 1.87579 5.44018 1.87504ZM13.542 3.12504H5.44018C5.21179 3.12546 4.98984 3.20074 4.80831 3.33934C4.62679 3.47795 4.4957 3.67224 4.43514 3.89246L2.55729 10.7784C2.54873 10.8093 2.54742 10.8418 2.55349 10.8733C2.55955 10.9047 2.57281 10.9344 2.59224 10.9599C2.61167 10.9854 2.63673 11.006 2.66547 11.0202C2.69421 11.0344 2.72584 11.0418 2.75789 11.0417H7.50033C7.58899 11.0416 7.67666 11.0604 7.75749 11.0968C7.83833 11.1333 7.91048 11.1865 7.96914 11.253C8.02781 11.3194 8.07165 11.3977 8.09773 11.4824C8.12382 11.5671 8.13156 11.6565 8.12044 11.7444L7.53128 16.4584C7.51177 16.6148 7.52576 16.7736 7.57229 16.9243C7.61883 17.0749 7.69686 17.214 7.80121 17.3322C7.90556 17.4504 8.03384 17.545 8.17755 17.6099C8.32126 17.6748 8.47712 17.7083 8.63479 17.7084C8.87905 17.7082 9.11646 17.6276 9.31028 17.4789C9.50409 17.3303 9.64352 17.1219 9.70697 16.886C10.0175 15.7891 10.5059 14.7506 11.1527 13.8119C11.8068 12.8628 12.6142 12.0292 13.542 11.3452L13.542 3.12504Z" fill="#6A665E"/>
</svg>
