<svg width="20" height="21" viewBox="0 0 20 21" fill="none" xmlns="http://www.w3.org/2000/svg">
<path fill-rule="evenodd" clip-rule="evenodd" d="M2 3.20013V8.80002C2 9.02093 2.17908 9.20001 2.39999 9.20001H7.99988C8.22079 9.20001 8.39987 9.02093 8.39987 8.80002V3.20013C8.39987 2.97922 8.22079 2.80014 7.99988 2.80014H2.39999C2.17908 2.80014 2 2.97922 2 3.20013ZM2.79998 3.60012H7.59989V8.40003H2.79998V3.60012ZM11.5998 3.20013V8.80002C11.5998 9.02093 11.7789 9.20001 11.9998 9.20001H17.5997C17.8206 9.20001 17.9997 9.02093 17.9997 8.80002V3.20013C17.9997 2.97922 17.8206 2.80014 17.5997 2.80014H11.9998C11.7789 2.80014 11.5998 2.97922 11.5998 3.20013ZM12.3998 3.60012H17.1997V8.40003H12.3998V3.60012ZM2 12.7999V18.3998C2 18.6207 2.17908 18.7998 2.39999 18.7998H7.99988C8.22079 18.7998 8.39987 18.6207 8.39987 18.3998V12.7999C8.39987 12.579 8.22079 12.3999 7.99988 12.3999H2.39999C2.17908 12.3999 2 12.579 2 12.7999ZM2.79998 13.1999H7.59989V17.9998H2.79998V13.1999ZM11.5998 12.7999V18.3998C11.5998 18.6207 11.7789 18.7998 11.9998 18.7998H17.5997C17.8206 18.7998 17.9997 18.6207 17.9997 18.3998V12.7999C17.9997 12.579 17.8206 12.3999 17.5997 12.3999H11.9998C11.7789 12.3999 11.5998 12.579 11.5998 12.7999ZM12.3998 13.1999H17.1997V17.9998H12.3998V13.1999Z" fill="#6A665E"/>
</svg>
