<svg width="24" height="25" viewBox="0 0 24 25" fill="none" xmlns="http://www.w3.org/2000/svg">
<path d="M12 22.1876C11.9495 22.1875 11.8996 22.1763 11.8539 22.1548C11.8082 22.1332 11.7678 22.1018 11.7357 22.0628L0.078428 7.92324C0.0370959 7.87309 0.0108679 7.81223 0.00280099 7.74774C-0.00526593 7.68326 0.00516042 7.61781 0.0328648 7.55902C0.0605692 7.50024 0.104411 7.45053 0.15928 7.41571C0.214149 7.38088 0.277785 7.36237 0.342773 7.36232H23.6572C23.7222 7.36237 23.7859 7.38088 23.8407 7.41571C23.8956 7.45053 23.9394 7.50024 23.9671 7.55902C23.9948 7.61781 24.0053 7.68326 23.9972 7.74774C23.9891 7.81223 23.9629 7.87309 23.9216 7.92324L12.2643 22.0628C12.2322 22.1018 12.1918 22.1332 12.1461 22.1548C12.1004 22.1763 12.0505 22.1875 12 22.1876ZM1.06998 8.04804L12 21.3057L22.93 8.04804H1.06998Z" fill="#836A5D"/>
<path d="M12 22.1876C11.9319 22.1876 11.8653 22.1673 11.8088 22.1293C11.7522 22.0913 11.7083 22.0374 11.6825 21.9743L5.90361 7.83513C5.88235 7.78306 5.87423 7.72656 5.87996 7.67061C5.88569 7.61466 5.90509 7.56098 5.93646 7.5143C5.96783 7.46761 6.0102 7.42937 6.05984 7.40292C6.10948 7.37648 6.16486 7.36266 6.2211 7.36267H17.7789C17.8351 7.36266 17.8905 7.37648 17.9402 7.40292C17.9898 7.42937 18.0322 7.46761 18.0635 7.5143C18.0949 7.56098 18.1143 7.61466 18.12 7.67061C18.1258 7.72656 18.1176 7.78306 18.0964 7.83513L12.3175 21.9743C12.2917 22.0374 12.2478 22.0913 12.1912 22.1293C12.1347 22.1673 12.0681 22.1876 12 22.1876ZM6.73162 8.04804L12 20.9396L17.2684 8.04804H6.73162Z" fill="#836A5D"/>
<path d="M23.6572 8.04804H0.342773C0.280113 8.04803 0.218656 8.03084 0.165078 7.99835C0.111501 7.96586 0.0678511 7.91931 0.0388718 7.86375C0.00989249 7.8082 -0.0033083 7.74576 0.000703602 7.68323C0.0047155 7.6207 0.0257867 7.56047 0.0616279 7.50907L3.80565 2.14674C3.83724 2.10145 3.87929 2.06446 3.92824 2.03891C3.97719 2.01336 4.03158 2.00001 4.0868 2H19.9132C19.9684 2.00001 20.0228 2.01336 20.0718 2.03891C20.1207 2.06446 20.1628 2.10145 20.1943 2.14674L23.9384 7.50907C23.9742 7.56047 23.9953 7.6207 23.9993 7.68323C24.0033 7.74576 23.9901 7.8082 23.9611 7.86375C23.9321 7.91931 23.8885 7.96586 23.8349 7.99835C23.7813 8.03084 23.7199 8.04803 23.6572 8.04804ZM1.00038 7.36233H22.9996L19.7346 2.68572H4.26543L1.00038 7.36233Z" fill="#836A5D"/>
<path d="M17.7789 8.04804H6.2211C6.16339 8.04783 6.10666 8.03304 6.05619 8.00507C6.00571 7.97709 5.96311 7.93682 5.93234 7.888C5.90157 7.83917 5.88362 7.78337 5.88015 7.72576C5.87669 7.66815 5.88783 7.6106 5.91253 7.55844L8.45449 2.19612C8.48218 2.13764 8.52585 2.0882 8.58045 2.05349C8.63506 2.01879 8.69836 2.00024 8.76306 2H15.2369C15.3016 2.00024 15.3649 2.01879 15.4195 2.05349C15.4741 2.0882 15.5178 2.13764 15.5455 2.19612L18.0875 7.55844C18.1122 7.6106 18.1233 7.66815 18.1198 7.72576C18.1164 7.78337 18.0984 7.83917 18.0677 7.888C18.0369 7.93682 17.9943 7.97709 17.9438 8.00507C17.8933 8.03304 17.8366 8.04783 17.7789 8.04804ZM6.76316 7.36233H17.2368L15.0202 2.68572H8.97975L6.76316 7.36233Z" fill="#836A5D"/>
</svg>
