<svg width="24" height="24" viewBox="0 0 24 24" fill="none" xmlns="http://www.w3.org/2000/svg">
<g clip-path="url(#clip0_301_4403)">
<path d="M4.68864 13.9834L5.50236 14.5163L5.81016 13.3611C6.3549 11.3304 6.29722 11.4201 6.35178 11.1947C6.32963 11.0682 5.75614 9.54258 6.15549 7.689L6.16337 7.64634C6.7092 4.04246 12.7403 3.06156 15.5409 5.4066C16.7491 6.41825 17.2037 7.93638 16.8553 9.79691C16.6051 11.133 16.1684 12.1293 15.4812 12.9322C14.5326 14.0407 13.3395 14.1308 12.6327 13.7454C12.3695 13.602 11.7865 13.1706 12.0568 12.2663C12.4433 10.9719 13.1417 9.02238 13.2243 7.60862C13.2979 6.34922 12.5384 5.3242 11.3343 5.05796C9.9921 4.76115 8.44559 5.48551 7.77689 7.17503C7.29569 8.3903 7.29697 9.65336 7.78092 11.0347C7.79667 11.3755 7.44987 12.6605 7.17008 13.6972C6.32432 16.8316 5.16581 21.124 6.2941 23.3097L6.65061 24L7.30173 23.5765C9.16263 22.3667 10.2497 18.8476 10.8456 16.6553C12.414 17.8167 14.6366 17.9147 16.8349 16.8412C20.3641 15.1176 22.7183 11.0047 21.5387 6.42558C20.224 1.32188 15.1216 -0.656392 9.9824 0.188823C5.74589 0.885356 3.05149 3.62956 2.33628 7.01188C1.73295 9.86558 2.67832 12.6673 4.68864 13.9834ZM3.71159 7.30265C4.35044 4.28086 6.77988 2.13999 10.2104 1.57585C14.3302 0.898356 19.01 2.24363 20.1775 6.77622C21.2573 10.9679 18.8821 14.2771 16.2181 15.5781C14.5838 16.3761 12.363 16.6126 11.0305 14.8832L10.1611 13.7549L9.79453 15.1311C9.3104 16.9468 8.52744 20.0292 7.26969 21.6766C7.02268 19.6388 7.94095 16.2355 8.52707 14.0636C9.08665 11.9903 9.30619 11.1281 9.11905 10.6029C8.74058 9.54075 8.72904 8.58879 9.08372 7.6923C9.48105 6.6887 10.3285 6.27506 11.0307 6.43034C11.2843 6.48655 11.8689 6.70555 11.821 7.52659C11.7499 8.74113 11.0717 10.6526 10.7099 11.864C10.3299 13.1357 10.8205 14.3586 11.9598 14.9797C13.24 15.6775 15.1621 15.4668 16.5491 13.8463C17.4031 12.8484 17.9394 11.6439 18.2368 10.0556C18.4668 8.82774 18.4122 7.69871 18.0747 6.6995C17.7609 5.77006 17.2119 4.97245 16.4433 4.32865C12.816 1.29148 5.51499 2.68638 4.77689 7.41398C4.51414 8.64994 4.55717 9.93644 4.90452 11.2409C4.84867 11.4855 4.76939 11.7988 4.68534 12.1209C3.70701 10.9704 3.31846 9.16264 3.71159 7.30265Z" fill="#836A5D"/>
</g>
<defs>
<clipPath id="clip0_301_4403">
<rect width="24" height="24" fill="white"/>
</clipPath>
</defs>
</svg>
