<svg width="20" height="21" viewBox="0 0 20 21" fill="none" xmlns="http://www.w3.org/2000/svg">
<path fill-rule="evenodd" clip-rule="evenodd" d="M5.4609 6.4C5.4609 6.17909 5.63998 6 5.8609 6H17.1009C17.3219 6 17.5009 6.17909 17.5009 6.4C17.5009 6.62091 17.3219 6.8 17.1009 6.8H5.8609C5.63998 6.8 5.4609 6.62091 5.4609 6.4Z" fill="#836A5D"/>
<path fill-rule="evenodd" clip-rule="evenodd" d="M5.4609 10.4C5.4609 10.1791 5.63998 10 5.8609 10H17.1009C17.3219 10 17.5009 10.1791 17.5009 10.4C17.5009 10.6209 17.3219 10.8 17.1009 10.8H5.8609C5.63998 10.8 5.4609 10.6209 5.4609 10.4Z" fill="#836A5D"/>
<path fill-rule="evenodd" clip-rule="evenodd" d="M5.4609 14.4C5.4609 14.1791 5.63998 14 5.8609 14H17.1009C17.3219 14 17.5009 14.1791 17.5009 14.4C17.5009 14.6209 17.3219 14.8 17.1009 14.8H5.8609C5.63998 14.8 5.4609 14.6209 5.4609 14.4Z" fill="#836A5D"/>
<path fill-rule="evenodd" clip-rule="evenodd" d="M2.46094 6.4C2.46094 6.17909 2.64002 6 2.86094 6H3.42094C3.64185 6 3.82094 6.17909 3.82094 6.4C3.82094 6.62091 3.64185 6.8 3.42094 6.8H2.86094C2.64002 6.8 2.46094 6.62091 2.46094 6.4Z" fill="#836A5D"/>
<path fill-rule="evenodd" clip-rule="evenodd" d="M2.46094 10.4C2.46094 10.1791 2.64002 10 2.86094 10H3.42094C3.64185 10 3.82094 10.1791 3.82094 10.4C3.82094 10.6209 3.64185 10.8 3.42094 10.8H2.86094C2.64002 10.8 2.46094 10.6209 2.46094 10.4Z" fill="#836A5D"/>
<path fill-rule="evenodd" clip-rule="evenodd" d="M2.46094 14.4C2.46094 14.1791 2.64002 14 2.86094 14H3.42094C3.64185 14 3.82094 14.1791 3.82094 14.4C3.82094 14.6209 3.64185 14.8 3.42094 14.8H2.86094C2.64002 14.8 2.46094 14.6209 2.46094 14.4Z" fill="#836A5D"/>
</svg>
