<svg width="20" height="20" viewBox="0 0 20 20" fill="none" xmlns="http://www.w3.org/2000/svg">
<path d="M4.99984 18.9584H2.49984C2.11321 18.9579 1.74255 18.8041 1.46916 18.5307C1.19577 18.2574 1.04197 17.8867 1.0415 17.5001V8.33339C1.04197 7.94676 1.19577 7.5761 1.46916 7.30272C1.74255 7.02933 2.11321 6.87553 2.49984 6.87506H4.99984C5.38647 6.87553 5.75713 7.02933 6.03052 7.30272C6.30391 7.5761 6.4577 7.94676 6.45817 8.33339V17.5001C6.4577 17.8867 6.30391 18.2574 6.03052 18.5307C5.75713 18.8041 5.38647 18.9579 4.99984 18.9584ZM2.49984 8.12506C2.44462 8.12517 2.39169 8.14715 2.35264 8.1862C2.31359 8.22524 2.29161 8.27817 2.2915 8.33339V17.5001C2.29161 17.5553 2.31359 17.6082 2.35264 17.6473C2.39169 17.6863 2.44462 17.7083 2.49984 17.7084H4.99984C5.05506 17.7083 5.10799 17.6863 5.14703 17.6473C5.18608 17.6082 5.20807 17.5553 5.20817 17.5001V8.33339C5.20807 8.27817 5.18608 8.22524 5.14703 8.1862C5.10799 8.14715 5.05506 8.12517 4.99984 8.12506H2.49984Z" fill="#6A665E"/>
<path d="M14.5598 18.1251H5.83301C5.66726 18.125 5.50832 18.0592 5.39111 17.942C5.27391 17.8248 5.20805 17.6658 5.20801 17.5001V8.33342C5.20803 8.23236 5.23254 8.13282 5.27946 8.04331C5.32637 7.95381 5.39428 7.87701 5.47737 7.8195C6.3935 7.188 7.18678 6.39473 7.81827 5.4786C8.38772 4.6523 8.81744 3.73801 9.09025 2.7723C9.24976 2.19756 9.62084 1.70447 10.129 1.39208C10.6371 1.0797 11.2446 0.971158 11.8294 1.08827C12.4143 1.20539 12.9332 1.53948 13.2818 2.02343C13.6305 2.50738 13.7831 3.10534 13.709 3.69718L13.2077 7.70842H17.2421C17.4664 7.70846 17.6876 7.76021 17.8886 7.85966C18.0896 7.95911 18.2649 8.10357 18.401 8.28181C18.5371 8.46006 18.6303 8.66728 18.6732 8.88738C18.7162 9.10748 18.7078 9.33453 18.6488 9.55087L16.7709 16.4364C16.6379 16.9211 16.3496 17.3487 15.9502 17.6537C15.5508 17.9587 15.0624 18.1243 14.5598 18.1251ZM6.45801 16.8751H14.5598C14.7882 16.8747 15.0102 16.7994 15.1917 16.6608C15.3732 16.5222 15.5043 16.3279 15.5649 16.1077L17.4427 9.22168C17.4513 9.19079 17.4526 9.15834 17.4465 9.12687C17.4405 9.09539 17.4272 9.06575 17.4078 9.04025C17.3883 9.01476 17.3633 8.9941 17.3345 8.97991C17.3058 8.96571 17.2742 8.95835 17.2421 8.95842H12.4997C12.411 8.95851 12.3233 8.93971 12.2425 8.90329C12.1617 8.86686 12.0895 8.81364 12.0309 8.74716C11.9722 8.68068 11.9284 8.60247 11.9023 8.51773C11.8762 8.43299 11.8684 8.34366 11.8796 8.2557L12.4687 3.54175C12.4882 3.38529 12.4742 3.22647 12.4277 3.07583C12.3812 2.92518 12.3031 2.78615 12.1988 2.66795C12.0944 2.54975 11.9662 2.45508 11.8224 2.39023C11.6787 2.32537 11.5229 2.2918 11.3652 2.29175C11.1209 2.29189 10.8835 2.37253 10.6897 2.52118C10.4959 2.66984 10.3565 2.87823 10.293 3.1141C9.98252 4.211 9.49413 5.24952 8.84731 6.18827C8.19324 7.13736 7.38576 7.97097 6.45798 8.65493L6.45801 16.8751Z" fill="#6A665E"/>
</svg>
