<svg width="32" height="33" viewBox="0 0 32 33" fill="none" xmlns="http://www.w3.org/2000/svg">
<path d="M20.0608 22.6695C19.8307 22.4815 19.5128 22.4424 19.2451 22.5685C19.2048 22.5875 19.0741 22.6417 18.7333 22.736C18.507 22.7981 18.3116 22.8297 18.1521 22.8297C17.8269 22.8297 17.6741 22.7868 17.6215 22.7681C17.6076 22.7257 17.585 22.6284 17.585 22.4445C17.585 22.3828 17.5927 22.1959 17.6662 21.7914C17.7211 21.4773 17.7848 21.193 17.857 20.9423L18.8026 17.5943C18.9105 17.2381 18.985 16.8446 19.0235 16.426C19.0607 16.0353 19.0785 15.7582 19.0785 15.5792C19.0785 14.6454 18.741 13.8708 18.0753 13.2765C17.4353 12.7053 16.5487 12.4156 15.44 12.4156C14.8531 12.4156 14.2293 12.5191 13.5864 12.7233C13.0014 12.9084 12.3786 13.1352 11.7352 13.3972C11.5064 13.4902 11.3364 13.6874 11.2775 13.9273L11.0223 14.9679C10.9542 15.2448 11.0449 15.5366 11.2578 15.7264C11.4702 15.9159 11.7704 15.9727 12.0383 15.874C12.2234 15.8055 12.4312 15.7369 12.6562 15.6706C12.846 15.6146 13.0276 15.5861 13.1963 15.5861C13.4721 15.5861 13.6147 15.6177 13.6761 15.637C13.691 15.6848 13.7128 15.7867 13.7128 15.9724C13.7128 16.1622 13.6889 16.3767 13.6409 16.6127C13.5885 16.8764 13.5215 17.1625 13.4406 17.4731L12.487 20.8478C12.4841 20.8578 12.4816 20.8678 12.479 20.8781C12.3891 21.2541 12.3221 21.5998 12.2797 21.9067C12.2368 22.219 12.2152 22.5323 12.2152 22.8372C12.2152 23.7584 12.5619 24.5304 13.2464 25.133C13.9021 25.7083 14.7979 26 15.9089 26C16.5947 26 17.2126 25.906 17.7453 25.7206C18.2165 25.557 18.8414 25.3217 19.6019 25.0212C19.8343 24.9296 20.0079 24.7305 20.0675 24.4878L20.3218 23.4482C20.3919 23.1605 20.2907 22.8572 20.0608 22.6695ZM17.4897 16.2827C17.4604 16.5998 17.406 16.8911 17.3241 17.1623L16.3756 20.5201C16.2893 20.8198 16.2128 21.1583 16.1493 21.5214C16.0787 21.911 16.0443 22.2131 16.0443 22.4447C16.0443 23.1328 16.2408 23.641 16.6304 23.958C16.7983 24.0933 17.0025 24.195 17.2462 24.2633C17.2439 24.2641 17.2414 24.2649 17.2393 24.2659C16.8692 24.3946 16.4213 24.4598 15.9084 24.4598C15.1824 24.4598 14.6284 24.2967 14.2632 23.9762C13.917 23.6714 13.7557 23.3097 13.7557 22.8377C13.7557 22.6022 13.7726 22.3595 13.8058 22.1173C13.8407 21.8648 13.8972 21.5738 13.9737 21.2518L14.9271 17.8781C15.0198 17.5234 15.0935 17.2083 15.1515 16.9173C15.2194 16.5834 15.2538 16.2657 15.2538 15.9729C15.2538 15.3247 15.0837 14.8336 14.7473 14.5126C14.5863 14.3595 14.3831 14.2447 14.1345 14.1672C14.5968 14.0277 15.0357 13.9568 15.4402 13.9568C16.1588 13.9568 16.7005 14.1148 17.0493 14.4263C17.3826 14.7237 17.5377 15.0899 17.5377 15.5792C17.5377 15.6519 17.5316 15.8391 17.4897 16.2827Z" fill="#836A5D"/>
<path d="M17.5505 11.783C18.3726 11.783 19.0876 11.5049 19.6737 10.9581C20.2693 10.4056 20.5844 9.69242 20.5844 8.89625C20.5844 8.09238 20.2793 7.39817 19.6773 6.83238C19.0889 6.2802 18.3736 6 17.5508 6C16.7274 6 16.0098 6.27917 15.4175 6.83033C14.8186 7.38893 14.502 8.10317 14.502 8.896C14.502 9.69268 14.8199 10.4064 15.4206 10.9594C16.0126 11.5059 16.7294 11.783 17.5505 11.783ZM16.4677 7.95806C16.7733 7.67375 17.1172 7.54097 17.5505 7.54097C17.9804 7.54097 18.321 7.67272 18.6223 7.95549C18.9094 8.22542 19.0434 8.52437 19.0434 8.896C19.0434 9.26763 18.9107 9.56401 18.624 9.82982C18.3228 10.1111 17.9817 10.2418 17.5505 10.2418C17.117 10.2418 16.7723 10.1098 16.4646 9.82623C16.1767 9.56118 16.0424 9.26557 16.0424 8.896C16.0424 8.52642 16.178 8.22824 16.4677 7.95806Z" fill="#836A5D"/>
</svg>
