<svg width="32" height="33" viewBox="0 0 32 33" fill="none" xmlns="http://www.w3.org/2000/svg">
<path d="M27.8396 7.97998H7.99961C6.59161 7.97998 5.43961 9.13198 5.43961 10.54V11.5C5.43961 11.852 5.72761 12.14 6.07961 12.14C6.43161 12.14 6.71961 11.852 6.71961 11.5V10.54C6.71961 10.412 6.75161 10.284 6.78361 10.156L13.9516 16.3L6.78361 22.444C6.75161 22.316 6.71961 22.188 6.71961 22.06V21.1C6.71961 20.748 6.43161 20.46 6.07961 20.46C5.72761 20.46 5.43961 20.748 5.43961 21.1V22.06C5.43961 23.468 6.59161 24.62 7.99961 24.62H27.8396C29.2476 24.62 30.3996 23.468 30.3996 22.06V10.54C30.3996 9.13198 29.2476 7.97998 27.8396 7.97998ZM7.74361 9.29198C7.80761 9.25998 7.90361 9.25998 7.99961 9.25998H27.8396C27.9356 9.25998 28.0316 9.25998 28.0956 9.29198L18.3356 17.644C18.0796 17.836 17.7596 17.836 17.5036 17.644L7.74361 9.29198ZM27.8396 23.34H7.99961C7.90361 23.34 7.80761 23.34 7.74361 23.308L14.9436 17.132L16.6716 18.636C17.0236 18.956 17.4716 19.116 17.9196 19.116C18.3676 19.116 18.8156 18.956 19.1676 18.636L20.8956 17.132L28.0956 23.308C28.0316 23.34 27.9356 23.34 27.8396 23.34ZM29.1196 22.06C29.1196 22.188 29.0876 22.316 29.0556 22.444L21.8876 16.3L29.0556 10.156C29.0876 10.284 29.1196 10.412 29.1196 10.54V22.06ZM3.51961 14.7C3.51961 14.348 3.80761 14.06 4.15961 14.06H7.99961C8.35161 14.06 8.63961 14.348 8.63961 14.7C8.63961 15.052 8.35161 15.34 7.99961 15.34H4.15961C3.80761 15.34 3.51961 15.052 3.51961 14.7ZM7.99961 18.54H2.23961C1.88761 18.54 1.59961 18.252 1.59961 17.9C1.59961 17.548 1.88761 17.26 2.23961 17.26H7.99961C8.35161 17.26 8.63961 17.548 8.63961 17.9C8.63961 18.252 8.35161 18.54 7.99961 18.54Z" fill="#836A5D"/>
</svg>
