<svg width="24" height="24" viewBox="0 0 24 24" fill="none" xmlns="http://www.w3.org/2000/svg">
<g clip-path="url(#clip0_301_4399)">
<path d="M6.81201 13.9371H9.33001V23.2491C9.33001 23.6631 9.66501 23.9991 10.08 23.9991L14.087 24.0001C14.502 24.0001 14.837 23.6631 14.837 23.2501V13.9381H17.224C17.602 13.9381 17.921 13.6561 17.968 13.2811L18.466 9.28106C18.522 8.83506 18.173 8.43806 17.722 8.43806H14.837C14.95 5.96706 14.402 5.23606 16.009 5.23606C17.097 5.10606 18.813 5.65706 18.813 4.48606V0.909061C18.813 0.534061 18.536 0.217061 18.165 0.166061C17.851 0.123061 16.61 6.10352e-05 15.071 6.10352e-05C8.06101 6.10352e-05 9.50401 7.77206 9.33101 8.43706H6.81201C6.39801 8.43706 6.06201 8.77306 6.06201 9.18706V13.1871C6.06201 13.6011 6.39801 13.9371 6.81201 13.9371ZM7.56201 9.93806H10.08C10.494 9.93806 10.83 9.60206 10.83 9.18806V6.03706C10.83 3.15406 12.375 1.50106 15.07 1.50106C15.948 1.50106 16.756 1.54406 17.312 1.58806V3.73706C16.91 3.94206 13.336 2.85306 13.336 6.43406V9.18906C13.336 9.60306 13.672 9.93906 14.086 9.93906H16.872L16.56 12.4391H14.086C13.672 12.4391 13.336 12.7751 13.336 13.1891V22.5001H10.831V13.1881C10.831 12.7741 10.495 12.4381 10.081 12.4381H7.56201V9.93806Z" fill="#836A5D"/>
</g>
<defs>
<clipPath id="clip0_301_4399">
<rect width="24" height="24" fill="white"/>
</clipPath>
</defs>
</svg>
