<svg width="24" height="24" viewBox="0 0 24 24" fill="none" xmlns="http://www.w3.org/2000/svg">
<path d="M0.473114 19.5951C2.69511 21.0051 5.28111 21.7501 7.95111 21.7501C11.8611 21.7501 15.4441 20.2481 18.0411 17.5211C20.5261 14.9111 21.8931 11.4041 21.8251 7.84507C22.7671 7.03907 23.8751 5.50007 23.8751 4.00007C23.8751 3.42507 23.2511 3.06007 22.7451 3.35307C21.8601 3.87307 21.0531 4.00907 20.2231 3.77607C18.5281 2.12407 16.0051 1.77607 13.8791 2.92207C12.0211 3.92207 10.9881 5.75207 11.0811 7.75207C7.94211 7.36907 5.04211 5.79507 3.02011 3.34907C2.68811 2.95007 2.05811 2.99707 1.79411 3.44907C0.820114 5.11707 0.830114 7.05008 1.67711 8.61107C1.27411 8.68208 1.02511 9.02107 1.02511 9.38807C1.02511 10.9571 1.73111 12.3991 2.86811 13.3831C2.65611 13.5871 2.58611 13.8901 2.67611 14.1601C3.17611 15.6621 4.30811 16.8361 5.72311 17.4241C4.18411 18.1591 2.48211 18.4041 0.967114 18.2181C0.183114 18.1121 -0.203886 19.1661 0.473114 19.5951ZM8.15611 17.6811C8.71711 17.2501 8.41912 16.3521 7.71511 16.3371C6.47511 16.3111 5.34611 15.7001 4.64311 14.7391C4.98211 14.7171 5.33311 14.6651 5.66711 14.5751C6.42811 14.3691 6.39211 13.2711 5.61911 13.1161C4.21611 12.8341 3.11511 11.8121 2.70211 10.4961C3.07911 10.5891 3.46311 10.6411 3.84611 10.6481C4.60511 10.6521 4.89211 9.67908 4.27311 9.27208C2.87811 8.35308 2.28311 6.73007 2.67711 5.20407C5.11311 7.67207 8.41811 9.15907 11.9141 9.32707C12.4151 9.35807 12.7911 8.88707 12.6811 8.41007C12.2061 6.35107 13.3561 4.90807 14.5911 4.24307C15.8131 3.58307 17.7751 3.37707 19.2791 4.95507C19.7261 5.42607 21.2341 5.44407 22.0011 5.26507C21.6571 5.91307 21.1281 6.52807 20.6331 6.87407C20.4221 7.02207 20.3011 7.26807 20.3141 7.52507C20.4751 10.8101 19.2511 14.0761 16.9561 16.4851C14.6441 18.9121 11.4471 20.2491 7.95211 20.2491C6.56211 20.2491 5.19911 20.0231 3.91111 19.5871C5.45111 19.2891 6.91411 18.6371 8.15611 17.6811Z" fill="#836A5D"/>
</svg>
