<svg width="24" height="25" viewBox="0 0 24 25" fill="none" xmlns="http://www.w3.org/2000/svg">
<path d="M21.2557 11.6636C20.8049 4.27636 3.19199 4.28009 2.74427 11.6637C2.95987 15.2196 7.25008 17.1649 11.9999 17.2414C16.7528 17.164 21.0369 15.2216 21.2557 11.6636ZM12 6.94308C16.647 6.95004 20.4406 9.06328 20.3943 11.7114C17.2157 7.45829 6.78163 7.46057 3.60574 11.7115C3.55899 9.06334 7.3533 6.95 12 6.94308ZM12 16.3842C8.11346 16.3842 4.84457 14.8906 3.89094 12.8725C4.87029 10.8255 8.22968 9.35484 12 9.35484C15.7703 9.35484 19.1297 10.8255 20.1091 12.8725C19.1554 14.8906 15.8865 16.3842 12 16.3842Z" fill="#836A5D"/>
<path d="M12 4C5.38309 4 0 7.91678 0 12.7311C0.620679 24.3046 23.3829 24.2994 24 12.731C24 7.91678 18.6169 4 12 4ZM12 20.605C5.85582 20.605 0.857143 17.0729 0.857143 12.7311C1.43357 2.29355 22.5699 2.29844 23.1429 12.7312C23.1429 17.0729 18.1442 20.605 12 20.605Z" fill="#836A5D"/>
</svg>
