<svg width="32" height="33" viewBox="0 0 32 33" fill="none" xmlns="http://www.w3.org/2000/svg">
<path d="M27.8765 8.38153H25.3346C25.7969 7.55901 25.484 5.29127 25.0629 4.02997C23.6835 -0.0277076 18.2472 4.38439 17.3054 5.21966C16.8988 4.89339 15.8949 5.04816 15.4126 5.01358C15.1589 5.01471 14.9105 5.0859 14.6948 5.2193C13.7613 4.39002 8.31761 -0.0264428 6.93877 4.02513C6.51767 5.28713 6.20169 7.55778 6.66605 8.38152H4.12305C3.72536 8.38196 3.34408 8.54013 3.06287 8.82134C2.78166 9.10255 2.62348 9.48383 2.62305 9.88152V15.1684C2.62305 15.301 2.67574 15.4282 2.7695 15.5219C2.86327 15.6157 2.99044 15.6684 3.12305 15.6684H4.10305V28.8C4.10348 29.1977 4.26166 29.579 4.54287 29.8602C4.82408 30.1414 5.20536 30.2996 5.60305 30.3C8.26659 30.3002 26.3965 30.3 26.3965 30.3C26.7942 30.2996 27.1755 30.1414 27.4567 29.8602C27.7379 29.579 27.8961 29.1977 27.8965 28.8V15.6684H28.8765C29.0091 15.6684 29.1363 15.6157 29.2301 15.5219C29.3238 15.4282 29.3765 15.301 29.3765 15.1684V9.88153C29.3761 9.48384 29.2179 9.10255 28.9367 8.82134C28.6555 8.54013 28.2742 8.38196 27.8765 8.38153ZM18.6223 8.38153C19.9109 7.19649 23.0216 6.5084 24.5283 6.29484C24.6308 7.14874 24.6171 8.20761 23.9743 8.38153H18.6223ZM18.1223 14.6684C18.0853 14.6645 13.9137 14.6712 13.8772 14.6684V9.38154C13.8772 9.38154 17.7172 9.38229 18.1223 9.38154L18.1223 14.6684ZM22.4004 3.35663C23.7393 3.02177 24.1851 4.23419 24.354 5.31155C23.0618 5.4996 19.8124 6.10239 17.978 7.58649C18.0069 7.06214 17.9861 6.53624 17.9158 6.01582C19.22 4.84147 20.7443 3.93761 22.4004 3.35663ZM15.4126 6.01363H16.5869C16.6907 6.01379 16.7901 6.05508 16.8634 6.12844C16.9367 6.20181 16.9779 6.30126 16.978 6.40498V8.38155H15.0215V6.40499C15.0216 6.30126 15.0628 6.20181 15.1361 6.12844C15.2095 6.05507 15.3089 6.01379 15.4126 6.01363ZM7.89919 4.30292C7.99993 3.95225 8.23551 3.65579 8.55435 3.47844C8.87319 3.30109 9.24931 3.25729 9.60037 3.35664C11.256 3.93762 12.7799 4.84122 14.084 6.01514C14.0175 6.53583 13.9966 7.06132 14.0215 7.58564C12.1869 6.10219 8.93843 5.49959 7.64641 5.31154C7.71797 4.98001 7.7993 4.64206 7.89919 4.30292ZM7.47219 6.29462C9.03658 6.5162 11.9312 7.15936 13.4149 8.38153H8.02599C7.38323 8.20761 7.36974 7.14849 7.47219 6.29462ZM3.62306 9.88153C3.62323 9.74898 3.67597 9.6219 3.7697 9.52817C3.86343 9.43444 3.99051 9.3817 4.12306 9.38153H12.8772V14.6684C12.2775 14.6672 3.98225 14.6692 3.62299 14.6684L3.62306 9.88153ZM5.10304 28.8V15.6684H13.5447V29.3H5.60304C5.47049 29.2998 5.34341 29.2471 5.24968 29.1534C5.15595 29.0596 5.10321 28.9325 5.10304 28.8ZM14.5447 29.3V15.6684H17.4549V29.3H14.5447ZM26.8965 28.8C26.8963 28.9325 26.8436 29.0596 26.7499 29.1534C26.6561 29.2471 26.5291 29.2998 26.3965 29.3H18.4549V15.6684H26.8965V28.8ZM28.3765 14.6684C28.0578 14.6703 19.6815 14.667 19.1224 14.6684L19.1224 9.38153H27.8765C28.0091 9.3817 28.1361 9.43444 28.2299 9.52817C28.3236 9.6219 28.3763 9.74898 28.3765 9.88153V14.6684Z" fill="#836A5D"/>
</svg>
