<svg width="24" height="24" viewBox="0 0 24 24" fill="none" xmlns="http://www.w3.org/2000/svg">
<path d="M5.51073 19.8077L3.9665 18.9888L7.60778 17.0577L11.8355 19.2998C11.9386 19.3545 12.0623 19.3545 12.1654 19.2998L13.7216 18.4745C13.8934 18.3834 13.9588 18.1703 13.8677 17.9985C13.7766 17.8267 13.5635 17.7613 13.3917 17.8524L12.0004 18.5903L3.9665 14.3296L6.33317 13.0745C6.50492 12.9834 6.57036 12.7703 6.47925 12.5985C6.38818 12.4267 6.17503 12.3613 6.00327 12.4524L3.05013 14.0186C2.80111 14.1506 2.80088 14.5084 3.05013 14.6406L6.85636 16.6592L3.05013 18.6778C2.80111 18.8098 2.80088 19.1676 3.05013 19.2998L5.18084 20.4297C5.35193 20.5204 5.56528 20.4562 5.65681 20.2837C5.74792 20.1119 5.68249 19.8988 5.51073 19.8077Z" fill="#262523"/>
<path d="M20.9518 14.0186L17.9986 12.4524C17.8267 12.3613 17.6138 12.4267 17.5227 12.5985C17.4315 12.7703 17.497 12.9834 17.6687 13.0745L20.0354 14.3296L14.7523 17.1314C14.5805 17.2225 14.5151 17.4356 14.6062 17.6074C14.6973 17.7793 14.9104 17.8446 15.0822 17.7535L16.3941 17.0577L20.0354 18.9887L12.0014 23.2494L6.87838 20.5325C6.70654 20.4414 6.49352 20.5069 6.40241 20.6786C6.31135 20.8503 6.37674 21.0634 6.54849 21.1546L11.8364 23.9589C11.9395 24.0136 12.0632 24.0137 12.1663 23.9589L20.9517 19.2998C21.2007 19.1677 21.2009 18.8099 20.9517 18.6777L17.1454 16.6591L20.9517 14.6406C21.2007 14.5086 21.201 14.1507 20.9518 14.0186Z" fill="#262523"/>
<path d="M18.2056 8.1157C18.2056 7.88898 18.0005 7.75211 17.8328 7.75211C17.6415 7.75211 17.4805 7.90668 17.4805 8.10397C17.4805 8.33013 17.6847 8.46757 17.8532 8.46757C18.0447 8.46752 18.2056 8.3129 18.2056 8.1157Z" fill="#262523"/>
<path d="M19.6837 8.8998C19.6837 8.65716 19.4436 8.52301 19.286 8.52301C19.0813 8.52301 18.9336 8.69054 18.9336 8.87487C18.9336 9.11751 19.1738 9.25166 19.3313 9.25166C19.5357 9.25166 19.6837 9.08441 19.6837 8.8998Z" fill="#262523"/>
<path d="M20.7645 9.30719C20.5583 9.30719 20.4121 9.47599 20.4121 9.65924C20.4121 9.66295 20.4122 9.6667 20.4123 9.67041C20.4122 9.67412 20.4121 9.67788 20.4121 9.68158C20.4121 9.86751 20.5613 10.0336 20.7646 10.0336C20.9462 10.0335 21.1372 9.88648 21.1372 9.67041C21.1372 9.44496 20.9336 9.30719 20.7645 9.30719Z" fill="#262523"/>
<path d="M17.0392 11.3048C16.8776 11.3048 16.6484 11.4395 16.6484 11.6779C16.6484 11.8634 16.7975 12.0298 17.0009 12.0298C17.1624 12.0298 17.3916 11.895 17.3916 11.6566C17.3916 11.4713 17.2427 11.3048 17.0392 11.3048Z" fill="#262523"/>
<path d="M14.5314 12.6356C14.3702 12.6356 14.1406 12.77 14.1406 13.0087C14.1406 13.1942 14.2897 13.3605 14.4931 13.3605C14.6546 13.3605 14.8838 13.2258 14.8838 12.9874C14.8838 12.802 14.7349 12.6356 14.5314 12.6356Z" fill="#262523"/>
<path d="M15.7853 11.9702C15.6237 11.9702 15.3945 12.1049 15.3945 12.3433C15.3945 12.5288 15.5436 12.6952 15.747 12.6952C15.9085 12.6952 16.1377 12.5604 16.1377 12.322C16.1377 12.1367 15.9888 11.9702 15.7853 11.9702Z" fill="#262523"/>
<path d="M18.2567 11.3644C18.4182 11.3644 18.6475 11.2297 18.6475 10.9913C18.6475 10.8058 18.4985 10.6394 18.2951 10.6394C18.1338 10.6394 17.9043 10.7739 17.9043 11.0126C17.9042 11.198 18.0533 11.3644 18.2567 11.3644Z" fill="#262523"/>
<path d="M13.2756 13.301C13.1138 13.301 12.8848 13.436 12.8848 13.674C12.8848 13.8726 13.0468 14.0259 13.2372 14.0259C13.3985 14.0259 13.628 13.8914 13.628 13.6529C13.628 13.4544 13.4659 13.301 13.2756 13.301Z" fill="#262523"/>
<path d="M19.5106 10.699C19.6722 10.699 19.9014 10.5643 19.9014 10.3259C19.9014 10.1405 19.7523 9.97406 19.549 9.97406C19.3875 9.97406 19.1582 10.1087 19.1582 10.3472C19.1582 10.5326 19.3072 10.699 19.5106 10.699Z" fill="#262523"/>
<path d="M11.627 14.3182C11.627 14.5542 11.8306 14.6363 11.8353 14.6407C12.0727 14.7664 12.3731 14.5845 12.3731 14.3182C12.3731 13.8479 11.627 13.8494 11.627 14.3182Z" fill="#262523"/>
<path d="M5.35352 10.9913C5.35352 11.2199 5.57277 11.3644 5.74429 11.3644C5.93581 11.3644 6.09672 11.2096 6.09672 11.0125C6.09672 10.7741 5.86737 10.6394 5.70585 10.6394C5.51405 10.6394 5.35352 10.7946 5.35352 10.9913Z" fill="#262523"/>
<path d="M10.7254 13.301C10.5203 13.301 10.373 13.4689 10.373 13.6528C10.373 13.8909 10.6019 14.0259 10.7638 14.0259C10.9706 14.0259 11.1162 13.8565 11.1162 13.6741C11.1162 13.4361 10.8876 13.301 10.7254 13.301Z" fill="#262523"/>
<path d="M6.96175 11.3048C6.75663 11.3048 6.60938 11.4728 6.60938 11.6566C6.60938 11.8948 6.83821 12.0298 7.00015 12.0298C7.20697 12.0298 7.35258 11.8603 7.35258 11.6779C7.35258 11.4399 7.12374 11.3048 6.96175 11.3048Z" fill="#262523"/>
<path d="M4.09961 10.3259C4.09961 10.5549 4.3192 10.699 4.49039 10.699C4.6972 10.699 4.84281 10.5295 4.84281 10.3472C4.84281 10.1092 4.61421 9.97406 4.45199 9.97406C4.24681 9.97406 4.09961 10.142 4.09961 10.3259Z" fill="#262523"/>
<path d="M8.21566 11.9702C8.01053 11.9702 7.86328 12.1381 7.86328 12.322C7.86328 12.5602 8.09211 12.6952 8.25406 12.6952C8.46088 12.6952 8.60648 12.5257 8.60648 12.3433C8.60648 12.1054 8.37784 11.9702 8.21566 11.9702Z" fill="#262523"/>
<path d="M9.47152 12.6356C9.26639 12.6356 9.11914 12.8035 9.11914 12.9874C9.11914 13.2256 9.34797 13.3606 9.50992 13.3606C9.71673 13.3606 9.86234 13.1911 9.86234 13.0087C9.86234 12.7806 9.64365 12.6356 9.47152 12.6356Z" fill="#262523"/>
<path d="M3.23594 10.0337C3.44088 10.0337 3.58841 9.86612 3.58841 9.6816C3.58841 9.67789 3.58836 9.67414 3.58822 9.67043C3.58836 9.66672 3.58841 9.66297 3.58841 9.65926C3.58841 9.47333 3.43924 9.30716 3.23599 9.30716C3.06357 9.30716 2.86328 9.44746 2.86328 9.67043C2.86328 9.89851 3.06756 10.0337 3.23594 10.0337Z" fill="#262523"/>
<path d="M4.42474 9.3814C4.58715 9.3814 4.81462 9.2463 4.81462 9.00874C4.81462 8.81107 4.65334 8.65683 4.4622 8.65683C4.29988 8.65683 4.07227 8.79197 4.07227 9.02953C4.07231 9.21438 4.22069 9.3814 4.42474 9.3814Z" fill="#262523"/>
<path d="M5.65125 8.7311C5.81301 8.7311 6.04114 8.59661 6.04114 8.35849C6.04114 8.15998 5.8792 8.00662 5.68881 8.00662C5.52658 8.00662 5.29883 8.14148 5.29883 8.37928C5.29883 8.57816 5.46124 8.7311 5.65125 8.7311Z" fill="#262523"/>
<path d="M3.05013 5.32226L6.90312 7.36561C6.65485 7.3612 6.42527 7.62932 6.56519 7.89345C6.78431 8.30737 7.42875 7.96893 7.20837 7.55286C7.20128 7.53948 7.19325 7.52704 7.1848 7.51497L11.8356 9.98139C11.9386 10.0361 12.0623 10.0361 12.1654 9.98139L20.9508 5.32222C21.1998 5.19017 21.2001 4.83235 20.9508 4.70016L12.1654 0.0410796C12.0623 -0.0136525 11.9387 -0.0136525 11.8355 0.0410796L10.3864 0.80963C10.2146 0.900693 10.1492 1.1138 10.2403 1.2856C10.3314 1.4574 10.5445 1.52284 10.7163 1.43168L12.0005 0.750579L20.0345 5.01128L12.0005 9.27199L3.96645 5.01124L9.35672 2.15263C9.52848 2.06157 9.59391 1.84846 9.5028 1.67666C9.41169 1.50486 9.19872 1.43947 9.02683 1.53058L3.05013 4.70021C2.80111 4.83225 2.80088 5.19013 3.05013 5.32226Z" fill="#262523"/>
</svg>
