<svg width="24" height="24" viewBox="0 0 24 24" fill="none" xmlns="http://www.w3.org/2000/svg">
<g clip-path="url(#clip0_310_1620)">
<path d="M19.1293 14.9197V5.47101C19.1293 5.30357 19.0399 5.14879 18.8949 5.06507L10.7121 0.340778C10.567 0.257013 10.3884 0.257013 10.2433 0.340778L2.06055 5.06507C1.91552 5.14879 1.82617 5.30357 1.82617 5.47101V14.9197C1.82617 15.0871 1.91552 15.2419 2.06055 15.3256L10.2433 20.05C10.3158 20.0919 10.3967 20.1128 10.4777 20.1128C10.5587 20.1128 10.6396 20.0919 10.7121 20.05L18.8949 15.3257C19.0399 15.242 19.1293 15.0872 19.1293 14.9197ZM2.76367 6.28293L4.41541 7.23656C4.48923 7.27917 4.56981 7.29947 4.64936 7.29947C4.81136 7.29947 4.96891 7.21537 5.05577 7.065C5.18519 6.84079 5.10836 6.55411 4.88416 6.42468L3.23242 5.47106L10.4777 1.28798L17.723 5.47101L10.4777 9.65414L8.5382 8.53434C8.31409 8.40497 8.02736 8.4817 7.89789 8.7059C7.76842 8.93011 7.84525 9.21675 8.06945 9.34622L10.009 10.466V18.8322L2.76367 14.6491V6.28293ZM10.9465 18.8322V10.466L18.1918 6.28293V14.6491L10.9465 18.8322Z" fill="#262523"/>
<path d="M23.1996 13.3706L22.7822 13.7881V6.6027L23.1996 7.02012C23.3827 7.20312 23.6795 7.20312 23.8625 7.02012C24.0456 6.83707 24.0456 6.54026 23.8625 6.35716L22.6449 5.13954C22.4618 4.95654 22.1651 4.95654 21.9819 5.13954L20.7643 6.35716C20.5812 6.54021 20.5812 6.83702 20.7643 7.02012C20.8558 7.11162 20.9758 7.15741 21.0957 7.15741C21.2157 7.15741 21.3356 7.11162 21.4272 7.02012L21.8446 6.60274V13.7881L21.4272 13.3707C21.2441 13.1877 20.9474 13.1877 20.7642 13.3707C20.5812 13.5537 20.5812 13.8506 20.7642 14.0336L21.9819 15.2513C22.0734 15.3428 22.1934 15.3886 22.3133 15.3886C22.4333 15.3886 22.5532 15.3428 22.6448 15.2513L23.8624 14.0336C24.0455 13.8506 24.0455 13.5538 23.8624 13.3707C23.6795 13.1877 23.3828 13.1876 23.1996 13.3706Z" fill="#262523"/>
<path d="M20.6088 17.6304L18.9456 17.1847C18.6954 17.1176 18.4385 17.2661 18.3714 17.5161C18.3044 17.7662 18.4528 18.0232 18.7028 18.0902L19.273 18.243L13.0503 21.8358L13.2031 21.2655C13.2702 21.0155 13.1218 20.7585 12.8717 20.6914C12.6215 20.6244 12.3646 20.7728 12.2976 21.0229L11.8519 22.6862C11.8197 22.8063 11.8366 22.9342 11.8987 23.0418C11.9609 23.1495 12.0633 23.2281 12.1834 23.2602L13.8467 23.7059C13.8873 23.7168 13.9281 23.7221 13.9683 23.7221C14.1752 23.722 14.3647 23.5839 14.4208 23.3745C14.4878 23.1244 14.3394 22.8674 14.0893 22.8004L13.5191 22.6476L19.7418 19.0549L19.589 19.6251C19.522 19.8752 19.6704 20.1322 19.9205 20.1992C19.9611 20.2101 20.0019 20.2153 20.0421 20.2153C20.2491 20.2153 20.4384 20.0772 20.4945 19.8678L20.9402 18.2045C21.0073 17.9545 20.8589 17.6974 20.6088 17.6304Z" fill="#262523"/>
<path d="M8.6587 21.0229C8.59172 20.7728 8.3347 20.6243 8.08462 20.6914C7.83455 20.7585 7.68614 21.0154 7.75317 21.2655L7.90594 21.8357L1.68323 18.243L2.25342 18.0902C2.50345 18.0232 2.65186 17.7661 2.58488 17.5161C2.51789 17.2661 2.26102 17.1175 2.01075 17.1847L0.347438 17.6303C0.227344 17.6626 0.124969 17.7411 0.0628126 17.8487C0.000656387 17.9564 -0.0162186 18.0843 0.0159845 18.2044L0.461672 19.8677C0.517781 20.0771 0.707156 20.2153 0.914156 20.2153C0.954281 20.2153 0.995156 20.2101 1.0358 20.1991C1.28583 20.1321 1.43423 19.8751 1.36725 19.6251L1.21448 19.0549L7.43719 22.6476L6.867 22.8004C6.61697 22.8674 6.46856 23.1244 6.53555 23.3745C6.59166 23.5839 6.78103 23.722 6.98803 23.722C7.02816 23.722 7.06903 23.7168 7.10967 23.7059L8.77294 23.2602C9.02297 23.1932 9.17137 22.9362 9.10439 22.6861L8.6587 21.0229Z" fill="#262523"/>
<path d="M6.4767 7.41675H6.47638C6.21748 7.41675 6.00781 7.62665 6.00781 7.8855C6.00781 8.14434 6.21781 8.35425 6.4767 8.35425C6.73559 8.35425 6.94545 8.14434 6.94545 7.8855C6.94545 7.62665 6.73559 7.41675 6.4767 7.41675Z" fill="#262523"/>
</g>
<defs>
<clipPath id="clip0_310_1620">
<rect width="24" height="24" fill="white"/>
</clipPath>
</defs>
</svg>
