<svg width="26" height="26" viewBox="0 0 26 26" fill="none" xmlns="http://www.w3.org/2000/svg">
<path d="M6.30476 10.397C6.84092 10.397 7.27556 9.96241 7.27556 9.42625C7.27556 8.89011 6.84092 8.45547 6.30476 8.45547C5.76862 8.45547 5.33398 8.89011 5.33398 9.42625C5.33398 9.96241 5.76862 10.397 6.30476 10.397Z" fill="white"/>
<path d="M3.66218 13.3811C4.19834 13.3811 4.63298 12.9465 4.63298 12.4103C4.63298 11.8742 4.19834 11.4395 3.66218 11.4395C3.12605 11.4395 2.69141 11.8742 2.69141 12.4103C2.69141 12.9465 3.12605 13.3811 3.66218 13.3811Z" fill="white"/>
<path fill-rule="evenodd" clip-rule="evenodd" d="M20.4511 3.05889C19.3523 2.48974 18.0001 2.91912 17.431 4.01793L14.9452 8.81716C14.9318 8.84288 14.9203 8.86909 14.9106 8.89559C13.693 8.85383 12.4868 9.39172 11.6733 10.3438C10.7149 11.4655 9.5357 12.6896 8.52807 13.3147C7.0915 14.2058 5.90387 14.527 5.16635 14.641C4.73501 14.7077 4.3849 14.9854 4.21436 15.3455C4.03622 15.7217 4.04964 16.2146 4.39583 16.5961C5.14841 17.4254 6.61568 18.7838 9.30691 20.4954C11.1709 21.681 12.8421 22.3366 13.7416 22.6404C14.4309 22.8732 15.1675 22.607 15.563 22.0146C16.063 21.2657 16.9413 19.8534 17.6953 18.1349C18.2531 16.8635 18.7337 15.5532 19.1936 14.2451C19.5816 13.1416 19.4071 11.9776 18.8172 11.0575L21.4078 6.0835C21.9804 4.98422 21.5517 3.62894 20.4511 3.05889ZM17.8402 10.0321L20.2192 5.4644C20.4493 5.02265 20.277 4.47801 19.8347 4.24894C19.3931 4.02022 18.8497 4.19278 18.621 4.63435L16.2596 9.19345C16.3386 9.227 16.4171 9.26345 16.4948 9.30288L17.3578 9.74038C17.5277 9.82654 17.6887 9.92425 17.8402 10.0321ZM17.9293 13.8005C17.8338 14.0721 17.7331 14.3546 17.6288 14.6422L12.1902 11.7882C12.3653 11.593 12.5333 11.4004 12.6922 11.2144C13.5017 10.2671 14.8304 9.96156 15.8888 10.4982L16.7517 10.9357C17.8148 11.4748 18.3175 12.6962 17.9293 13.8005ZM9.23457 14.4535C9.89586 14.0433 10.5859 13.4438 11.2334 12.7995L11.2421 12.8042L17.1566 15.908C16.9291 16.4996 16.6953 17.0784 16.468 17.5964C15.756 19.2191 14.9225 20.5604 14.4484 21.2704C14.3809 21.3716 14.2711 21.4047 14.1704 21.3707C13.7748 21.2371 13.2097 21.0269 12.5361 20.722C12.8487 20.3924 13.3023 19.8534 13.7369 19.1129C13.9247 18.793 13.8162 18.3868 13.4945 18.2057C13.1728 18.0246 12.7597 18.1372 12.5719 18.4572C12.2226 19.0524 11.7959 19.6386 11.2727 20.0959C10.8737 19.8806 10.4554 19.6376 10.0261 19.3646C9.67712 19.1426 9.35026 18.9273 9.04431 18.7192C9.20351 18.6122 9.37807 18.4809 9.56547 18.3202C9.84732 18.0785 9.87531 17.6607 9.62799 17.387C9.38068 17.1132 8.95173 17.0873 8.6699 17.329C8.25508 17.6848 7.96539 17.8201 7.84861 17.8658C6.78155 17.064 6.06663 16.4058 5.60395 15.9258C6.50034 15.7591 7.76658 15.3642 9.23457 14.4535Z" fill="white"/>
</svg>
