<svg width="32" height="33" viewBox="0 0 32 33" fill="none" xmlns="http://www.w3.org/2000/svg">
<path d="M25.4308 15.1575V8.41405C25.4308 6.81134 24.1184 5.48758 22.5156 5.48758H22.1525V5.03045C22.1525 3.88694 21.2255 2.95991 20.0819 2.95991C18.9384 2.95991 18.0114 3.88694 18.0114 5.03045V5.48758H10.4194V5.03045C10.4194 3.87106 9.47952 2.93115 8.32013 2.93115C7.16075 2.93115 6.22084 3.87106 6.22084 5.03045V5.48758H5.90709C4.30432 5.48758 3 6.81134 3 8.41405V23.8985C3 25.5012 4.30432 26.8256 5.90709 26.8256H15.0286C16.5325 28.6245 18.7553 29.6654 21.1 29.6689C25.4538 29.6689 29.0005 26.1215 29.0005 21.7675C29.0006 19.0079 27.5589 16.5697 25.4308 15.1575ZM19.1617 5.03045C19.1528 4.52949 19.5517 4.11619 20.0527 4.10733C20.0607 4.10722 20.0688 4.10716 20.0768 4.10722C20.5825 4.10187 20.9968 4.50746 21.0022 5.01319C21.0022 5.01894 21.0022 5.0247 21.0022 5.03045V7.27054H19.1617V5.03045ZM7.37114 5.03045C7.3766 4.51506 7.79887 4.1017 8.31427 4.10716C8.31519 4.10716 8.31605 4.10716 8.31691 4.10722C8.8342 4.10722 9.26913 4.51322 9.26913 5.03045V7.27054H7.37114V5.03045ZM4.1503 8.41405C4.1503 7.44556 4.9386 6.63788 5.90709 6.63788H6.22084V7.86962C6.22084 8.18721 6.4861 8.42084 6.80375 8.42084H9.83019C10.1478 8.42084 10.4194 8.18721 10.4194 7.86962V6.63788H18.0114V7.86962C18.0029 8.16553 18.2359 8.41233 18.5318 8.42084C18.5424 8.42113 18.553 8.42113 18.5635 8.42084H21.59C21.8905 8.43085 22.1422 8.19532 22.1522 7.89481C22.1525 7.88641 22.1526 7.87801 22.1525 7.86962V6.63788H22.5156C23.4906 6.64771 24.2768 7.439 24.2805 8.41405V10.2613H4.1503V8.41405ZM5.90709 25.6753C4.9386 25.6753 4.1503 24.8669 4.1503 23.8985V11.4116H24.2805V14.532C23.2794 14.0924 22.1977 13.8657 21.1043 13.8661C16.7504 13.8661 13.206 17.4186 13.206 21.7726C13.2038 23.1405 13.5573 24.4854 14.232 25.6753H5.90709ZM21.1 28.5083C17.3743 28.5083 14.354 25.4881 14.354 21.7624C14.354 18.0366 17.3743 15.0164 21.1 15.0164C24.8257 15.0164 27.8459 18.0366 27.8459 21.7624V21.7624C27.8417 25.4863 24.8239 28.5041 21.1 28.5083Z" fill="#836A5D"/>
<path d="M23.8087 21.7643H21.289V18.3036C21.289 17.9859 21.0315 17.7285 20.7138 17.7285C20.3962 17.7285 20.1387 17.9859 20.1387 18.3036V22.3389C20.1437 22.6587 20.4047 22.9152 20.7246 22.9146H23.8087C24.1264 22.9146 24.3838 22.6571 24.3838 22.3394C24.3838 22.0218 24.1264 21.7643 23.8087 21.7643Z" fill="#836A5D"/>
</svg>
