<svg width="22" height="28" viewBox="0 0 22 28" fill="none" xmlns="http://www.w3.org/2000/svg">
<g clip-path="url(#clip0_3011_6067)">
<path d="M15.8183 8C13.8638 8.00302 12.0328 8.95633 10.9092 10.5556C9.7856 8.95633 7.95462 8.00302 6.00005 8C2.80365 8 0 10.9739 0 14.3637C0 17.6673 1.86543 21.0699 5.39493 24.2038C7.03025 25.653 8.82412 26.9128 10.7423 27.9595C10.847 28.0135 10.9713 28.0135 11.0761 27.9595C12.9935 26.9128 14.7869 25.6529 16.4217 24.2038C19.9529 21.0699 21.8184 17.6673 21.8184 14.3637C21.8184 10.9739 19.0147 8 15.8183 8ZM10.9092 27.223C9.57359 26.486 0.727279 21.3368 0.727279 14.3637C0.727279 11.3612 3.1909 8.72728 6.00005 8.72728C7.90312 8.73065 9.6574 9.7573 10.5924 11.415C10.6624 11.5219 10.7815 11.5861 10.9092 11.5861C11.0369 11.5861 11.156 11.5219 11.226 11.415C12.161 9.7573 13.9152 8.73065 15.8183 8.72728C18.6275 8.72728 21.0911 11.3612 21.0911 14.3637C21.0911 21.3368 12.2448 26.486 10.9092 27.223Z" fill="#262523"/>
</g>
<defs>
<clipPath id="clip0_3011_6067">
<rect width="21.8184" height="28" fill="white"/>
</clipPath>
</defs>
</svg>
