<svg width="20" height="28" viewBox="0 0 20 28" fill="none" xmlns="http://www.w3.org/2000/svg">
<g clip-path="url(#clip0_3011_4522)">
<path d="M19.9884 21.655L16.2376 9.30874C16.1908 9.15246 16.0345 9.05869 15.8782 9.08995L12.3775 9.7307C12.018 8.55859 10.799 7.80844 9.5488 8.04286C8.29854 8.26166 7.439 9.40251 7.50151 10.6371L4.00081 11.2779C3.89141 11.2935 3.79764 11.3873 3.76638 11.4967L0.0156281 23.8429C0 23.8742 0 23.9054 0 23.9367C0 26.1715 1.82849 28 4.06332 28C6.29814 28 8.12664 26.1715 8.12664 23.9367C8.12664 23.9054 8.12664 23.8742 8.11101 23.8429L4.46965 11.8405L7.62653 11.2623C7.95473 12.2937 8.92367 12.997 10.002 12.997C10.1427 12.997 10.2989 12.9814 10.4552 12.9501C11.7055 12.7157 12.565 11.5905 12.5025 10.3558L15.5031 9.79321L11.9086 21.655C11.8774 21.6862 11.8774 21.7175 11.8774 21.7487C11.8774 23.9836 13.7059 25.8121 15.9407 25.8121C18.1755 25.8121 20.004 23.9836 20.004 21.7487C20.004 21.7175 20.004 21.6862 19.9884 21.655ZM4.06332 27.3749C2.26608 27.3749 0.797035 25.9996 0.640754 24.2492H7.48588C7.3296 25.9996 5.86055 27.3749 4.06332 27.3749ZM2.68804 23.6241C2.82869 22.999 3.39131 22.5302 4.06332 22.5302C4.73533 22.5302 5.29794 22.999 5.43859 23.6241H2.68804ZM7.39211 23.6241H6.06372C5.90744 22.6552 5.07915 21.905 4.06332 21.905C3.04749 21.905 2.20357 22.6552 2.06292 23.6241H0.734523L4.06332 12.6688L7.39211 23.6241ZM10.3458 12.3406C9.33 12.5281 8.34543 11.8561 8.15789 10.8247C8.06412 10.3246 8.17352 9.8401 8.45483 9.41814C8.73613 9.01181 9.17372 8.7305 9.65819 8.63673C9.78322 8.63673 9.89262 8.6211 10.002 8.6211C10.8928 8.6211 11.6742 9.26186 11.8461 10.1527C12.0337 11.1841 11.3617 12.1531 10.3458 12.3406ZM15.9407 10.4809L19.2695 21.4362H18.0661L16.1751 19.5452C16.0501 19.4202 15.8626 19.4202 15.7375 19.5452L13.8153 21.4362H12.6119L15.9407 10.4809ZM17.1753 21.4362H14.7061L15.9407 20.2016L17.1753 21.4362ZM15.9407 25.1869C14.1435 25.1869 12.6744 23.8117 12.5181 22.0613H19.3633C19.207 23.8117 17.7379 25.1869 15.9407 25.1869Z" fill="#262523"/>
</g>
<defs>
<clipPath id="clip0_3011_4522">
<rect width="20.004" height="28" fill="white"/>
</clipPath>
</defs>
</svg>
