<svg width="32" height="25" viewBox="0 0 32 25" fill="none" xmlns="http://www.w3.org/2000/svg">
<g clip-path="url(#clip0_3011_15482)">
<path d="M28.341 11.0182C27.7399 1.16846 4.25598 1.17344 3.65902 11.0183C3.94649 15.7594 9.66678 18.3532 15.9999 18.4553C22.337 18.352 28.0491 15.7621 28.341 11.0182ZM16 4.72409C22.1959 4.73337 27.2542 7.55103 27.1924 11.0819C22.9542 5.41104 9.04217 5.41408 4.80766 11.082C4.74533 7.55111 9.8044 4.73333 16 4.72409ZM16 17.3123C10.8179 17.3123 6.45943 15.3208 5.18792 12.6299C6.49371 9.90061 10.9729 7.93977 16 7.93977C21.0271 7.93977 25.5063 9.90061 26.8121 12.6299C25.5406 15.3208 21.1821 17.3123 16 17.3123Z" fill="#DCCAC1"/>
<path d="M16 0.799988C7.17746 0.799988 0 6.02237 0 12.4414C0.827572 27.8728 31.1771 27.8659 32 12.4413C32 6.02237 24.8225 0.799988 16 0.799988ZM16 22.9401C7.80775 22.9401 1.14286 18.2305 1.14286 12.4414C1.91143 -1.47528 30.0931 -1.46876 30.8571 12.4415C30.8571 18.2305 24.1922 22.9401 16 22.9401Z" fill="#DCCAC1"/>
</g>
<defs>
<clipPath id="clip0_3011_15482">
<rect width="32" height="23.2124" fill="white" transform="translate(0 0.799988)"/>
</clipPath>
</defs>
</svg>
