<svg width="18" height="28" viewBox="0 0 18 28" fill="none" xmlns="http://www.w3.org/2000/svg">
<g clip-path="url(#clip0_3011_10774)">
<path d="M15.956 13.3382C15.9408 13.2221 15.8836 13.1155 15.7953 13.0387C15.7069 12.9618 15.5935 12.9199 15.4764 12.9209H12.8337V11.9617C12.8337 10.911 12.4163 9.90335 11.6734 9.1604C10.9304 8.41745 9.92277 8.00006 8.87208 8.00006C7.82139 8.00006 6.81373 8.41745 6.07078 9.1604C5.32783 9.90335 4.91044 10.911 4.91044 11.9617V12.9209H2.26296C2.14586 12.9199 2.03244 12.9618 1.94409 13.0387C1.85574 13.1155 1.79857 13.2221 1.78335 13.3382L0.00396997 26.8346C-0.00508514 26.9045 0.0013951 26.9756 0.0229492 27.0428C0.0445034 27.1099 0.0806011 27.1715 0.12867 27.2231C0.330109 27.4389 0.550732 27.6595 0.79054 27.8754C0.878501 27.9553 0.993017 27.9998 1.11188 28.0001H16.6323C16.7511 27.9998 16.8656 27.9553 16.9536 27.8754C17.1886 27.6595 17.4332 27.4389 17.6155 27.2231C17.6635 27.1715 17.6996 27.1099 17.7212 27.0428C17.7428 26.9756 17.7492 26.9045 17.7402 26.8346L15.956 13.3382ZM5.88407 11.9521C5.88407 11.1558 6.20039 10.3921 6.76345 9.82908C7.32651 9.26602 8.09018 8.9497 8.88646 8.9497C9.68275 8.9497 10.4464 9.26602 11.0095 9.82908C11.5725 10.3921 11.8889 11.1558 11.8889 11.9521V12.9113H5.86968L5.88407 11.9521ZM16.4356 27.0408H1.29893L0.982387 26.7339L2.68023 13.8802H15.0591L16.757 26.7339L16.4356 27.0408Z" fill="#262523"/>
</g>
<defs>
<clipPath id="clip0_3011_10774">
<rect width="17.7442" height="28.0001" fill="white"/>
</clipPath>
</defs>
</svg>
