<svg width="33" height="33" viewBox="0 0 33 33" fill="none" xmlns="http://www.w3.org/2000/svg">
<rect x="1" y="0.799988" width="31" height="31" rx="1.5" stroke="#836A5D"/>
<path d="M16.2747 6.41775L9.9785 7.93564C9.18134 8.12782 8.58226 8.78712 8.46707 9.59898L7.53905 16.1397C7.51314 16.3223 7.51262 16.5076 7.5375 16.6904L8.45976 23.4652C8.57766 24.3313 9.2443 25.0205 10.106 25.1671L16.4135 26.2405C16.6448 26.2798 16.8812 26.2782 17.112 26.2356L22.8315 25.18C23.6721 25.0249 24.3212 24.3526 24.4468 23.5071L25.4554 16.7149C25.485 16.5161 25.4844 16.3139 25.4536 16.1152L24.4376 9.55105C24.3157 8.76357 23.738 8.12358 22.967 7.92202L17.2493 6.42709C16.9302 6.34365 16.5953 6.34044 16.2747 6.41775Z" stroke="#836A5D"/>
<path d="M3.62105 26.6602L2.02881 30.1432C1.83995 30.5563 2.25536 30.9869 2.675 30.813L6.5835 29.193C6.68584 29.1506 6.7712 29.0754 6.82617 28.9792L8.81283 25.5025C9.04507 25.0961 8.64145 24.6219 8.20314 24.7863L3.90023 26.3999C3.77641 26.4463 3.67603 26.5399 3.62105 26.6602Z" stroke="#836A5D"/>
<path d="M29.3789 26.6602L30.9712 30.1432C31.16 30.5563 30.7446 30.9869 30.325 30.813L26.4165 29.193C26.3142 29.1506 26.2288 29.0754 26.1738 28.9792L24.1872 25.5025C23.9549 25.0961 24.3586 24.6219 24.7969 24.7863L29.0998 26.3999C29.2236 26.4463 29.324 26.5399 29.3789 26.6602Z" stroke="#836A5D"/>
<path d="M3.62105 5.93981L2.02881 2.45677C1.83995 2.04363 2.25536 1.61306 2.675 1.78699L6.5835 3.40697C6.68584 3.44939 6.7712 3.52461 6.82617 3.6208L8.81283 7.09746C9.04507 7.50389 8.64145 7.97806 8.20314 7.81369L3.90023 6.20009C3.77641 6.15366 3.67603 6.06007 3.62105 5.93981Z" stroke="#836A5D"/>
<path d="M29.3789 5.93981L30.9712 2.45677C31.16 2.04363 30.7446 1.61306 30.325 1.78699L26.4165 3.40697C26.3142 3.44939 26.2288 3.52461 26.1738 3.6208L24.1872 7.09746C23.9549 7.50389 24.3586 7.97806 24.7969 7.81369L29.0998 6.20009C29.2236 6.15366 29.324 6.06007 29.3789 5.93981Z" stroke="#836A5D"/>
</svg>
