<svg width="33" height="40" viewBox="0 0 33 40" fill="none" xmlns="http://www.w3.org/2000/svg">
<path d="M9.10539 14.6689C8.57072 11.3272 11.1521 8.29999 14.5363 8.29999H18.4637C21.8479 8.29999 24.4293 11.3272 23.8946 14.6689L23.158 19.273C23.0491 19.9533 23.0491 20.6466 23.158 21.3269L23.8946 25.931C24.4293 29.2728 21.8479 32.3 18.4637 32.3H14.5363C11.1521 32.3 8.57072 29.2728 9.10539 25.931L9.84205 21.3269C9.9509 20.6466 9.9509 19.9533 9.84205 19.273L9.10539 14.6689Z" stroke="#836A5D"/>
<path d="M3 3.79999L10 11.3" stroke="#836A5D"/>
<path d="M30 3.79999L23 11.3" stroke="#836A5D"/>
<path d="M3 36.8L10 29.8" stroke="#836A5D"/>
<path d="M30 36.8L23 29.8" stroke="#836A5D"/>
<path d="M1 6.72372C1 6.02855 1.28945 5.36477 1.79887 4.89174L4.94751 1.968C5.40992 1.53862 6.0176 1.29999 6.64863 1.29999H26.6651C27.2961 1.29999 27.9038 1.53862 28.3662 1.968L31.2011 4.60042C31.7105 5.07345 32 5.73723 32 6.43241V33.5303C32 34.2255 31.7105 34.8893 31.2011 35.3623L27.2618 39.0203C27.1764 39.0995 27.1183 39.1965 27.0872 39.3H6.22647C6.19546 39.1965 6.13729 39.0995 6.05195 39.0203L1.79887 35.071C1.28946 34.5979 1 33.9342 1 33.239V6.72372Z" stroke="#836A5D"/>
</svg>
