<svg width="35" height="43" viewBox="0 0 35 43" fill="none" xmlns="http://www.w3.org/2000/svg">
<path fill-rule="evenodd" clip-rule="evenodd" d="M24.5519 1.81661C20.2469 0.817872 15.7745 0.782579 11.4543 1.71326L6.88368 2.69788C4.9 3.12522 3.37132 4.70906 3.01454 6.70664L1.41573 15.6582C0.809777 19.0509 0.79295 22.5227 1.36599 25.9211L3.05024 35.9095C3.38579 37.8995 4.88477 39.4927 6.85066 39.9488L10.4481 40.7834C14.7531 41.7821 19.2255 41.8174 23.5457 40.8867L28.1163 39.9021C30.1 39.4748 31.6287 37.8909 31.9855 35.8933L33.5843 26.9418C34.1902 23.5491 34.2071 20.0773 33.634 16.6789L31.9498 6.69048C31.6142 4.70047 30.1152 3.10728 28.1493 2.6512L24.5519 1.81661Z" stroke="#836A5D"/>
<path d="M16.145 10.986C16.9968 10.5547 18.0032 10.5547 18.855 10.986L22.7709 12.9685C23.4715 13.3231 24.0051 13.9384 24.2572 14.6821L26.1737 20.3371C26.3853 20.9616 26.3853 21.6384 26.1737 22.2629L24.2572 27.9179C24.0051 28.6616 23.4715 29.2768 22.7709 29.6315L18.855 31.614C18.0032 32.0453 16.9968 32.0453 16.145 31.614L12.2291 29.6315C11.5285 29.2768 10.9949 28.6616 10.7428 27.9179L8.82633 22.2629C8.61469 21.6384 8.61469 20.9616 8.82633 20.3371L10.7428 14.6821C10.9949 13.9384 11.5285 13.3231 12.2291 12.9685L16.145 10.986Z" stroke="#836A5D"/>
<path d="M31 4.29999L24 13.8" stroke="#836A5D"/>
<path d="M4.5 4.29999L11.5 13.8" stroke="#836A5D"/>
<path d="M31 38.8L24 29.3" stroke="#836A5D"/>
<path d="M4.5 38.8L11.5 29.3" stroke="#836A5D"/>
</svg>
