<svg width="27" height="39" viewBox="0 0 27 39" fill="none" xmlns="http://www.w3.org/2000/svg">
<path d="M13.5001 37.8078L2.80399 19.1787C0.0393271 14.3636 0.832892 8.29475 4.74268 4.35239C9.56747 -0.512605 17.4327 -0.512604 22.2575 4.35239C26.1673 8.29476 26.9608 14.3636 24.1962 19.1787L13.5001 37.8078Z" stroke="#836A5D"/>
<path d="M18.9415 13.3673L19.4188 13.2183L18.9415 13.3673C18.9681 13.4525 18.9714 13.5432 18.951 13.6301L16.9941 21.9932C16.9741 22.0785 16.9321 22.157 16.8723 22.221L13.625 25.6902C13.4275 25.9013 13.0925 25.9013 12.895 25.6902L9.12236 21.6597L8.75731 22.0014L9.12235 21.6597C9.06421 21.5976 9.02288 21.5216 9.00228 21.4391L7.06521 13.6784C7.03921 13.5742 7.04744 13.4644 7.08868 13.3653L8.8714 9.07988C8.92561 8.94958 9.03235 8.84825 9.1653 8.80091L13.0923 7.40242C13.2007 7.36378 13.3193 7.36378 13.4277 7.40242L17.3019 8.78209C17.4499 8.83482 17.5646 8.95413 17.6114 9.10419L18.9415 13.3673Z" stroke="#836A5D"/>
<path d="M6 3.31192L9 8.81192" stroke="#836A5D"/>
<path d="M13.5 0.81192V7.31192" stroke="#836A5D"/>
<path d="M1.5 13.3119H7" stroke="#836A5D"/>
<path d="M5.5 23.8119C5.9 23.4119 8 22.3119 9 21.8119" stroke="#836A5D"/>
<path d="M20.5 3.31192L17.5 8.81192" stroke="#836A5D"/>
<path d="M18.498 13.9369H25.513" stroke="#836A5D"/>
<path d="M21 23.8119C20.6 23.4119 18.5 22.3119 17.5 21.8119" stroke="#836A5D"/>
</svg>
