<svg width="24" height="24" viewBox="0 0 24 24" fill="none" xmlns="http://www.w3.org/2000/svg">
<path d="M13.6039 16.9091C13.3585 16.932 13.1122 16.8766 12.9002 16.7509C12.7454 16.5919 12.6711 16.3712 12.6984 16.1509C12.7042 15.9676 12.726 15.785 12.7639 15.6055C12.8005 15.3995 12.8478 15.1956 12.9057 14.9946L13.5493 12.78C13.6157 12.5614 13.6596 12.3366 13.6802 12.1091C13.6802 11.8636 13.7129 11.6945 13.7129 11.5964C13.7266 11.1589 13.5398 10.7391 13.2057 10.4564C12.7946 10.1408 12.2827 9.98569 11.7657 10.02C11.3951 10.0256 11.0274 10.0862 10.6747 10.2C10.2893 10.32 9.88382 10.4636 9.45839 10.6309L9.27295 11.3509C9.39839 11.3073 9.55115 11.2582 9.72567 11.2036C9.89217 11.1543 10.0648 11.1286 10.2384 11.1273C10.4819 11.1009 10.7271 11.1607 10.9311 11.2964C11.0697 11.4617 11.1347 11.6765 11.1111 11.8909C11.1105 12.0743 11.0904 12.2572 11.0511 12.4364C11.0129 12.6273 10.9638 12.8291 10.9038 13.0418L10.2547 15.2672C10.2024 15.4741 10.1606 15.6834 10.1293 15.8945C10.1038 16.0752 10.0911 16.2575 10.0911 16.44C10.0884 16.8804 10.2899 17.2973 10.6365 17.569C11.0539 17.8895 11.5731 18.0484 12.0983 18.0163C12.4682 18.0239 12.8368 17.9705 13.1893 17.8581C13.4984 17.7526 13.9111 17.6018 14.4275 17.4054L14.602 16.7181C14.4622 16.7761 14.3181 16.8235 14.1711 16.8599C13.9852 16.9024 13.7943 16.9189 13.6039 16.9091Z" fill="#262523"/>
<path d="M14.2855 6.40915C13.9887 6.13653 13.5976 5.98985 13.1946 6.00007C12.7919 5.99098 12.4012 6.13751 12.1037 6.40915C11.5585 6.87931 11.4976 7.70248 11.9678 8.24778C12.0097 8.29639 12.0551 8.34181 12.1037 8.38371C12.7249 8.93932 13.6644 8.93932 14.2855 8.38371C14.8307 7.90892 14.8879 7.08204 14.4131 6.53679C14.3736 6.49137 14.331 6.44871 14.2855 6.40915Z" fill="#262523"/>
<path d="M12 6.10352e-05C5.37258 6.10352e-05 0 5.37264 0 12.0001C0 18.6275 5.37258 24.0001 12 24.0001C18.6274 24.0001 24 18.6275 24 12.0001C24 5.37264 18.6274 6.10352e-05 12 6.10352e-05ZM12 22.9091C5.97506 22.9091 1.09092 18.025 1.09092 12.0001C1.09092 5.97512 5.97506 1.09098 12 1.09098C18.0249 1.09098 22.9091 5.97512 22.9091 12.0001C22.9091 18.025 18.0249 22.9091 12 22.9091Z" fill="#262523"/>
</svg>
