<svg width="29" height="40" viewBox="0 0 29 40" fill="none" xmlns="http://www.w3.org/2000/svg">
<path d="M2.36524 28.5907L1.00667 20.3L2.36524 12.0093L6.14689 5.4043L11.5369 1.78889H17.4631L22.8531 5.4043L26.6348 12.0093L27.9933 20.3L26.6348 28.5907L22.8531 35.1957L17.4631 38.8111H11.5369L6.14689 35.1957L2.36524 28.5907Z" stroke="#836A5D"/>
<path d="M8.671 24.2481L8.00702 20.3L8.671 16.3519L10.5073 13.227L13.0913 11.5382H15.9087L18.4927 13.227L20.329 16.3519L20.993 20.3L20.329 24.2481L18.4927 27.373L15.9087 29.0618H13.0913L10.5073 27.373L8.671 24.2481Z" stroke="#836A5D"/>
<path d="M11.5 2.29999L13 11.3" stroke="#836A5D"/>
<path d="M17.5 1.79999L16 11.3" stroke="#836A5D"/>
<path d="M11.5 38.8L13 28.8" stroke="#836A5D"/>
<path d="M17.5 38.8L16 28.8" stroke="#836A5D"/>
<path d="M6 5.29999L10.5 13.3" stroke="#836A5D"/>
<path d="M2.5 11.8L8.5 16.3" stroke="#836A5D"/>
<path d="M1 20.3H8" stroke="#836A5D"/>
<path d="M2.5 28.8L8.5 24.3" stroke="#836A5D"/>
<path d="M6 35.3L10.5 27.3" stroke="#836A5D"/>
<path d="M23 5.29999L18.5 13.3" stroke="#836A5D"/>
<path d="M26.5 11.8L20.5 16.3" stroke="#836A5D"/>
<path d="M28 20.3H21" stroke="#836A5D"/>
<path d="M26.5 28.8L20.5 24.3" stroke="#836A5D"/>
<path d="M23 35.3L18.5 27.3" stroke="#836A5D"/>
</svg>
