<svg width="35" height="35" viewBox="0 0 35 35" fill="none" xmlns="http://www.w3.org/2000/svg">
<path fill-rule="evenodd" clip-rule="evenodd" d="M24.5519 1.81661C20.2469 0.817872 15.7745 0.782579 11.4543 1.71326L6.70517 2.73634C4.81234 3.1441 3.32509 4.60806 2.8875 6.49423L2.01663 10.2481C1.01788 14.553 0.982591 19.0255 1.91328 23.3457L2.93635 28.0948C3.34412 29.9877 4.80808 31.4749 6.69424 31.9125L10.4481 32.7834C14.7531 33.7821 19.2255 33.8174 23.5457 32.8867L28.2948 31.8636C30.1877 31.4559 31.6749 29.9919 32.1125 28.1057L32.9834 24.3519C33.9821 20.0469 34.0174 15.5745 33.0867 11.2543L32.0636 6.50516C31.6559 4.61232 30.1919 3.12507 28.3058 2.68749L24.5519 1.81661Z" stroke="#836A5D"/>
<path d="M16.352 8.77553C17.087 8.47104 17.913 8.47104 18.6481 8.77553L22.7159 10.4605C23.451 10.765 24.035 11.349 24.3395 12.0841L26.0245 16.1519C26.3289 16.887 26.3289 17.713 26.0245 18.448L24.3395 22.5159C24.035 23.251 23.451 23.835 22.7159 24.1395L18.648 25.8245C17.913 26.1289 17.087 26.1289 16.3519 25.8244L12.2841 24.1395C11.549 23.835 10.965 23.251 10.6605 22.5159L8.97554 18.448C8.67106 17.713 8.67106 16.887 8.97554 16.1519L10.6605 12.0841C10.965 11.349 11.549 10.765 12.2841 10.4605L16.352 8.77553Z" stroke="#836A5D"/>
<path d="M4.5 4.29999L11.5 11.3" stroke="#836A5D"/>
<path d="M30.5 4.29999L23.5 11.3" stroke="#836A5D"/>
<path d="M4.5 30.3L11.5 23.3" stroke="#836A5D"/>
<path d="M30.5 30.3L23.5 23.3" stroke="#836A5D"/>
</svg>
