<svg width="36" height="34" viewBox="0 0 36 34" fill="none" xmlns="http://www.w3.org/2000/svg">
<path d="M20.1481 5.39662L25.2841 2.50762C26.3495 1.90831 27.6505 1.90831 28.7159 2.50763L33.7159 5.32013C34.818 5.94004 35.5 7.10618 35.5 8.37064V17.0178C35.5 18.0952 35.0038 19.1125 34.1548 19.7759L20.1548 30.7133C18.8886 31.7026 17.1114 31.7026 15.8452 30.7134L1.84525 19.7759C0.99622 19.1125 0.5 18.0952 0.5 17.0178V8.29601C0.5 7.06659 1.14505 5.92732 2.19926 5.29479L6.75965 2.55856C7.8106 1.92799 9.11482 1.89308 10.198 2.46652L15.8364 5.45158C17.1894 6.16787 18.8138 6.14717 20.1481 5.39662Z" stroke="#836A5D" stroke-miterlimit="10" stroke-linecap="round"/>
<path d="M17.538 13.1127L9.57228 9.12989C9.22341 8.95546 8.80495 8.99979 8.50038 9.24345L6.5628 10.7935C6.32559 10.9833 6.1875 11.2706 6.1875 11.5744V16.786C6.1875 17.0981 6.33321 17.3923 6.58146 17.5814L17.394 25.8195C17.752 26.0923 18.248 26.0923 18.606 25.8195L29.4185 17.5814C29.6668 17.3923 29.8125 17.0981 29.8125 16.786V11.6289C29.8125 11.2946 29.6454 10.9823 29.3672 10.7969L26.9351 9.17549C26.6287 8.9712 26.2348 8.95187 25.9098 9.12518L18.4558 13.1007C18.1699 13.2532 17.8278 13.2577 17.538 13.1127Z" stroke="#836A5D" stroke-miterlimit="10" stroke-linecap="round"/>
<path d="M18 5.46875L18 13.3437" stroke="#836A5D" stroke-miterlimit="10"/>
<path d="M18 25.7188V31.3437" stroke="#836A5D" stroke-miterlimit="10"/>
<path d="M8.4375 2.09375L9 8.84375" stroke="#836A5D" stroke-miterlimit="10"/>
<path d="M0.5625 6.59375L6.1875 11.0938" stroke="#836A5D" stroke-miterlimit="10"/>
<path d="M0.5625 18.9688L6.1875 17.2812" stroke="#836A5D" stroke-miterlimit="10"/>
<path d="M27 2.09375L26.4375 8.84375" stroke="#836A5D" stroke-miterlimit="10"/>
<path d="M34.875 6.59375L29.8125 11.0938" stroke="#836A5D" stroke-miterlimit="10"/>
<path d="M34.875 18.9688L29.8125 17.2812" stroke="#836A5D" stroke-miterlimit="10"/>
</svg>
