<svg width="37" height="33" viewBox="0 0 37 33" fill="none" xmlns="http://www.w3.org/2000/svg">
<path d="M20.6481 4.69661L25.7841 1.80761C26.8495 1.2083 28.1505 1.2083 29.2159 1.80761L34.2159 4.62011C35.318 5.24003 36 6.40617 36 7.67063V16.3178C36 17.3952 35.5038 18.4125 34.6548 19.0758L20.6548 30.0133C19.3886 31.0026 17.6114 31.0026 16.3452 30.0133L2.34525 19.0758C1.49622 18.4125 1 17.3952 1 16.3178V7.596C1 6.36658 1.64505 5.22731 2.69926 4.59477L7.25965 1.85854C8.3106 1.22797 9.61482 1.19306 10.698 1.76651L16.3364 4.75156C17.6894 5.46786 19.3138 5.44715 20.6481 4.69661Z" stroke="#836A5D" stroke-miterlimit="10" stroke-linecap="round"/>
<path d="M18.038 12.4127L10.0723 8.42988C9.72341 8.25544 9.30495 8.29977 9.00038 8.54344L7.0628 10.0935C6.82559 10.2833 6.6875 10.5706 6.6875 10.8744V16.086C6.6875 16.3981 6.83321 16.6923 7.08146 16.8814L17.894 25.1195C18.252 25.3922 18.748 25.3922 19.106 25.1195L29.9185 16.8814C30.1668 16.6923 30.3125 16.3981 30.3125 16.086V10.9289C30.3125 10.5946 30.1454 10.2823 29.8672 10.0969L27.4351 8.47547C27.1287 8.27119 26.7348 8.25186 26.4098 8.42517L18.9558 12.4007C18.6699 12.5531 18.3278 12.5576 18.038 12.4127Z" stroke="#836A5D" stroke-miterlimit="10" stroke-linecap="round"/>
<path d="M18.5 4.76874L18.5 12.6437" stroke="#836A5D" stroke-miterlimit="10"/>
<path d="M18.5 25.0187V30.6437" stroke="#836A5D" stroke-miterlimit="10"/>
<path d="M8.9375 1.39374L9.5 8.14374" stroke="#836A5D" stroke-miterlimit="10"/>
<path d="M1.0625 5.89374L6.6875 10.3937" stroke="#836A5D" stroke-miterlimit="10"/>
<path d="M1.0625 18.2687L6.6875 16.5812" stroke="#836A5D" stroke-miterlimit="10"/>
<path d="M27.5 1.39374L26.9375 8.14374" stroke="#836A5D" stroke-miterlimit="10"/>
<path d="M35.375 5.89374L30.3125 10.3937" stroke="#836A5D" stroke-miterlimit="10"/>
<path d="M35.375 18.2687L30.3125 16.5812" stroke="#836A5D" stroke-miterlimit="10"/>
</svg>
