<svg width="33" height="40" viewBox="0 0 33 40" fill="none" xmlns="http://www.w3.org/2000/svg">
<path d="M1 6.88305C1 6.18788 1.28945 5.5241 1.79887 5.05107L4.94751 2.12734C5.40992 1.69795 6.0176 1.45932 6.64863 1.45932H26.6651C27.2961 1.45932 27.9038 1.69795 28.3662 2.12734L31.2011 4.75975C31.7105 5.23279 32 5.89657 32 6.59174V33.6896C32 34.3848 31.7105 35.0486 31.2011 35.5216L28.0231 38.4727C27.5607 38.9021 26.953 39.1407 26.3219 39.1407H6.99178C6.36075 39.1407 5.75306 38.9021 5.29065 38.4727L1.79887 35.2303C1.28946 34.7573 1 34.0935 1 33.3983V6.88305Z" stroke="#836A5D"/>
<path d="M8 12.1285C8 11.4934 8.24167 10.8822 8.67596 10.4189L9.7718 9.24968C10.2444 8.74542 10.9047 8.45932 11.5958 8.45932H21.5806C22.2717 8.45932 22.932 8.74542 23.4047 9.24968L24.324 10.2306C24.7583 10.6939 25 11.3052 25 11.9402V28.7725C25 29.4075 24.7583 30.0188 24.324 30.4821L23.2116 31.669C22.739 32.1732 22.0787 32.4593 21.3876 32.4593H11.7889C11.0977 32.4593 10.4375 32.1732 9.96482 31.669L8.67596 30.2938C8.24168 29.8305 8 29.2193 8 28.5842V12.1285Z" stroke="#836A5D"/>
<path d="M6 1.45932L10.5 8.45932" stroke="#836A5D"/>
<path d="M1.5 5.98654L8 11.4593" stroke="#836A5D"/>
<path d="M27 1.45932L22.5 8.45932" stroke="#836A5D"/>
<path d="M31.5 5.98654L25 11.4593" stroke="#836A5D"/>
<path d="M6 39.4629L10.5 32.4629" stroke="#836A5D"/>
<path d="M1.5 34.9357L8 29.4629" stroke="#836A5D"/>
<path d="M27 39.4629L22.5 32.4629" stroke="#836A5D"/>
<path d="M31.5 34.9357L25 29.4629" stroke="#836A5D"/>
</svg>
