<svg width="32" height="32" viewBox="0 0 32 32" fill="none" xmlns="http://www.w3.org/2000/svg">
<rect x="0.5" y="0.5" width="31" height="31" rx="1.5" stroke="#836A5D"/>
<path d="M15.7747 6.11777L9.4785 7.63565C8.68134 7.82783 8.08226 8.48713 7.96707 9.29899L7.03905 15.8397C7.01314 16.0223 7.01262 16.2076 7.0375 16.3904L7.95976 23.1652C8.07766 24.0313 8.7443 24.7205 9.60596 24.8671L15.9135 25.9405C16.1448 25.9799 16.3812 25.9782 16.612 25.9356L22.3315 24.8801C23.1721 24.7249 23.8212 24.0526 23.9468 23.2071L24.9554 16.4149C24.985 16.2161 24.9844 16.0139 24.9536 15.8152L23.9376 9.25107C23.8157 8.46358 23.238 7.82359 22.467 7.62203L16.7493 6.1271C16.4302 6.04366 16.0953 6.04046 15.7747 6.11777Z" stroke="#836A5D"/>
<path d="M3.12105 26.3602L1.52881 29.8432C1.33995 30.2564 1.75536 30.6869 2.175 30.513L6.0835 28.893C6.18584 28.8506 6.2712 28.7754 6.32617 28.6792L8.31283 25.2025C8.54507 24.7961 8.14145 24.3219 7.70314 24.4863L3.40023 26.0999C3.27641 26.1463 3.17603 26.2399 3.12105 26.3602Z" stroke="#836A5D"/>
<path d="M28.8789 26.3602L30.4712 29.8432C30.66 30.2564 30.2446 30.6869 29.825 30.513L25.9165 28.893C25.8142 28.8506 25.7288 28.7754 25.6738 28.6792L23.6872 25.2025C23.4549 24.7961 23.8586 24.3219 24.2969 24.4863L28.5998 26.0999C28.7236 26.1463 28.824 26.2399 28.8789 26.3602Z" stroke="#836A5D"/>
<path d="M3.12105 5.63982L1.52881 2.15678C1.33995 1.74365 1.75536 1.31308 2.175 1.48701L6.0835 3.10698C6.18584 3.1494 6.2712 3.22462 6.32617 3.32081L8.31283 6.79747C8.54507 7.2039 8.14145 7.67807 7.70314 7.5137L3.40023 5.9001C3.27641 5.85367 3.17603 5.76008 3.12105 5.63982Z" stroke="#836A5D"/>
<path d="M28.8789 5.63982L30.4712 2.15678C30.66 1.74365 30.2446 1.31308 29.825 1.48701L25.9165 3.10698C25.8142 3.1494 25.7288 3.22462 25.6738 3.32081L23.6872 6.79747C23.4549 7.2039 23.8586 7.67807 24.2969 7.5137L28.5998 5.9001C28.7236 5.85367 28.824 5.76008 28.8789 5.63982Z" stroke="#836A5D"/>
</svg>
