<svg width="24" height="24" viewBox="0 0 24 24" fill="none" xmlns="http://www.w3.org/2000/svg">
<path d="M13.6034 16.9091C13.358 16.9319 13.1117 16.8766 12.8997 16.7509C12.7449 16.5919 12.6706 16.3711 12.6979 16.1509C12.7037 15.9675 12.7256 15.785 12.7634 15.6054C12.8 15.3995 12.8473 15.1956 12.9052 14.9945L13.5488 12.7799C13.6152 12.5614 13.6591 12.3366 13.6797 12.109C13.6797 11.8636 13.7125 11.6945 13.7125 11.5963C13.7261 11.1588 13.5394 10.739 13.2052 10.4563C12.7941 10.1407 12.2823 9.98563 11.7652 10.0199C11.3946 10.0255 11.0269 10.0862 10.6743 10.1999C10.2888 10.3199 9.88334 10.4636 9.4579 10.6309L9.27246 11.3509C9.3979 11.3072 9.55066 11.2581 9.72518 11.2036C9.89168 11.1543 10.0643 11.1285 10.2379 11.1272C10.4815 11.1008 10.7266 11.1606 10.9306 11.2963C11.0692 11.4616 11.1342 11.6764 11.1106 11.8909C11.11 12.0743 11.0899 12.2571 11.0506 12.4363C11.0124 12.6272 10.9633 12.829 10.9033 13.0417L10.2543 15.2672C10.2019 15.474 10.1601 15.6834 10.1288 15.8945C10.1033 16.0752 10.0906 16.2574 10.0906 16.4399C10.0879 16.8804 10.2894 17.2973 10.6361 17.569C11.0534 17.8895 11.5726 18.0483 12.0979 18.0163C12.4677 18.0238 12.8363 17.9704 13.1888 17.8581C13.4979 17.7526 13.9106 17.6017 14.427 17.4053L14.6015 16.7181C14.4617 16.7761 14.3176 16.8235 14.1706 16.8598C13.9847 16.9023 13.7938 16.9188 13.6034 16.9091Z" fill="white"/>
<path d="M14.2855 6.40909C13.9887 6.13647 13.5976 5.98979 13.1946 6.00001C12.7919 5.99092 12.4012 6.13745 12.1037 6.40909C11.5585 6.87925 11.4976 7.70242 11.9678 8.24772C12.0097 8.29632 12.0551 8.34175 12.1037 8.38365C12.7249 8.93926 13.6644 8.93926 14.2855 8.38365C14.8307 7.90886 14.8879 7.08198 14.4131 6.53673C14.3736 6.49131 14.331 6.44865 14.2855 6.40909Z" fill="white"/>
<path d="M12 0C5.37258 0 0 5.37258 0 12C0 18.6274 5.37258 24 12 24C18.6274 24 24 18.6274 24 12C24 5.37258 18.6274 0 12 0ZM12 22.9091C5.97506 22.9091 1.09092 18.0249 1.09092 12C1.09092 5.97506 5.97506 1.09092 12 1.09092C18.0249 1.09092 22.9091 5.97506 22.9091 12C22.9091 18.0249 18.0249 22.9091 12 22.9091Z" fill="white"/>
</svg>
