<svg width="61" height="47" viewBox="0 0 61 47" fill="none" xmlns="http://www.w3.org/2000/svg">
<path d="M30.4663 0.825273C30.4863 0.81029 30.5137 0.810289 30.5337 0.825272V0.825272C45.5169 12.0626 45.5169 34.5373 30.5337 45.7747V45.7747C30.5137 45.7897 30.4863 45.7897 30.4663 45.7747V45.7747C15.4831 34.5373 15.4831 12.0626 30.4663 0.825273V0.825273Z" stroke="#836A5D"/>
<path d="M30.474 9.82505C30.4885 9.81106 30.5115 9.81106 30.526 9.82505V9.82505C38.1601 17.1865 38.1601 29.4135 30.526 36.7749V36.7749C30.5115 36.7889 30.4885 36.7889 30.474 36.7749V36.7749C22.8399 29.4135 22.8399 17.1865 30.474 9.82505V9.82505Z" stroke="#836A5D"/>
<line x1="30.5" y1="0.799988" x2="30.5" y2="9.79999" stroke="#836A5D"/>
<line x1="30.5" y1="36.8" x2="30.5" y2="45.8" stroke="#836A5D"/>
<line x1="20.8123" y1="13.4096" x2="25.8123" y2="17.4096" stroke="#836A5D"/>
<line y1="-0.5" x2="6.40312" y2="-0.5" transform="matrix(-0.780869 0.624695 0.624695 0.780869 40.5 13.8)" stroke="#836A5D"/>
<line y1="-0.5" x2="6.40312" y2="-0.5" transform="matrix(0.780869 -0.624695 -0.624695 -0.780869 20.5 32.8)" stroke="#836A5D"/>
<line x1="40.1877" y1="33.1904" x2="35.1877" y2="29.1904" stroke="#836A5D"/>
</svg>
