<svg width="27" height="46" viewBox="0 0 27 46" fill="none" xmlns="http://www.w3.org/2000/svg">
<path d="M9.96578 4.3316C11.9181 2.38072 15.0819 2.38072 17.0342 4.3316L23.2926 10.5853C24.231 11.5231 24.7583 12.7954 24.7583 14.1221V32.4778C24.7583 33.8046 24.231 35.0769 23.2926 36.0147L17.0342 42.2684C15.0819 44.2193 11.9181 44.2193 9.96577 42.2684L3.70744 36.0147C2.76896 35.0769 2.24167 33.8046 2.24167 32.4778V14.1221C2.24167 12.7954 2.76896 11.5231 3.70744 10.5853L9.96578 4.3316Z" stroke="#836A5D"/>
<path d="M12.012 11.4568C12.8067 10.572 14.1933 10.572 14.988 11.4568L19.0502 15.9799C19.3798 16.3469 19.5622 16.8229 19.5622 17.3163V29.2837C19.5622 29.7771 19.3798 30.253 19.0502 30.6201L14.988 35.1432C14.1933 36.028 12.8067 36.028 12.012 35.1432L7.94983 30.6201C7.62017 30.253 7.43782 29.7771 7.43782 29.2837V17.3163C7.43782 16.8229 7.62017 16.3469 7.94983 15.9799L12.012 11.4568Z" stroke="#836A5D"/>
<line x1="13.5" y1="2.79999" x2="13.5" y2="10.8" stroke="#836A5D"/>
<line x1="13.5" y1="35.8" x2="13.5" y2="43.8" stroke="#836A5D"/>
<line x1="2.85355" y1="11.4464" x2="7.85355" y2="16.4464" stroke="#836A5D"/>
<line y1="-0.5" x2="7.07107" y2="-0.5" transform="matrix(-0.707107 0.707107 0.707107 0.707107 24.5 11.8)" stroke="#836A5D"/>
<line y1="-0.5" x2="7.07107" y2="-0.5" transform="matrix(0.707107 -0.707107 -0.707107 -0.707107 2.5 34.8)" stroke="#836A5D"/>
<line x1="24.1464" y1="35.1535" x2="19.1464" y2="30.1535" stroke="#836A5D"/>
</svg>
