<svg width="22" height="20" viewBox="0 0 22 20" fill="none" xmlns="http://www.w3.org/2000/svg">
<path d="M15.8748 6.10352e-05C13.9339 0.00307953 12.1156 0.956391 10.9998 2.55566C9.88406 0.956391 8.06581 0.00307953 6.12484 6.10352e-05C2.95066 6.10352e-05 0.166504 2.97399 0.166504 6.36375C0.166504 9.66741 2.01896 13.07 5.52393 16.2039C7.14787 17.6531 8.92927 18.9129 10.8341 19.9596C10.9381 20.0136 11.0615 20.0136 11.1656 19.9596C13.0697 18.9129 14.8506 17.6529 16.474 16.2039C19.9807 13.07 21.8332 9.66741 21.8332 6.36375C21.8332 2.97399 19.049 6.10352e-05 15.8748 6.10352e-05ZM10.9998 19.2231C9.67353 18.486 0.888726 13.3368 0.888726 6.36375C0.888726 3.36124 3.33522 0.72734 6.12484 0.72734C8.01467 0.730714 9.75675 1.75736 10.6853 3.41504C10.7547 3.52193 10.8731 3.58621 10.9998 3.58621C11.1266 3.58621 11.2449 3.52193 11.3144 3.41504C12.2429 1.75736 13.985 0.730714 15.8748 0.72734C18.6645 0.72734 21.1109 3.36124 21.1109 6.36375C21.1109 13.3368 12.3261 18.486 10.9998 19.2231Z" fill="#836A5D"/>
</svg>
