<svg width="40" height="41" viewBox="0 0 40 41" fill="none" xmlns="http://www.w3.org/2000/svg">
<path d="M25.85 8.29999C23.5208 8.30361 21.3389 9.44758 20 11.3667C18.6611 9.44758 16.4792 8.30361 14.15 8.29999C10.341 8.29999 7 11.8687 7 15.9364C7 19.9008 9.22295 23.9839 13.4289 27.7446C15.3776 29.4836 17.5153 30.9954 19.8011 32.2514C19.9259 32.3162 20.0741 32.3162 20.1989 32.2514C22.4838 30.9954 24.6209 29.4834 26.569 27.7446C30.7771 23.9839 33 19.9008 33 15.9364C33 11.8687 29.659 8.29999 25.85 8.29999ZM20 31.3676C18.4084 30.4831 7.86667 24.3041 7.86667 15.9364C7.86667 12.3334 10.8025 9.17272 14.15 9.17272C16.4178 9.17677 18.5083 10.4087 19.6225 12.398C19.7059 12.5262 19.8479 12.6034 20 12.6034C20.1521 12.6034 20.2941 12.5262 20.3775 12.398C21.4917 10.4087 23.5822 9.17677 25.85 9.17272C29.1975 9.17272 32.1333 12.3334 32.1333 15.9364C32.1333 24.3041 21.5916 30.4831 20 31.3676Z" fill="#262523"/>
</svg>
