<svg width="40" height="41" viewBox="0 0 40 41" fill="none" xmlns="http://www.w3.org/2000/svg">
<path d="M21.6044 25.2091C21.359 25.2319 21.1127 25.1766 20.9007 25.0509C20.7458 24.8919 20.6716 24.6711 20.6989 24.4509C20.7046 24.2675 20.7265 24.085 20.7644 23.9054C20.801 23.6995 20.8483 23.4956 20.9062 23.2945L21.5498 21.0799C21.6162 20.8614 21.66 20.6366 21.6807 20.409C21.6807 20.1636 21.7134 19.9945 21.7134 19.8963C21.7271 19.4588 21.5403 19.039 21.2062 18.7563C20.7951 18.4407 20.2832 18.2856 19.7662 18.3199C19.3956 18.3255 19.0279 18.3862 18.6752 18.4999C18.2898 18.6199 17.8843 18.7636 17.4589 18.9309L17.2734 19.6509C17.3989 19.6072 17.5516 19.5581 17.7262 19.5036C17.8927 19.4543 18.0653 19.4285 18.2389 19.4272C18.4824 19.4008 18.7276 19.4606 18.9316 19.5963C19.0702 19.7616 19.1352 19.9764 19.1116 20.1909C19.111 20.3743 19.0909 20.5571 19.0516 20.7363C19.0134 20.9272 18.9643 21.129 18.9043 21.3417L18.2552 23.5672C18.2029 23.774 18.1611 23.9834 18.1298 24.1945C18.1043 24.3752 18.0915 24.5574 18.0916 24.7399C18.0889 25.1804 18.2903 25.5973 18.637 25.869C19.0544 26.1895 19.5736 26.3483 20.0988 26.3163C20.4687 26.3239 20.8373 26.2704 21.1898 26.1581C21.4988 26.0526 21.9116 25.9017 22.428 25.7053L22.6025 25.0181C22.4626 25.0761 22.3186 25.1235 22.1716 25.1599C21.9857 25.2023 21.7948 25.2188 21.6044 25.2091Z" fill="#262523"/>
<path d="M22.2846 14.7091C21.9877 14.4364 21.5966 14.2898 21.1936 14.3C20.7909 14.2909 20.4002 14.4374 20.1027 14.7091C19.5575 15.1792 19.4966 16.0024 19.9668 16.5477C20.0087 16.5963 20.0541 16.6417 20.1027 16.6836C20.7239 17.2392 21.6634 17.2392 22.2845 16.6836C22.8298 16.2088 22.8869 15.382 22.4121 14.8367C22.3726 14.7913 22.33 14.7486 22.2846 14.7091Z" fill="#262523"/>
<path d="M20 8.29999C13.3726 8.29999 8 13.6726 8 20.3C8 26.9274 13.3726 32.3 20 32.3C26.6274 32.3 32 26.9274 32 20.3C32 13.6726 26.6274 8.29999 20 8.29999ZM20 31.2091C13.9751 31.2091 9.09092 26.3249 9.09092 20.3C9.09092 14.2751 13.9751 9.39091 20 9.39091C26.0249 9.39091 30.9091 14.2751 30.9091 20.3C30.9091 26.3249 26.0249 31.2091 20 31.2091Z" fill="#262523"/>
</svg>
