<svg width="128" height="28" viewBox="0 0 128 28" fill="none" xmlns="http://www.w3.org/2000/svg">
<path d="M116.303 27.3L119.215 19.306L119.271 21.658L112.677 5.46002H116.191L120.867 17.444H119.971L124.521 5.46002H127.895L119.467 27.3H116.303Z" fill="#836A5D"/>
<path d="M103.597 20.58V5.45998H106.579V9.14198L106.215 8.66598C106.401 8.16198 106.649 7.70465 106.957 7.29398C107.274 6.87398 107.652 6.52865 108.091 6.25798C108.464 6.00598 108.875 5.80998 109.323 5.66998C109.78 5.52065 110.247 5.43198 110.723 5.40398C111.199 5.36665 111.661 5.38532 112.109 5.45998V8.60998C111.661 8.47931 111.143 8.43732 110.555 8.48398C109.976 8.53065 109.453 8.69398 108.987 8.97398C108.52 9.22598 108.137 9.54798 107.839 9.93998C107.549 10.332 107.335 10.78 107.195 11.284C107.055 11.7786 106.985 12.3153 106.985 12.894V20.58H103.597Z" fill="#836A5D"/>
<path d="M93.627 21C92.0963 21 90.7523 20.6686 89.595 20.006C88.4376 19.3433 87.5323 18.424 86.879 17.248C86.235 16.072 85.913 14.7186 85.913 13.188C85.913 11.536 86.2303 10.1033 86.865 8.88998C87.4996 7.66731 88.3816 6.71998 89.511 6.04798C90.6403 5.37598 91.947 5.03998 93.431 5.03998C94.999 5.03998 96.329 5.40864 97.421 6.14598C98.5223 6.87398 99.339 7.90531 99.871 9.23998C100.403 10.5746 100.604 12.1473 100.473 13.958H97.127V12.726C97.1176 11.0833 96.8283 9.88398 96.259 9.12798C95.6896 8.37198 94.7936 7.99398 93.571 7.99398C92.1896 7.99398 91.163 8.42331 90.491 9.28198C89.819 10.1313 89.483 11.3773 89.483 13.02C89.483 14.5506 89.819 15.736 90.491 16.576C91.163 17.416 92.143 17.836 93.431 17.836C94.2616 17.836 94.9756 17.654 95.573 17.29C96.1796 16.9166 96.6463 16.38 96.973 15.68L100.305 16.688C99.7263 18.0506 98.8303 19.11 97.617 19.866C96.413 20.622 95.083 21 93.627 21ZM88.419 13.958V11.41H98.821V13.958H88.419Z" fill="#836A5D"/>
<path d="M79.1853 20.58V0H82.5593V20.58H79.1853Z" fill="#836A5D"/>
<path d="M71.3376 20.58V0H74.7116V20.58H71.3376Z" fill="#836A5D"/>
<path d="M61.0879 21C59.5572 21 58.2132 20.6686 57.0559 20.006C55.8986 19.3433 54.9932 18.424 54.3399 17.248C53.6959 16.072 53.3739 14.7186 53.3739 13.188C53.3739 11.536 53.6912 10.1033 54.3259 8.88998C54.9606 7.66731 55.8426 6.71998 56.9719 6.04798C58.1012 5.37598 59.4079 5.03998 60.8919 5.03998C62.4599 5.03998 63.7899 5.40864 64.8819 6.14598C65.9832 6.87398 66.7999 7.90531 67.3319 9.23998C67.8639 10.5746 68.0646 12.1473 67.9339 13.958H64.5879V12.726C64.5786 11.0833 64.2892 9.88398 63.7199 9.12798C63.1506 8.37198 62.2546 7.99398 61.0319 7.99398C59.6506 7.99398 58.6239 8.42331 57.9519 9.28198C57.2799 10.1313 56.9439 11.3773 56.9439 13.02C56.9439 14.5506 57.2799 15.736 57.9519 16.576C58.6239 17.416 59.6039 17.836 60.8919 17.836C61.7226 17.836 62.4366 17.654 63.0339 17.29C63.6406 16.9166 64.1072 16.38 64.4339 15.68L67.7659 16.688C67.1872 18.0506 66.2912 19.11 65.0779 19.866C63.8739 20.622 62.5439 21 61.0879 21ZM55.8799 13.958V11.41H66.2819V13.958H55.8799Z" fill="#836A5D"/>
<path d="M35.5042 20.58L30.8842 5.43201L34.1882 5.46001L37.1422 15.162L40.1382 5.46001H42.9802L45.9622 15.162L48.9302 5.46001H52.2342L47.6142 20.58H44.9822L41.5522 10.178L38.1362 20.58H35.5042Z" fill="#836A5D"/>
<path d="M22.8613 21C21.3307 21 19.9867 20.6686 18.8293 20.006C17.672 19.3433 16.7667 18.424 16.1133 17.248C15.4693 16.072 15.1473 14.7186 15.1473 13.188C15.1473 11.536 15.4647 10.1033 16.0993 8.88998C16.734 7.66731 17.616 6.71998 18.7453 6.04798C19.8747 5.37598 21.1813 5.03998 22.6653 5.03998C24.2333 5.03998 25.5633 5.40864 26.6553 6.14598C27.7567 6.87398 28.5733 7.90531 29.1053 9.23998C29.6373 10.5746 29.838 12.1473 29.7073 13.958H26.3613V12.726C26.352 11.0833 26.0627 9.88398 25.4933 9.12798C24.924 8.37198 24.028 7.99398 22.8053 7.99398C21.424 7.99398 20.3973 8.42331 19.7253 9.28198C19.0533 10.1313 18.7173 11.3773 18.7173 13.02C18.7173 14.5506 19.0533 15.736 19.7253 16.576C20.3973 17.416 21.3773 17.836 22.6653 17.836C23.496 17.836 24.21 17.654 24.8073 17.29C25.414 16.9166 25.8807 16.38 26.2073 15.68L29.5393 16.688C28.9607 18.0506 28.0647 19.11 26.8513 19.866C25.6473 20.622 24.3173 21 22.8613 21ZM17.6533 13.958V11.41H28.0553V13.958H17.6533Z" fill="#836A5D"/>
<path d="M5.992 21C4.452 21 3.16867 20.5986 2.142 19.796C1.12467 18.9933 0.410667 17.9107 0 16.548L3.332 15.75C3.43467 16.3193 3.73333 16.8093 4.228 17.22C4.72267 17.6306 5.26867 17.836 5.866 17.836C6.258 17.836 6.67333 17.7333 7.112 17.528C7.55067 17.3133 7.87733 16.9727 8.092 16.506C8.22267 16.2073 8.29733 15.8526 8.316 15.442C8.344 15.022 8.358 14.5367 8.358 13.986V0.419983H11.774V13.986C11.774 14.6113 11.7693 15.162 11.76 15.638C11.76 16.1047 11.7133 16.548 11.62 16.968C11.536 17.3787 11.3633 17.8033 11.102 18.242C10.5513 19.194 9.83267 19.894 8.946 20.342C8.05933 20.7807 7.07467 21 5.992 21Z" fill="#836A5D"/>
</svg>
