<svg xmlns="http://www.w3.org/2000/svg" data-name="Layer 1" viewBox="0 0 100 125" x="0px" y="0px"><path d="M82.15,30.25H78.24V24.67a4,4,0,0,0-4-4H71.14V17.47a6,6,0,0,0-6-6H34.89a6,6,0,0,0-6,6v3.18H25.78a4,4,0,0,0-4,4v5.58H17.85A7.86,7.86,0,0,0,10,38.1V63.05a7.86,7.86,0,0,0,7.85,7.85h11V82.53a6,6,0,0,0,6,6H65.11a6,6,0,0,0,6-6V70.9h11A7.86,7.86,0,0,0,90,63.05V38.1A7.86,7.86,0,0,0,82.15,30.25Zm-11-6.6h3.08a1,1,0,0,1,1,1v5.58h-4.1ZM31.86,17.47a3,3,0,0,1,3-3H65.11a3,3,0,0,1,3,3V30.25H31.86Zm-7.1,7.2a1,1,0,0,1,1-1h3.08v6.6h-4.1ZM68.14,82.53a3,3,0,0,1-3,3H34.89a3,3,0,0,1-3-3V57H68.14ZM87,63.05a4.86,4.86,0,0,1-4.85,4.85h-11V57h5a1.5,1.5,0,0,0,0-3H23.85a1.5,1.5,0,0,0,0,3h5V67.9h-11A4.86,4.86,0,0,1,13,63.05V38.1a4.86,4.86,0,0,1,4.85-4.85h64.3A4.86,4.86,0,0,1,87,38.1Z"/><path d="M39,64.91H61a1.5,1.5,0,1,0,0-3H39a1.5,1.5,0,1,0,0,3Z"/><path d="M39,72.79H61a1.5,1.5,0,0,0,0-3H39a1.5,1.5,0,0,0,0,3Z"/><path d="M39,80.68H61a1.5,1.5,0,1,0,0-3H39a1.5,1.5,0,1,0,0,3Z"/><path d="M20.54,37.55H19a1.5,1.5,0,0,0,0,3h1.5a1.5,1.5,0,0,0,0-3Z"/></svg>