<svg width="21" height="21" viewBox="0 0 21 21" fill="none" xmlns="http://www.w3.org/2000/svg">
<path fill-rule="evenodd" clip-rule="evenodd" d="M0.625 1.54999C0.625 0.859632 1.18464 0.299988 1.875 0.299988H19.375C20.0654 0.299988 20.625 0.859632 20.625 1.54999V19.05C20.625 19.7403 20.0654 20.3 19.375 20.3H1.875C1.18464 20.3 0.625 19.7403 0.625 19.05V1.54999ZM2.10412 0.940682C2.09023 0.934926 2.07635 0.929699 2.06248 0.924988H19.1875C19.1737 0.929699 19.1598 0.934926 19.1459 0.940682L16.7031 1.95317C16.5751 2.00619 16.4684 2.10021 16.3997 2.22045L15.1581 4.39336C15.0593 4.56618 15.0525 4.74879 15.1081 4.90644C14.9955 4.84403 14.8741 4.79496 14.7458 4.76142L11.1722 3.82709C10.9229 3.7619 10.6613 3.7594 10.4108 3.81979L6.47571 4.76847C6.36084 4.79617 6.25122 4.83628 6.14828 4.88726C6.19677 4.73408 6.18671 4.55921 6.09194 4.39336L4.85028 2.22045C4.78157 2.10021 4.67487 2.00619 4.54693 1.95317L2.10412 0.940682ZM15.5895 5.321C15.7465 5.52516 15.8537 5.76893 15.8947 6.0341L16.5297 10.1367C16.5537 10.2919 16.5542 10.4499 16.5312 10.6052L15.9007 14.8503C15.8785 14.9997 15.8354 15.1422 15.7744 15.2747C15.8223 15.2809 15.871 15.2929 15.9202 15.3113L18.6095 16.3198C18.7643 16.3779 18.8897 16.4948 18.9585 16.6452L19.9536 18.8221C19.9752 18.8693 19.9905 18.9167 20 18.9637V1.63627C19.9905 1.68327 19.9752 1.73068 19.9536 1.7779L18.9585 3.9548C18.8897 4.10513 18.7643 4.22212 18.6095 4.28016L15.9202 5.28866C15.8058 5.33155 15.6933 5.33966 15.5895 5.321ZM5.32983 5.28866C5.42543 5.32451 5.51971 5.33605 5.60868 5.32799C5.44478 5.53859 5.33406 5.79199 5.2949 6.06796L4.7149 10.1559C4.69465 10.2986 4.69424 10.4434 4.71368 10.5861L5.2901 14.8204C5.31236 14.9839 5.35965 15.1394 5.42809 15.2827C5.3956 15.2895 5.3628 15.299 5.32983 15.3113L2.64051 16.3198C2.48574 16.3779 2.36026 16.4948 2.29154 16.6452L1.29639 18.8221C1.2748 18.8693 1.25953 18.9167 1.25 18.9637V1.63627C1.25953 1.68327 1.2748 1.73068 1.29639 1.7779L2.29154 3.9548C2.36026 4.10513 2.48574 4.22212 2.64051 4.28016L5.32983 5.28866ZM15.083 16.0035C14.946 16.0757 14.7967 16.1282 14.6388 16.1573L11.0641 16.8171C10.8838 16.8503 10.6991 16.8516 10.5184 16.8209L6.57619 16.15C6.43071 16.1252 6.29236 16.0807 6.16391 16.0192C6.15075 16.0819 6.12721 16.1449 6.09194 16.2066L4.85028 18.3795C4.78157 18.4998 4.67487 18.5938 4.54693 18.6468L2.10412 19.6593C2.09023 19.6651 2.07635 19.6703 2.06248 19.675H19.1875C19.1737 19.6703 19.1598 19.6651 19.1459 19.6593L16.7031 18.6468C16.5751 18.5938 16.4684 18.4998 16.3997 18.3795L15.1581 16.2066C15.1198 16.1397 15.0954 16.0713 15.083 16.0035ZM10.5573 4.42739C10.7076 4.39115 10.8646 4.39265 11.0142 4.43176L14.5877 5.36609C14.9491 5.46058 15.2199 5.76057 15.2771 6.1297L15.9121 10.2323C15.9265 10.3254 15.9268 10.4202 15.9129 10.5134L15.2825 14.7585C15.2236 15.1549 14.9194 15.47 14.5253 15.5427L10.9507 16.2024C10.8425 16.2224 10.7317 16.2232 10.6232 16.2047L6.68104 15.5339C6.27713 15.4651 5.96465 15.1421 5.90938 14.7361L5.33297 10.5018C5.32131 10.4162 5.32155 10.3293 5.3337 10.2437L5.91371 6.15576C5.9677 5.7752 6.24852 5.46615 6.62219 5.37606L10.5573 4.42739ZM5.54928 15.8965L2.85996 16.905L1.86481 19.0819L4.30763 18.0694L5.54928 15.8965ZM18.39 16.905L15.7007 15.8965L16.9424 18.0694L19.3852 19.0819L18.39 16.905ZM5.54928 4.70345L2.85996 3.69495L1.86481 1.51805L4.30763 2.53054L5.54928 4.70345ZM18.39 3.69495L15.7007 4.70345L16.9424 2.53054L19.3852 1.51805L18.39 3.69495Z" fill="#836A5D"/>
</svg>
