<svg width="14" height="15" viewBox="0 0 14 15" fill="none" xmlns="http://www.w3.org/2000/svg">
<path d="M12.76 15C12.6477 14.9999 12.539 14.9605 12.4528 14.8886L7.00001 10.3449L1.54721 14.8886C1.47713 14.947 1.39187 14.9842 1.30141 14.9959C1.21095 15.0075 1.11904 14.9932 1.03644 14.9545C0.953846 14.9158 0.883977 14.8544 0.83502 14.7774C0.786063 14.7005 0.760044 14.6112 0.76001 14.52V1.07998C0.76001 0.952672 0.810581 0.830582 0.900599 0.740564C0.990616 0.650547 1.11271 0.599976 1.24001 0.599976H12.76C12.8873 0.599976 13.0094 0.650547 13.0994 0.740564C13.1894 0.830582 13.24 0.952672 13.24 1.07998V14.52C13.24 14.6112 13.214 14.7006 13.1651 14.7777C13.1161 14.8547 13.0462 14.9162 12.9635 14.9549C12.8997 14.9844 12.8303 14.9998 12.76 15ZM7.00001 9.23998C7.11228 9.24003 7.22098 9.27943 7.30721 9.35134L12.28 13.4957V1.55998H1.72001V13.4957L6.69281 9.35134C6.77904 9.27943 6.88774 9.24003 7.00001 9.23998Z" fill="white"/>
</svg>
