<svg width="15" height="15" viewBox="0 0 15 15" fill="none" xmlns="http://www.w3.org/2000/svg">
<path d="M14.2049 14.2522L10.9496 10.9969C11.9487 9.8576 12.5 8.41597 12.5 6.88651C12.5 5.21699 11.8498 3.64757 10.6694 2.46715C9.48893 1.28673 7.91952 0.636505 6.25 0.636505C4.58049 0.636505 3.01107 1.28673 1.83065 2.46715C0.650228 3.64757 0 5.21699 0 6.88651C0 8.55602 0.650228 10.1254 1.83065 11.3059C3.01107 12.4863 4.58049 13.1365 6.25 13.1365C7.77947 13.1365 9.22109 12.5852 10.3604 11.5861L13.6157 14.8414C13.6971 14.9228 13.8037 14.9635 13.9103 14.9635C14.0169 14.9635 14.1235 14.9228 14.2049 14.8414C14.3677 14.6787 14.3677 14.415 14.2049 14.2522ZM2.41984 10.7167C1.39689 9.69351 0.833333 8.33324 0.833333 6.88651C0.833333 5.43977 1.39689 4.0795 2.41984 3.05635C3.44299 2.0334 4.80326 1.46984 6.25 1.46984C7.69674 1.46984 9.05701 2.0334 10.0802 3.05635C11.1031 4.0795 11.6667 5.43977 11.6667 6.88651C11.6667 8.33324 11.1031 9.69351 10.0802 10.7167C9.05701 11.7396 7.69674 12.3032 6.25 12.3032C4.80326 12.3032 3.44299 11.7396 2.41984 10.7167Z" fill="#C9AEA1"/>
</svg>
