<svg width="15" height="24" viewBox="0 0 15 24" fill="none" xmlns="http://www.w3.org/2000/svg">
<path d="M13.8676 5.92517C14.256 5.92517 14.5707 5.61023 14.5707 5.22205V0.703186C14.5707 0.314819 14.256 6.10352e-05 13.8676 6.10352e-05H8.59546C6.13141 6.10352e-05 4.12677 2.0047 4.12677 4.46875V9.0376H1.21484C0.826477 9.0376 0.511719 9.35236 0.511719 9.74072V14.2594C0.511719 14.6478 0.826477 14.9625 1.21484 14.9625H4.12677V23.2969C4.12677 23.6853 4.44153 24.0001 4.8299 24.0001H9.34875C9.73712 24.0001 10.0519 23.6853 10.0519 23.2969V14.9625H12.9638C13.2991 14.9625 13.5876 14.726 13.6534 14.3973L14.557 9.8786C14.5984 9.67206 14.5449 9.45782 14.4113 9.29486C14.2778 9.13208 14.0782 9.0376 13.8676 9.0376H10.0519V5.92517H13.8676ZM9.34875 10.4438H13.0099L12.3874 13.5563H9.34875C8.96039 13.5563 8.64563 13.871 8.64563 14.2594V22.5938H5.53302V14.2594C5.53302 13.871 5.21826 13.5563 4.8299 13.5563H1.91797V10.4438H4.8299C5.21826 10.4438 5.53302 10.1291 5.53302 9.74072V4.46875C5.53302 2.78015 6.90686 1.40631 8.59546 1.40631H13.1645V4.51892H9.34875C8.96039 4.51892 8.64563 4.83368 8.64563 5.22205V9.74072C8.64563 10.1291 8.96039 10.4438 9.34875 10.4438Z" fill="#836A5D"/>
</svg>
