<svg width="20" height="5" viewBox="0 0 20 5" fill="none" xmlns="http://www.w3.org/2000/svg">
<path d="M10 4.29999C11.1046 4.29999 12 3.40456 12 2.29999C12 1.19542 11.1046 0.299988 10 0.299988C8.89543 0.299988 8 1.19542 8 2.29999C8 3.40456 8.89543 4.29999 10 4.29999Z" fill="black"/>
<path d="M2 4.29999C3.10457 4.29999 4 3.40456 4 2.29999C4 1.19542 3.10457 0.299988 2 0.299988C0.89543 0.299988 0 1.19542 0 2.29999C0 3.40456 0.89543 4.29999 2 4.29999Z" fill="black"/>
<path d="M18 4.29999C19.1046 4.29999 20 3.40456 20 2.29999C20 1.19542 19.1046 0.299988 18 0.299988C16.8954 0.299988 16 1.19542 16 2.29999C16 3.40456 16.8954 4.29999 18 4.29999Z" fill="black"/>
</svg>
