<svg width="20" height="20" viewBox="0 0 20 20" fill="none" xmlns="http://www.w3.org/2000/svg">
<path d="M19.9884 13.655L16.2376 1.30874C16.1908 1.15246 16.0345 1.05869 15.8782 1.08995L12.3775 1.7307C12.018 0.558591 10.799 -0.19156 9.5488 0.0428623C8.29854 0.261656 7.439 1.40251 7.50151 2.63713L4.00081 3.27789C3.89141 3.29352 3.79764 3.38728 3.76638 3.49668L0.0156281 15.8429C0 15.8742 0 15.9054 0 15.9367C0 18.1715 1.82849 20 4.06332 20C6.29814 20 8.12664 18.1715 8.12664 15.9367C8.12664 15.9054 8.12664 15.8742 8.11101 15.8429L4.46965 3.8405L7.62653 3.26226C7.95473 4.29372 8.92367 4.99698 10.002 4.99698C10.1427 4.99698 10.2989 4.98136 10.4552 4.9501C11.7055 4.71568 12.565 3.59045 12.5025 2.35583L15.5031 1.79321L11.9086 13.655C11.8774 13.6862 11.8774 13.7175 11.8774 13.7487C11.8774 15.9836 13.7059 17.8121 15.9407 17.8121C18.1755 17.8121 20.004 15.9836 20.004 13.7487C20.004 13.7175 20.004 13.6862 19.9884 13.655ZM4.06332 19.3749C2.26608 19.3749 0.797035 17.9996 0.640754 16.2492H7.48588C7.3296 17.9996 5.86055 19.3749 4.06332 19.3749ZM2.68804 15.6241C2.82869 14.999 3.39131 14.5302 4.06332 14.5302C4.73533 14.5302 5.29794 14.999 5.43859 15.6241H2.68804ZM7.39211 15.6241H6.06372C5.90744 14.6552 5.07915 13.905 4.06332 13.905C3.04749 13.905 2.20357 14.6552 2.06292 15.6241H0.734523L4.06332 4.66879L7.39211 15.6241ZM10.3458 4.3406C9.33 4.52814 8.34543 3.85613 8.15789 2.82467C8.06412 2.32457 8.17352 1.8401 8.45483 1.41814C8.73613 1.01181 9.17372 0.730501 9.65819 0.636732C9.78322 0.636732 9.89262 0.621104 10.002 0.621104C10.8928 0.621104 11.6742 1.26186 11.8461 2.15266C12.0337 3.18412 11.3617 4.15306 10.3458 4.3406ZM15.9407 2.48085L19.2695 13.4362H18.0661L16.1751 11.5452C16.0501 11.4202 15.8626 11.4202 15.7375 11.5452L13.8153 13.4362H12.6119L15.9407 2.48085ZM17.1753 13.4362H14.7061L15.9407 12.2016L17.1753 13.4362ZM15.9407 17.1869C14.1435 17.1869 12.6744 15.8117 12.5181 14.0613H19.3633C19.207 15.8117 17.7379 17.1869 15.9407 17.1869Z" fill="#262523"/>
</svg>
