<svg width="21" height="21" viewBox="0 0 21 21" fill="none" xmlns="http://www.w3.org/2000/svg">
<path d="M10.5 0.799988C4.9871 0.799988 0.5 5.28708 0.5 10.8C0.5 16.3129 4.9871 20.8 10.5 20.8C16.0129 20.8 20.5 16.3129 20.5 10.8C20.5 5.28708 16.0129 0.799988 10.5 0.799988ZM10.5 19.5097C5.69677 19.5097 1.79032 15.6032 1.79032 10.8C1.79032 5.99676 5.69677 2.09031 10.5 2.09031C15.3032 2.09031 19.2097 5.99676 19.2097 10.8C19.2097 15.6032 15.3032 19.5097 10.5 19.5097Z" fill="#836A5D"/>
<path d="M14.1484 7.1516C13.8968 6.89999 13.4871 6.89999 13.2355 7.1516L10.5 9.88708L7.76129 7.14838C7.50968 6.89676 7.1 6.89676 6.84839 7.14838C6.59677 7.39999 6.59677 7.80967 6.84839 8.06128L9.5871 10.8L6.84839 13.5387C6.59677 13.7903 6.59677 14.2 6.84839 14.4516C6.97419 14.5774 7.13871 14.6419 7.30323 14.6419C7.46774 14.6419 7.63226 14.5774 7.75807 14.4516L10.5 11.7129L13.2387 14.4516C13.3645 14.5774 13.529 14.6419 13.6935 14.6419C13.8581 14.6419 14.0226 14.5774 14.1484 14.4516C14.4 14.2 14.4 13.7903 14.1484 13.5387L11.4129 10.8L14.1516 8.06128C14.4 7.80967 14.4 7.40321 14.1484 7.1516Z" fill="#836A5D"/>
</svg>
