<svg width="20" height="19" viewBox="0 0 20 19" fill="none" xmlns="http://www.w3.org/2000/svg">
<path d="M15.2072 7.54999H15.1809C15.1071 7.5476 15.0344 7.53048 14.9672 7.49962C14.9 7.46877 14.8397 7.4248 14.7897 7.37031C14.7398 7.31581 14.7012 7.25189 14.6763 7.18228C14.6514 7.11268 14.6407 7.0388 14.6447 6.96499L14.7947 3.47374C14.7966 3.40019 14.8132 3.32776 14.8433 3.26067C14.8735 3.19357 14.9167 3.13314 14.9704 3.08289C15.0242 3.03264 15.0874 2.99358 15.1563 2.96797C15.2253 2.94237 15.2987 2.93073 15.3722 2.93374C15.5208 2.94055 15.6606 3.00592 15.7611 3.11555C15.8616 3.22518 15.9145 3.37014 15.9084 3.51874L15.7584 7.01374C15.7518 7.1564 15.6911 7.2912 15.5888 7.39078C15.4864 7.49037 15.35 7.54729 15.2072 7.54999Z" fill="#836A5D"/>
<path d="M18.6534 4.49374H18.5784L15.2822 4.05874C15.133 4.03934 14.9976 3.96148 14.9059 3.84228C14.8141 3.72308 14.7734 3.5723 14.7928 3.42311C14.8122 3.27393 14.8901 3.13856 15.0093 3.04678C15.1285 2.95501 15.2793 2.91434 15.4284 2.93374L18.7247 3.37249C18.8739 3.38194 19.0132 3.45026 19.112 3.56243C19.2108 3.6746 19.261 3.82143 19.2516 3.97061C19.2421 4.1198 19.1738 4.25912 19.0616 4.35793C18.9495 4.45673 18.8026 4.50694 18.6534 4.49749V4.49374Z" fill="#836A5D"/>
<path d="M9.74719 18.8C7.36024 18.8 5.07106 17.8518 3.38323 16.1639C1.6954 14.4761 0.747192 12.1869 0.747192 9.79999C0.747192 7.41304 1.6954 5.12385 3.38323 3.43603C5.07106 1.7482 7.36024 0.799988 9.74719 0.799988C9.89638 0.799988 10.0395 0.859251 10.1449 0.96474C10.2504 1.07023 10.3097 1.2133 10.3097 1.36249C10.3097 1.51167 10.2504 1.65475 10.1449 1.76024C10.0395 1.86572 9.89638 1.92499 9.74719 1.92499C7.90622 1.92867 6.12472 2.57722 4.71225 3.75795C3.29978 4.93867 2.34561 6.57695 2.01555 8.38809C1.68549 10.1992 2.00039 12.0688 2.90554 13.6719C3.8107 15.275 5.24888 16.5103 6.97021 17.1631C8.69153 17.816 10.5872 17.8452 12.3278 17.2456C14.0684 16.646 15.5439 15.4555 16.498 13.8811C17.452 12.3066 17.8243 10.4476 17.5501 8.62717C17.276 6.80673 16.3727 5.13987 14.9972 3.91624C14.942 3.86699 14.8971 3.80736 14.865 3.74076C14.8329 3.67416 14.8142 3.60188 14.81 3.52806C14.8016 3.37897 14.8527 3.23263 14.9522 3.12124C15.0516 3.00985 15.1913 2.94253 15.3404 2.93409C15.4142 2.92991 15.4881 2.94031 15.5579 2.9647C15.6277 2.98909 15.692 3.02699 15.7472 3.07624C17.1115 4.29017 18.0743 5.89042 18.5076 7.66447C18.9409 9.43853 18.8243 11.3024 18.1732 13.0086C17.5222 14.7148 16.3675 16.1826 14.8625 17.217C13.3575 18.2514 11.5734 18.8035 9.74719 18.8Z" fill="#836A5D"/>
</svg>
