<svg width="18" height="20" viewBox="0 0 18 20" fill="none" xmlns="http://www.w3.org/2000/svg">
<path d="M15.956 5.33819C15.9408 5.22208 15.8836 5.11554 15.7953 5.03868C15.7069 4.96182 15.5935 4.91993 15.4764 4.92092H12.8337V3.96169C12.8337 2.911 12.4163 1.90335 11.6734 1.1604C10.9304 0.417446 9.92277 6.10352e-05 8.87208 6.10352e-05C7.82139 6.10352e-05 6.81373 0.417446 6.07078 1.1604C5.32783 1.90335 4.91044 2.911 4.91044 3.96169V4.92092H2.26296C2.14586 4.91993 2.03244 4.96182 1.94409 5.03868C1.85574 5.11554 1.79857 5.22208 1.78335 5.33819L0.00396997 18.8346C-0.00508514 18.9045 0.0013951 18.9756 0.0229492 19.0428C0.0445034 19.1099 0.0806011 19.1715 0.12867 19.2231C0.330109 19.4389 0.550732 19.6595 0.79054 19.8754C0.878501 19.9553 0.993017 19.9998 1.11188 20.0001H16.6323C16.7511 19.9998 16.8656 19.9553 16.9536 19.8754C17.1886 19.6595 17.4332 19.4389 17.6155 19.2231C17.6635 19.1715 17.6996 19.1099 17.7212 19.0428C17.7428 18.9756 17.7492 18.9045 17.7402 18.8346L15.956 5.33819ZM5.88407 3.9521C5.88407 3.15581 6.20039 2.39214 6.76345 1.82908C7.32651 1.26602 8.09018 0.949702 8.88646 0.949702C9.68275 0.949702 10.4464 1.26602 11.0095 1.82908C11.5725 2.39214 11.8889 3.15581 11.8889 3.9521V4.91133H5.86968L5.88407 3.9521ZM16.4356 19.0408H1.29893L0.982387 18.7339L2.68023 5.88016H15.0591L16.757 18.7339L16.4356 19.0408Z" fill="#262523"/>
</svg>
