<svg width="14" height="14" viewBox="0 0 14 14" fill="none" xmlns="http://www.w3.org/2000/svg">
<path d="M13.848 0.896845L13.8269 0.917899C13.6637 1.08897 13.49 1.25477 13.3216 1.42321L7.7448 7L13.848 13.1032C14.0559 13.3111 14.0401 13.6374 13.848 13.848C13.6558 14.0585 13.2979 14.0427 13.1032 13.848L13.0821 13.8269C12.911 13.6637 12.7452 13.49 12.5768 13.3216L7 7.7448L0.896845 13.848C0.688933 14.0559 0.362589 14.0401 0.152044 13.848C-0.0585 13.6558 -0.0427092 13.2979 0.152044 13.1032L0.173099 13.0821C0.336271 12.911 0.509969 12.7452 0.678405 12.5768L6.2552 7L0.152044 0.896845C-0.0558682 0.688933 -0.0400774 0.362589 0.152044 0.152044C0.344166 -0.0585 0.702092 -0.0427092 0.896845 0.152044L0.917899 0.173099C1.08897 0.336271 1.25477 0.509969 1.42321 0.678405L7 6.2552L13.1032 0.152044C13.3111 -0.0558682 13.6374 -0.0400774 13.848 0.152044C14.0585 0.344166 14.0427 0.69946 13.848 0.896845Z" fill="#6A665E"/>
</svg>
