<svg width="20" height="24" viewBox="0 0 20 24" fill="none" xmlns="http://www.w3.org/2000/svg">
<path d="M4.58328 11.0014C3.86928 9.66141 3.96628 7.93041 4.83428 6.48241C7.28328 2.40441 14.8703 3.09141 14.8703 8.68841C14.8703 13.6554 11.4563 14.9074 10.1603 13.8564C9.02128 12.9364 11.0283 10.2484 11.0283 7.92541C11.0283 3.96441 5.20028 4.41541 5.20028 9.32241C5.20028 10.2884 5.43128 11.0324 5.58228 11.4144C5.31228 12.5194 4.21728 17.0174 3.99128 17.9524C3.92528 18.2254 3.37828 23.3464 4.62028 23.9324C6.26528 24.7094 8.22728 18.7324 8.64328 17.0074C9.41928 17.5344 10.4533 17.8634 11.4863 17.8634C21.5963 17.8624 23.2403 -0.00158691 10.0963 -0.00158691V-0.000586914C0.243283 -0.000586914 -2.29772 10.0914 2.03428 14.1014C3.21928 15.1914 5.20728 12.1704 4.58328 11.0014ZM10.0963 1.49841C21.2303 1.49841 19.6543 16.3624 11.4873 16.3624C10.2953 16.3624 9.22428 15.7534 8.91628 15.1894C8.77728 14.9354 8.52528 14.7894 8.21528 14.7994C6.91928 14.8734 7.69728 17.4734 5.34328 21.4554C5.12728 17.5114 5.84428 17.6244 7.10128 11.5234C7.18828 11.1664 5.98728 8.84941 7.35528 7.33441C7.68728 6.96541 8.12228 6.75441 8.54728 6.75441C10.5623 6.75441 8.89928 10.1644 8.38228 12.2934C7.74728 14.9484 10.4753 16.4834 13.0583 15.2524C14.0543 14.7764 16.3713 13.1854 16.3713 8.68841C16.3713 1.56141 6.78228 0.326413 3.55028 5.71041C2.42828 7.57841 2.30428 9.83641 3.21928 11.6264C3.18828 11.8584 2.92628 12.3104 2.68828 12.6104C-0.109717 9.19041 1.98828 1.49941 10.0963 1.49841Z" fill="#836A5D"/>
</svg>
