<svg width="23" height="22" viewBox="0 0 23 22" fill="none" xmlns="http://www.w3.org/2000/svg">
<path d="M21.9272 9.47451C21.272 8.6849 20.2462 8.1944 19.25 8.1944H16.6148C17.2078 7.24931 17.6542 6.29826 17.9262 5.39264C18.3413 4.01067 18.3267 2.80598 17.8841 1.90879C17.3856 0.898264 16.3754 0.341717 15.0396 0.341717C14.7358 0.341717 14.462 0.524998 14.3462 0.805873C13.3062 3.32854 10.5933 6.95433 8.03738 9.34284C7.77657 8.43689 6.94074 7.77201 5.952 7.77201H2.74107C1.54439 7.77201 0.570801 8.74561 0.570801 9.94223V19.4881C0.570801 20.6848 1.54439 21.6584 2.74107 21.6584H5.952C6.68405 21.6584 7.33214 21.2937 7.72543 20.7368C8.32036 21.3092 9.10908 21.6584 9.97332 21.6584H18.0584C18.9522 21.6584 19.7481 21.2778 20.3602 20.5578C20.8648 19.9642 21.2231 19.1624 21.3965 18.2389L22.5882 11.8907C22.7481 11.039 22.5133 10.1809 21.9272 9.47451ZM6.62222 19.4882C6.62222 19.8577 6.32157 20.1585 5.952 20.1585H2.74107C2.3715 20.1585 2.0708 19.8577 2.0708 19.4882V9.94228C2.0708 9.57272 2.3715 9.27206 2.74107 9.27206H5.952C6.32157 9.27206 6.62222 9.57272 6.62222 9.94228V19.4882ZM21.1139 11.614L19.9223 17.9622C19.7229 19.0239 19.1286 20.1585 18.0583 20.1585H9.97327C8.95261 20.1585 8.12227 19.2353 8.12227 18.1005V11.2689C10.9493 8.922 14.1154 4.89126 15.5131 1.87861C16.2589 2.0048 16.4637 2.41997 16.539 2.5724C17.0258 3.55917 16.6217 5.83125 14.5844 8.48798C14.4106 8.71453 14.3806 9.02015 14.507 9.27619C14.6333 9.53222 14.894 9.69436 15.1796 9.69436H19.2501C19.8032 9.69436 20.4009 9.984 20.7728 10.4323C20.9822 10.6847 21.2115 11.0946 21.1139 11.614Z" fill="#836A5D"/>
</svg>
