<svg width="22" height="20" viewBox="0 0 22 20" fill="none" xmlns="http://www.w3.org/2000/svg">
<path d="M15.8183 0C13.8638 0.00301849 12.0328 0.95633 10.9092 2.5556C9.7856 0.95633 7.95462 0.00301849 6.00005 0C2.80365 0 0 2.97393 0 6.36369C0 9.66734 1.86543 13.0699 5.39493 16.2038C7.03025 17.653 8.82412 18.9128 10.7423 19.9595C10.847 20.0135 10.9713 20.0135 11.0761 19.9595C12.9935 18.9128 14.7869 17.6529 16.4217 16.2038C19.9529 13.0699 21.8184 9.66734 21.8184 6.36369C21.8184 2.97393 19.0147 0 15.8183 0ZM10.9092 19.223C9.57359 18.486 0.727279 13.3368 0.727279 6.36369C0.727279 3.36118 3.1909 0.727279 6.00005 0.727279C7.90312 0.730653 9.6574 1.7573 10.5924 3.41498C10.6624 3.52187 10.7815 3.58615 10.9092 3.58615C11.0369 3.58615 11.156 3.52187 11.226 3.41498C12.161 1.7573 13.9152 0.730653 15.8183 0.727279C18.6275 0.727279 21.0911 3.36118 21.0911 6.36369C21.0911 13.3368 12.2448 18.486 10.9092 19.223Z" fill="#262523"/>
</svg>
