<svg width="24" height="16" viewBox="0 0 24 16" fill="none" xmlns="http://www.w3.org/2000/svg">
<path d="M23.7509 2.08727C23.5964 1.9957 23.4053 1.99213 23.2476 2.07813L17.741 5.08488V3.28079C17.7394 1.87732 16.6021 0.740008 15.1986 0.738419H2.54237C1.1389 0.740008 0.00158898 1.87732 0 3.28079V13.3192C0.00158898 14.7227 1.1389 15.86 2.54237 15.8616H15.1986C16.6021 15.86 17.7394 14.7227 17.741 13.3192V11.5479L23.2478 14.5546C23.4053 14.6406 23.5966 14.6373 23.7509 14.5457C23.9055 14.4539 24 14.2877 24 14.1083V2.52444C24 2.34488 23.9053 2.17883 23.7509 2.08727ZM16.7236 13.3194C16.7229 14.1616 16.0404 14.8438 15.1982 14.8448H2.54237C1.70021 14.8438 1.01794 14.1616 1.01695 13.3194V3.28079C1.01794 2.43883 1.70021 1.75636 2.54237 1.75537H15.1986C16.0406 1.75636 16.7231 2.43883 16.724 3.28079L16.7236 13.3194ZM22.9831 13.2515L17.741 10.3893V6.24345L22.9831 3.38149V13.2515Z" fill="#262523"/>
</svg>
